<svg width="14" height="24" viewBox="0 0 14 24" fill="none" xmlns="http://www.w3.org/2000/svg">
<path d="M3.78541 1.57413V2.32164H1.54288C0.717594 2.32164 0.0478516 2.99139 0.0478516 3.81667L0.0478516 22.505C0.0477679 23.3309 0.717594 24 1.54288 24H12.0083C12.8343 24 13.5033 23.3302 13.5033 22.505L13.5033 3.81675C13.5033 2.99147 12.8342 2.32173 12.0083 2.32173H9.76568V1.57422C9.76568 0.748935 9.0966 0.0791912 8.27065 0.0791912H5.28052C4.45599 0.0791076 3.78541 0.748934 3.78541 1.57413Z" fill="#E1E1E1"/>
<path fill-rule="evenodd" clip-rule="evenodd" d="M10.5133 4.56421C10.9267 4.56421 11.2608 4.89837 11.2608 5.31172L11.2608 21.0098C11.2608 21.4224 10.9267 21.7573 10.5133 21.7573H3.03804C2.62544 21.7573 2.29053 21.4224 2.29053 21.0098L2.29053 5.31172C2.29053 4.89837 2.62544 4.56421 3.03804 4.56421H10.5133V4.56421Z" fill="white"/>
<path d="M5.66278 17.8986C5.36751 17.7059 5.27961 17.3028 5.46674 16.9983L7.21631 14.1524H4.63307C4.40224 14.1524 4.18972 14.023 4.07841 13.8145C3.96716 13.6062 3.97475 13.3518 4.09825 13.1508L6.46363 9.30336C6.65077 8.99899 7.04193 8.90853 7.33731 9.10136C7.63258 9.29408 7.72048 9.69714 7.53334 10.0016L5.78366 12.8476H8.3669C8.59773 12.8476 8.81026 12.977 8.92156 13.1855C8.97399 13.2836 9 13.3919 9 13.5C9 13.6215 8.96707 13.7428 8.90173 13.8492L6.5364 17.6966C6.34926 18.001 5.95816 18.0915 5.66278 17.8986Z" fill="#D13C3C"/>
</svg>
