<svg width="14" height="24" viewBox="0 0 14 24" fill="none" xmlns="http://www.w3.org/2000/svg">
<path fill-rule="evenodd" clip-rule="evenodd" d="M3.78541 2.32155V1.57404C3.78541 0.748844 4.45599 0.0790176 5.28052 0.0791016H8.27065C9.0966 0.0791016 9.76568 0.748844 9.76568 1.57413V2.32164H12.0083C12.8342 2.32164 13.5033 2.99138 13.5033 3.81666V22.5049C13.5033 23.3301 12.8343 23.9999 12.0083 23.9999H1.54288C0.717594 23.9999 0.0477679 23.3308 0.0478516 22.5049V3.81658C0.0478516 2.9913 0.717594 2.32155 1.54288 2.32155H3.78541ZM11.2607 5.31169C11.2607 4.89834 10.9265 4.56417 10.5132 4.56417H3.0379C2.6253 4.56417 2.29039 4.89834 2.29039 5.31169V21.0098C2.29039 21.4224 2.6253 21.7573 3.0379 21.7573H10.5132C10.9265 21.7573 11.2607 21.4224 11.2607 21.0098V5.31169Z" fill="#E1E1E1"/>
<path d="M7.80465 17.0975C7.80465 16.5991 7.40063 16.1951 6.90225 16.1951C6.40387 16.1951 5.99985 16.5991 5.99985 17.0975C5.99985 17.5959 6.40387 17.9999 6.90225 17.9999C7.40063 17.9999 7.80465 17.5959 7.80465 17.0975Z" fill="#F39C11"/>
<path d="M6.19985 7.48896V14.4122C6.19985 14.855 6.55865 15.2142 7.00225 15.2142C7.44585 15.2142 7.80465 14.8554 7.80465 14.4122V7.48896C7.80465 7.04616 7.44585 6.68656 7.00225 6.68656C6.55865 6.68656 6.19985 7.04576 6.19985 7.48896Z" fill="#F39C11"/>
</svg>
