<svg width="14" height="24" viewBox="0 0 14 24" fill="none" xmlns="http://www.w3.org/2000/svg">
<path fill-rule="evenodd" clip-rule="evenodd" d="M3.78541 2.32155V1.57404C3.78541 0.748844 4.45599 0.0790176 5.28052 0.0791016H8.27065C9.0966 0.0791016 9.76568 0.748844 9.76568 1.57413V2.32164H12.0083C12.8342 2.32164 13.5033 2.99138 13.5033 3.81666V22.5049C13.5033 23.3301 12.8343 23.9999 12.0083 23.9999H1.54288C0.717594 23.9999 0.0477679 23.3308 0.0478516 22.5049V3.81658C0.0478516 2.9913 0.717594 2.32155 1.54288 2.32155H3.78541ZM11.2607 5.31169C11.2607 4.89834 10.9265 4.56417 10.5132 4.56417H3.0379C2.6253 4.56417 2.29039 4.89834 2.29039 5.31169V21.0098C2.29039 21.4224 2.6253 21.7573 3.0379 21.7573H10.5132C10.9265 21.7573 11.2607 21.4224 11.2607 21.0098V5.31169Z" fill="#E1E1E1"/>
<path fill-rule="evenodd" clip-rule="evenodd" d="M3.78541 19.5155V17.2729C3.78541 16.8595 4.12183 16.5254 4.53292 16.5254H9.01808C9.43143 16.5254 9.76559 16.8595 9.76559 17.2729V19.5155C9.76559 19.9281 9.43143 20.263 9.01808 20.263H4.53292C4.12032 20.263 3.78541 19.9281 3.78541 19.5155ZM3.78541 14.2828V12.0402C3.78541 11.6261 4.12183 11.292 4.53292 11.292H9.01808C9.43143 11.292 9.76559 11.6261 9.76559 12.0402V14.2828C9.76559 14.6954 9.43143 15.0303 9.01808 15.0303H4.53292C4.12032 15.0303 3.78541 14.6954 3.78541 14.2828Z" fill="#7ACE4C"/>
</svg>
