<svg width="16" height="16" viewBox="0 0 16 16" fill="none" xmlns="http://www.w3.org/2000/svg">
<path fill-rule="evenodd" clip-rule="evenodd" d="M14.5714 1.61902H12.2857V0.666643C12.2857 0.342834 12.0381 0.0952148 11.7143 0.0952148C11.3905 0.0952148 11.1428 0.342834 11.1428 0.666643V1.61902H4.66664V0.666643C4.66664 0.342834 4.41902 0.0952148 4.09521 0.0952148C3.77141 0.0952148 3.52379 0.342834 3.52379 0.666643V1.61902H1.0476C0.514262 1.61902 0.0952148 2.03807 0.0952148 2.57141V14.9524C0.0952148 15.4857 0.514262 15.9047 1.0476 15.9047H14.5714C15.1047 15.9047 15.5238 15.4857 15.5238 14.9524V2.57141C15.5238 2.03807 15.1047 1.61902 14.5714 1.61902ZM3.52379 2.76188V3.71426C3.52379 4.03807 3.77141 4.28569 4.09521 4.28569C4.41902 4.28569 4.66664 4.03807 4.66664 3.71426V2.76188H11.1428V3.71426C11.1428 4.03807 11.3905 4.28569 11.7143 4.28569C12.0381 4.28569 12.2857 4.03807 12.2857 3.71426V2.76188H14.3809V5.42855H1.23807V2.76188H3.52379ZM1.23807 6.57141V14.7619H14.3809V6.57141H1.23807Z" fill="#222222"/>
<path d="M9.99998 11.5238H5.8095C5.48569 11.5238 5.23807 11.7714 5.23807 12.0952C5.23807 12.419 5.48569 12.6666 5.8095 12.6666H9.99998C10.3238 12.6666 10.5714 12.419 10.5714 12.0952C10.5714 11.7714 10.3238 11.5238 9.99998 11.5238Z" fill="#222222"/>
<path d="M9.99998 8.85712H5.8095C5.48569 8.85712 5.23807 9.10474 5.23807 9.42855C5.23807 9.75236 5.48569 9.99998 5.8095 9.99998H9.99998C10.3238 9.99998 10.5714 9.75236 10.5714 9.42855C10.5714 9.10474 10.3238 8.85712 9.99998 8.85712Z" fill="#222222"/>
</svg>
