<svg width="32" height="25" viewBox="0 0 32 25" fill="none" xmlns="http://www.w3.org/2000/svg">
<path fill-rule="evenodd" clip-rule="evenodd" d="M29.3289 3.49805H22.4998C22.2791 1.97739 20.9266 0.72119 19.2954 0.72119H17.6529V0.661157C17.6529 0.29601 17.3569 0 16.9917 0C16.6266 0 16.3306 0.29601 16.3306 0.661157V1.87279L14.4038 1.86162C14.1676 1.86089 13.949 1.98623 13.8302 2.19042C13.7115 2.39462 13.7107 2.64665 13.8282 2.85158C13.9457 3.05651 14.1635 3.1832 14.3997 3.18393L16.3303 3.19517V5.26334L14.3958 5.27458C14.0284 5.27812 13.7322 5.57644 13.7312 5.94387C13.7295 6.307 14.0221 6.60298 14.3852 6.60549H14.3891L16.3306 6.58565V7.79729C16.3306 8.16244 16.6266 8.45845 16.9917 8.45845C17.3569 8.45845 17.6529 8.16244 17.6529 7.79729V7.72945H19.2954C20.953 7.72391 22.3397 6.4692 22.5104 4.82036H29.3289C30.0709 4.82036 30.6777 5.45243 30.6777 6.19445V16.8977C30.6751 17.6408 30.072 18.2419 29.3289 18.2419H29.2231V17.5043C29.2212 16.4583 28.6097 15.5093 27.658 15.0754L25.3355 14.0201L23.2838 10.7474C22.6759 9.77114 21.6056 9.17952 20.4556 9.184H11.6897C10.649 9.18595 9.6682 9.67094 9.03491 10.4967L6.39484 13.9621L1.96635 15.171C0.807173 15.4894 0.00279396 16.542 0 17.7441V19.4397C0.00273356 20.1442 0.286126 20.8185 0.787445 21.3134C1.28876 21.8083 1.96666 22.0829 2.67107 22.0766H3.00119C3.4038 23.5386 4.73348 24.5517 6.24998 24.5517C7.76649 24.5517 9.09616 23.5386 9.49878 22.0766H19.3906C19.7932 23.5387 21.1229 24.5517 22.6394 24.5517C24.1559 24.5517 25.4856 23.5387 25.8881 22.0766H26.5527C27.9816 22.0766 29.1515 20.9526 29.2176 19.5642H29.3289C30.802 19.5635 31.9968 18.3708 32 16.8977V6.19445C32 4.72324 30.8001 3.49805 29.3289 3.49805ZM21.2231 4.48013C21.2166 5.54197 20.3572 6.40104 19.2954 6.40714H17.6529V2.0435H19.2954C20.3588 2.05332 21.2173 2.91504 21.2231 3.97845V4.48013ZM4.35775 21.9962C4.67476 22.7615 5.42159 23.2606 6.24998 23.2606C7.38058 23.2593 8.2968 22.3431 8.29812 21.2125C8.29814 20.3841 7.79915 19.6373 7.03382 19.3202C6.26848 19.0032 5.38753 19.1784 4.80176 19.7642C4.21598 20.3499 4.04074 21.2309 4.35775 21.9962ZM22.6394 23.2606C21.5083 23.2605 20.5913 22.3435 20.5913 21.2124C20.5914 20.0812 21.5084 19.1643 22.6395 19.1643C23.7707 19.1643 24.6876 20.0813 24.6876 21.2125C24.6863 22.3431 23.77 23.2594 22.6394 23.2606ZM26.5527 20.7542C27.2947 20.7542 27.9008 20.1818 27.9008 19.4397V17.5043C27.8997 16.9766 27.591 16.498 27.1108 16.2793L24.6067 15.1421C24.4887 15.0887 24.389 15.0016 24.3201 14.8918L22.163 11.4491C21.7959 10.86 21.1497 10.5032 20.4556 10.5063H11.6897C11.0614 10.5071 10.4692 10.7996 10.0867 11.2979L7.31074 14.9402C7.22263 15.0558 7.0989 15.1391 6.95868 15.1774L2.31484 16.446C1.72998 16.6067 1.32403 17.1376 1.32231 17.7441V19.4397C1.32231 20.1818 1.92906 20.7542 2.67107 20.7542H2.90757C3.12203 19.0717 4.5538 17.8108 6.24998 17.8108C7.94617 17.8108 9.37794 19.0717 9.5924 20.7542H19.2969C19.5115 19.0718 20.9433 17.811 22.6394 17.811C24.3355 17.811 25.7672 19.0718 25.9818 20.7542H26.5527Z" fill="#E1E1E1"/>
</svg>
