<svg width="32" height="31" viewBox="0 0 32 31" fill="none" xmlns="http://www.w3.org/2000/svg">
<path fill-rule="evenodd" clip-rule="evenodd" d="M17.75 1.25V3C17.75 3.69037 18.3096 4.25 19 4.25C19.6904 4.25 20.25 3.69037 20.25 3V1.25C20.25 0.559625 19.6904 0 19 0C18.3096 0 17.75 0.559625 17.75 1.25ZM24.38 20.4062C24.3787 20.1353 24.3779 19.8563 24.3779 19.625C24.3779 18.9503 24.2429 18.3066 23.9998 17.7187C25.1995 16.4486 25.875 14.7677 25.875 13C25.875 9.20913 22.7909 6.125 19 6.125C17.3642 6.125 15.7791 6.70944 14.5367 7.77069C13.5804 8.58756 12.8713 9.64875 12.4781 10.8269C11.7772 10.6159 11.0444 10.5061 10.3017 10.5061C6.10319 10.5061 2.6875 13.9067 2.6875 18.0867V18.7282C1.01725 19.9006 0.0053125 21.8294 0 23.9303V23.9375V23.9468V23.9542C0.008875 27.3912 2.75131 30.1976 6.16375 30.3091C6.19456 30.3114 6.22563 30.3125 6.25688 30.3125H23.2367C23.9271 30.3125 24.4867 29.7529 24.4867 29.0625C24.4867 28.3721 23.9271 27.8125 23.2367 27.8125H6.3825L6.27688 27.8113C4.187 27.759 2.5025 26.0438 2.5 23.9421C2.50169 22.4985 3.27675 21.1911 4.5235 20.5294C4.93206 20.3126 5.1875 19.8879 5.1875 19.4253V18.0867C5.1875 15.2852 7.48175 13.0061 10.3017 13.0061C12.7829 13.0061 14.9411 14.8591 15.3219 17.3164C15.3961 17.7955 15.7407 18.1885 16.206 18.3247C16.6714 18.4609 17.1734 18.3157 17.4942 17.9522C17.9681 17.4155 18.6352 17.1199 19.3727 17.1199C20.7541 17.1199 21.8779 18.2437 21.8779 19.6251C21.8779 20.2987 21.8853 21.3673 21.8862 21.4964L21.8863 21.5092C21.8913 22.196 22.4495 22.7501 23.1363 22.7501C24.5192 22.7501 25.6875 23.9212 25.6875 25.3074C25.6875 25.9977 26.2471 26.5574 26.9375 26.5574C27.6279 26.5574 28.1875 25.9977 28.1875 25.3074C28.1875 23.9699 27.6607 22.7044 26.7043 21.7439C26.0484 21.0854 25.2488 20.6291 24.38 20.4062ZM22.4536 15.6847C21.6034 15.0186 20.5341 14.6199 19.3727 14.6199C18.6315 14.6199 17.9102 14.7811 17.2564 15.0824C16.8064 14.0457 16.1263 13.1122 15.2591 12.3595C15.0951 12.2171 14.9254 12.0826 14.751 11.9556C15.2243 10.0077 16.9622 8.625 19 8.625C21.4124 8.625 23.375 10.5876 23.375 13C23.375 13.983 23.046 14.9234 22.4536 15.6847ZM32 13C32 13.6904 31.4404 14.25 30.75 14.25H29C28.3096 14.25 27.75 13.6904 27.75 13C27.75 12.3096 28.3096 11.75 29 11.75H30.75C31.4404 11.75 32 12.3096 32 13ZM27.0352 6.91744C26.4374 7.26263 26.2326 8.02713 26.5778 8.625C26.8092 9.02606 27.2294 9.25019 27.6614 9.25025C27.8734 9.25025 28.0884 9.19619 28.2852 9.08256L29.8008 8.20756C30.3987 7.86238 30.6035 7.09788 30.2583 6.5C29.9132 5.90213 29.1486 5.69738 28.5508 6.04244L27.0352 6.91744ZM23.0888 3.78894L23.9918 2.28988C24.3479 1.6985 25.1161 1.50781 25.7075 1.86406C26.2988 2.22025 26.4895 2.98837 26.1333 3.57981L25.2304 5.07888C24.9958 5.46844 24.5823 5.68412 24.1584 5.68412C23.9389 5.68412 23.7165 5.62625 23.5147 5.50469C22.9233 5.14844 22.7326 4.38031 23.0888 3.78894ZM12.5 1.74169C11.9021 2.08681 11.6973 2.85131 12.0424 3.44919L12.9175 4.96475C13.149 5.36575 13.5691 5.58994 14.0012 5.58994C14.2132 5.58994 14.4282 5.53587 14.625 5.42225C15.2229 5.07713 15.4277 4.31262 15.0826 3.71475L14.2076 2.19919C13.8624 1.60131 13.0979 1.3965 12.5 1.74169ZM7.9485 6.15425C8.31206 5.56737 9.08256 5.38631 9.66938 5.74981L11.1571 6.67137C11.7439 7.03494 11.925 7.80537 11.5615 8.39225C11.3249 8.77413 10.9161 8.98419 10.4977 8.98419C10.273 8.98419 10.0457 8.92369 9.84062 8.79669L8.35294 7.87512C7.766 7.51162 7.58494 6.74113 7.9485 6.15425ZM29.0641 20.3127C29.4879 20.3127 29.9014 20.097 30.136 19.7074C30.4922 19.1161 30.3016 18.3479 29.7103 17.9917L28.2112 17.0888C27.6198 16.7326 26.8516 16.9233 26.4954 17.5146C26.1392 18.106 26.3299 18.8741 26.9213 19.2303L28.4203 20.1332C28.6221 20.2548 28.8445 20.3127 29.0641 20.3127Z" fill="#CCCCCC"/>
</svg>
