<svg width="23" height="17" viewBox="0 0 23 17" fill="none" xmlns="http://www.w3.org/2000/svg">
<path fill-rule="evenodd" clip-rule="evenodd" d="M14.4941 1.86669C16.7604 1.86669 18.6315 3.54667 18.9213 5.78668C21.0296 6.66668 22.4 8.74667 22.4 11.0667C22.4 14.24 19.8701 16.8 16.7341 16.8H5.66589C2.52987 16.8 0 14.24 0 11.0667C0 9.0933 1.00141 7.28 2.63529 6.21328V6.1333C2.63529 2.74664 5.34962 0 8.69644 0C10.4357 0 12.096 0.746686 13.2291 2.05335C13.6508 1.92003 14.0724 1.86669 14.4941 1.86669ZM5.71723 15.12H16.6567C18.8707 15.12 20.694 13.2753 20.72 11.0353C20.72 9.26963 19.5739 7.68845 17.8809 7.13506C17.5684 7.02964 17.334 6.73975 17.334 6.39716C17.3079 4.81603 16.0577 3.55106 14.4689 3.55106C14.0782 3.55106 13.6874 3.63011 13.2707 3.81457C12.9321 3.9727 12.5154 3.86728 12.307 3.55106C11.4735 2.36519 10.1191 1.68 8.71255 1.68C6.26419 1.68 4.28466 3.68282 4.28466 6.15998C4.28466 6.31812 4.28466 6.44987 4.31068 6.55529C4.36278 6.89784 4.20649 7.24043 3.89395 7.39857C2.51347 8.11009 1.68 9.50681 1.68 11.0353C1.68 13.2753 3.50329 15.12 5.71723 15.12Z" fill="#E1E1E1"/>
</svg>
