<svg width="40" height="34" viewBox="0 0 40 34" fill="none" xmlns="http://www.w3.org/2000/svg">
<mask id="path-1-inside-1" fill="white">
<path fill-rule="evenodd" clip-rule="evenodd" d="M37.1885 29.6192L37.1884 29.6191L21.0236 2.81091C21.0235 2.8109 21.0235 2.81089 21.0235 2.81087C20.7486 2.35501 20.2367 2.06592 19.7044 2.06592C19.1721 2.06592 18.6601 2.355 18.3851 2.81103L2.22041 29.619C2.2204 29.619 2.22039 29.619 2.22038 29.6191C1.93473 30.0929 1.92618 30.69 2.19818 31.1718M0.507654 28.5863L16.6724 1.7782C17.3094 0.722014 18.4711 0.065918 19.7044 0.065918C20.9377 0.065918 22.0994 0.722014 22.7363 1.77813L38.9011 28.5863C39.5594 29.6778 39.5788 31.0454 38.9521 32.1554C38.3252 33.2653 37.1439 33.9548 35.8693 33.9548H3.53952C2.26489 33.9548 1.0837 33.2653 0.456777 32.1554C-0.169994 31.0455 -0.15052 29.6779 0.507654 28.5863ZM37.1885 29.6192C37.4741 30.0927 37.4827 30.6898 37.2106 31.1718L37.1885 29.6192ZM2.19829 31.172C2.47057 31.6539 2.98637 31.9548 3.53952 31.9548H35.8693C36.4224 31.9548 36.9383 31.6539 37.2105 31.172M36.7039 29.9113L20.5391 3.10309C20.3637 2.81238 20.0439 2.63173 19.7045 2.63173C19.365 2.63173 19.0451 2.81238 18.8698 3.10309L2.70485 29.9113C2.52374 30.2117 2.51835 30.5882 2.69092 30.8938C2.86341 31.1993 3.18861 31.3891 3.53952 31.3891H35.8693C36.2202 31.3891 36.5454 31.1992 36.7179 30.8937C36.8905 30.5882 36.8851 30.2118 36.7039 29.9113ZM34.0535 29.3891L19.7044 5.5921L5.35517 29.3891H34.0535Z"/>
</mask>
<path d="M37.1885 29.6192L38.1884 29.6049L38.1737 28.5745L37.1442 28.6202L37.1885 29.6192ZM2.24251 32.1708L37.2328 30.6182L37.1442 28.6202L2.15385 30.1728L2.24251 32.1708ZM36.1886 29.6335L36.2107 31.1861L38.2105 31.1575L38.1884 29.6049L36.1886 29.6335ZM37.2105 30.172L2.19829 30.172L2.19829 32.172L37.2105 32.172V30.172ZM37.1884 29.6191L35.4757 30.6518L35.4792 30.6576L37.1884 29.6191ZM37.1885 29.6192L38.9011 28.5863L38.8977 28.5807L37.1885 29.6192ZM21.0236 2.81091L22.7363 1.77817L22.7168 1.7458L22.696 1.7142L21.0236 2.81091ZM21.0235 2.81087L19.3109 3.84372L19.3303 3.87603L19.351 3.90758L21.0235 2.81087ZM18.3851 2.81103L16.6724 1.77821L16.6724 1.77828L18.3851 2.81103ZM2.22041 29.619L3.90277 30.7005L3.9183 30.6764L3.93314 30.6518L2.22041 29.619ZM2.22038 29.6191L0.538026 28.5375L0.522459 28.5618L0.507595 28.5864L2.22038 29.6191ZM16.6724 1.7782L14.9598 0.745377L14.9597 0.745459L16.6724 1.7782ZM0.507654 28.5863L-1.20507 27.5536L-1.2051 27.5536L0.507654 28.5863ZM22.7363 1.77813L24.449 0.74538L24.449 0.745336L22.7363 1.77813ZM38.9011 28.5863L37.1884 29.6191L37.1885 29.6192L38.9011 28.5863ZM38.9521 32.1554L40.6935 33.1389L40.6936 33.1387L38.9521 32.1554ZM0.456777 32.1554L-1.28473 33.1389L-1.28463 33.139L0.456777 32.1554ZM20.5391 3.10309L22.2518 2.07035L22.2517 2.07017L20.5391 3.10309ZM36.7039 29.9113L34.9911 30.944L34.9913 30.9443L36.7039 29.9113ZM18.8698 3.10309L17.1572 2.07017L17.1571 2.07035L18.8698 3.10309ZM2.70485 29.9113L0.992126 28.8785L0.99204 28.8787L2.70485 29.9113ZM2.69092 30.8938L4.43249 29.9105L4.43241 29.9103L2.69092 30.8938ZM19.7044 5.5921L21.4172 4.55936L19.7044 1.71893L17.9917 4.55935L19.7044 5.5921ZM34.0535 29.3891V31.3891H37.595L35.7663 28.3564L34.0535 29.3891ZM5.35517 29.3891L3.64244 28.3564L1.81374 31.3891H5.35517V29.3891ZM35.4792 30.6576L35.4793 30.6577L38.8977 28.5807L38.8976 28.5805L35.4792 30.6576ZM19.3108 3.84366L35.4757 30.6518L38.9011 28.5863L22.7363 1.77817L19.3108 3.84366ZM19.351 3.90758C19.3345 3.88234 19.3216 3.86141 19.3135 3.84811C19.3095 3.84141 19.3062 3.83595 19.3042 3.83262C19.3024 3.82958 19.3009 3.82697 19.3011 3.8274C19.3011 3.8274 19.3011 3.8274 19.3011 3.8274C19.3011 3.8274 19.3011 3.8274 19.3011 3.8274C19.3011 3.82741 19.3011 3.82741 19.3011 3.82742C19.3011 3.82743 19.3012 3.82746 19.3012 3.82748C19.3012 3.82753 19.3013 3.82762 19.3013 3.82773C19.3014 3.82794 19.3016 3.82828 19.3019 3.82871C19.3024 3.82955 19.3032 3.83093 19.3042 3.83263C19.3062 3.83597 19.3095 3.84142 19.3135 3.84813C19.3216 3.86144 19.3345 3.88238 19.3511 3.90763L22.696 1.7142C22.7126 1.73944 22.7255 1.76037 22.7336 1.77368C22.7376 1.78038 22.7409 1.78583 22.7429 1.78917C22.7447 1.79221 22.7462 1.79482 22.746 1.79439C22.746 1.79439 22.746 1.79438 22.746 1.79438C22.746 1.79438 22.746 1.79438 22.746 1.79438C22.746 1.79438 22.7459 1.79437 22.7459 1.79436C22.7459 1.79435 22.7459 1.79433 22.7459 1.7943C22.7459 1.79425 22.7458 1.79416 22.7458 1.79406C22.7456 1.79385 22.7454 1.7935 22.7452 1.79307C22.7447 1.79224 22.7439 1.79086 22.7429 1.78916C22.7409 1.78582 22.7376 1.78036 22.7336 1.77366C22.7255 1.76034 22.7126 1.73941 22.696 1.71416L19.351 3.90758ZM19.7044 4.06592C19.6098 4.06592 19.5338 4.04103 19.477 4.00894C19.4202 3.97685 19.3597 3.92467 19.3109 3.84372L22.7362 1.77803C22.0993 0.721968 20.9376 0.065918 19.7044 0.065918V4.06592ZM20.0978 3.84385C20.0491 3.92469 19.9886 3.97684 19.9318 4.00894C19.8749 4.04103 19.799 4.06592 19.7044 4.06592V0.065918C18.4711 0.065918 17.3094 0.722002 16.6724 1.77821L20.0978 3.84385ZM3.93314 30.6518L20.0979 3.84377L16.6724 1.77828L0.50768 28.5863L3.93314 30.6518ZM3.90274 30.7006C3.91404 30.683 3.92281 30.6687 3.92767 30.6608C3.93022 30.6566 3.93227 30.6532 3.93348 30.6512C3.9341 30.6502 3.9346 30.6493 3.93491 30.6488C3.93506 30.6486 3.93519 30.6484 3.93526 30.6482C3.9353 30.6482 3.93533 30.6481 3.93535 30.6481C3.93536 30.6481 3.93537 30.6481 3.93537 30.648C3.93538 30.648 3.93538 30.648 3.93538 30.648C3.93538 30.648 3.93538 30.648 3.93538 30.648C3.93538 30.648 3.93538 30.648 3.93538 30.648C3.93554 30.6478 3.93459 30.6493 3.93348 30.6512C3.93227 30.6532 3.93023 30.6566 3.92768 30.6608C3.92282 30.6687 3.91407 30.683 3.90277 30.7005L0.538052 28.5375C0.526748 28.5551 0.517985 28.5693 0.513124 28.5773C0.510569 28.5815 0.508525 28.5849 0.507313 28.5869C0.50669 28.5879 0.506188 28.5888 0.505885 28.5893C0.50573 28.5895 0.505605 28.5897 0.505529 28.5898C0.50549 28.5899 0.505459 28.59 0.50544 28.59C0.50543 28.59 0.505422 28.59 0.505418 28.59C0.505415 28.59 0.505413 28.59 0.505412 28.59C0.505411 28.59 0.505411 28.59 0.50541 28.59C0.50541 28.59 0.50541 28.59 0.50541 28.59C0.505249 28.5903 0.506197 28.5887 0.507307 28.5869C0.508517 28.5849 0.510559 28.5815 0.513111 28.5773C0.517968 28.5694 0.526726 28.5551 0.538026 28.5375L3.90274 30.7006ZM3.93983 30.1886C4.02233 30.3348 4.01989 30.5079 3.93317 30.6517L0.507595 28.5864C-0.150437 29.6778 -0.169972 31.0452 0.456539 32.155L3.93983 30.1886ZM14.9597 0.745459L-1.20507 27.5536L2.22038 29.6191L18.3852 2.81095L14.9597 0.745459ZM19.7044 -1.93408C17.7701 -1.93408 15.9586 -0.91097 14.9598 0.745377L18.3851 2.81103C18.6601 2.355 19.1721 2.06592 19.7044 2.06592V-1.93408ZM24.449 0.745336C23.4502 -0.910997 21.6387 -1.93408 19.7044 -1.93408V2.06592C20.2367 2.06592 20.7486 2.35503 21.0236 2.81092L24.449 0.745336ZM40.6139 27.5536L24.449 0.74538L21.0235 2.81087L37.1884 29.6191L40.6139 27.5536ZM40.6936 33.1387C41.675 31.4008 41.6447 29.2627 40.6138 27.5534L37.1885 29.6192C37.4741 30.0928 37.4827 30.6899 37.2105 31.172L40.6936 33.1387ZM35.8693 35.9548C37.8653 35.9548 39.7119 34.8769 40.6935 33.1389L37.2106 31.1718C36.9384 31.6538 36.4225 31.9548 35.8693 31.9548V35.9548ZM3.53952 35.9548H35.8693V31.9548H3.53952V35.9548ZM-1.28463 33.139C-0.303042 34.8769 1.54348 35.9548 3.53952 35.9548V31.9548C2.9863 31.9548 2.47044 31.6538 2.19818 31.1718L-1.28463 33.139ZM-1.2051 27.5536C-2.23573 29.2629 -2.26615 31.4009 -1.28473 33.1389L2.19829 31.172C1.92617 30.6901 1.93469 30.0929 2.22041 29.619L-1.2051 27.5536ZM35.4759 30.6521C35.3888 30.5078 35.3866 30.3345 35.469 30.1887L38.9523 32.1549C39.5788 31.045 39.5593 29.6776 38.9011 28.5863L35.4759 30.6521ZM3.53952 29.9548C3.70767 29.9548 3.85714 30.0423 3.93956 30.1881L0.457015 32.1559C1.08401 33.2655 2.26507 33.9548 3.53952 33.9548V29.9548ZM35.8693 29.9548H3.53952V33.9548H35.8693V29.9548ZM35.4692 30.1882C35.5517 30.0422 35.7012 29.9548 35.8693 29.9548V33.9548C37.1437 33.9548 38.3249 33.2655 38.9518 32.1558L35.4692 30.1882ZM18.8263 4.13584L34.9911 30.944L38.4166 28.8785L22.2518 2.07035L18.8263 4.13584ZM19.7045 4.63173C19.3427 4.63173 19.0129 4.44522 18.8264 4.13602L22.2517 2.07017C21.7145 1.17954 20.7451 0.631728 19.7045 0.631728V4.63173ZM20.5824 4.13602C20.3959 4.44529 20.0661 4.63173 19.7045 4.63173V0.631728C18.6638 0.631728 17.6944 1.17946 17.1572 2.07017L20.5824 4.13602ZM4.41758 30.944L20.5825 4.13584L17.1571 2.07035L0.992126 28.8785L4.41758 30.944ZM4.43241 29.9103C4.6145 30.2328 4.60895 30.6266 4.41767 30.9439L0.99204 28.8787C0.438528 29.7968 0.422204 30.9437 0.949436 31.8773L4.43241 29.9103ZM3.53952 29.3891C3.90978 29.3891 4.25019 29.5876 4.43249 29.9105L0.949353 31.8771C1.47664 32.811 2.46744 33.3891 3.53952 33.3891V29.3891ZM35.8693 29.3891H3.53952V33.3891H35.8693V29.3891ZM34.9766 29.9101C35.1586 29.5878 35.4986 29.3891 35.8693 29.3891V33.3891C36.9417 33.3891 37.9322 32.8106 38.4593 31.8774L34.9766 29.9101ZM34.9913 30.9443C34.7999 30.6271 34.7942 30.2329 34.9766 29.9101L38.4593 31.8774C38.9868 30.9436 38.9703 29.7965 38.4164 28.8782L34.9913 30.9443ZM17.9917 6.62484L32.3408 30.4219L35.7663 28.3564L21.4172 4.55936L17.9917 6.62484ZM7.0679 30.4219L21.4172 6.62485L17.9917 4.55935L3.64244 28.3564L7.0679 30.4219ZM34.0535 27.3891H5.35517V31.3891H34.0535V27.3891Z" fill="#FFB643" mask="url(#path-1-inside-1)"/>
<path d="M18.9785 12.0744C18.9785 11.9138 19.0307 11.8407 19.1015 11.7847C19.197 11.7092 19.3958 11.6223 19.7162 11.6223C20.0033 11.6223 20.1996 11.7044 20.3011 11.7847C20.3798 11.8469 20.4301 11.9238 20.4301 12.0744C20.4301 13.4616 20.3483 15.1609 20.2647 16.8942L20.2638 16.9122C20.1821 18.6044 20.0989 20.3284 20.0969 21.7589C20.096 21.7595 20.0951 21.7601 20.0942 21.7607C20.0566 21.7839 19.998 21.8101 19.9218 21.8299C19.846 21.8496 19.7727 21.8577 19.7163 21.8577C19.5915 21.8577 19.4889 21.8448 19.4109 21.8259C19.3654 21.8149 19.3332 21.8031 19.3117 21.7935C19.3111 20.3562 19.2272 18.618 19.1448 16.9121L19.144 16.8942C19.0603 15.1608 18.9785 13.4616 18.9785 12.0744Z" stroke="#FFB643" stroke-width="2"/>
<path d="M18.9072 26.3331C18.9072 25.8685 19.262 25.5001 19.7402 25.5001C20.1554 25.5001 20.5494 25.8771 20.5494 26.3331C20.5494 26.7737 20.1472 27.1661 19.7402 27.1661C19.2703 27.1661 18.9072 26.7823 18.9072 26.3331Z" fill="#FFB643" stroke="#FFB643" stroke-width="2"/>
</svg>
