<svg width="24" height="24" viewBox="0 0 24 24" fill="none" xmlns="http://www.w3.org/2000/svg">
<path d="M7.58157 11.1907C7.24668 10.8837 6.71645 10.8837 6.40948 11.2186C6.1025 11.5535 6.1025 12.0837 6.43738 12.3907L11.4606 17.0791C11.6281 17.2186 11.8234 17.3023 12.0188 17.3023C12.2141 17.3023 12.4374 17.2186 12.5769 17.0791L17.6002 12.3907C17.9351 12.0837 17.963 11.5535 17.6281 11.2186C17.3211 10.8837 16.7909 10.8558 16.456 11.1907L12.8839 14.5674V0.976736C12.8839 0.502317 12.5211 0.139526 12.0467 0.139526C11.5723 0.139526 11.2095 0.502317 11.2095 0.976736V14.5674L7.58157 11.1907Z" fill="#7ACE4C"/>
<path d="M21.2558 5.44189H16.2326C15.7581 5.44189 15.3953 5.80469 15.3953 6.2791C15.3953 6.75352 15.7581 7.11631 16.2326 7.11631H20.4186V22.1861H3.67442V7.11631H7.86047C8.33488 7.11631 8.69767 6.75352 8.69767 6.2791C8.69767 5.80469 8.33488 5.44189 7.86047 5.44189H2.83721C2.36279 5.44189 2 5.80469 2 6.2791V23.0233C2 23.4977 2.36279 23.8605 2.83721 23.8605H21.2558C21.7302 23.8605 22.093 23.4977 22.093 23.0233V6.2791C22.093 5.80469 21.7302 5.44189 21.2558 5.44189Z" fill="#7ACE4C"/>
</svg>
