<svg width="32" height="40" viewBox="0 0 32 40" fill="none" xmlns="http://www.w3.org/2000/svg">
<path fill-rule="evenodd" clip-rule="evenodd" d="M28.473 18.1757C28.5187 18.1757 28.5644 18.2212 28.5644 18.2667C31.0311 22.4961 30.9855 27.5896 28.473 31.9555C25.7321 36.6398 20.7529 39.5504 15.4082 39.5504C10.0635 39.5504 5.08429 36.6398 2.34342 31.9555C-0.169035 27.6351 -0.214716 22.4961 2.25206 18.2667C2.28029 18.2667 2.29108 18.2493 2.30598 18.2253C2.31519 18.2104 2.32598 18.1931 2.34342 18.1757L14.3119 1.48526C14.5403 1.12143 14.9514 0.894043 15.4082 0.894043C15.865 0.894043 16.2761 1.12143 16.5046 1.48526L28.473 18.1757ZM15.4082 36.8217C19.7936 36.8217 23.8592 34.4568 26.0976 30.5912C28.1075 27.0894 28.1989 23.0873 26.2346 19.722L15.4082 4.62324L4.5818 19.6765C2.61751 23.0873 2.66319 27.0439 4.71884 30.5912C6.95721 34.4568 11.0228 36.8217 15.4082 36.8217Z" fill="#E1E1E1"/>
<path d="M22.58 22.1379C21.8034 22.1379 21.2096 22.7292 21.2096 23.5023C21.2096 26.7312 18.5601 29.3689 15.3167 29.3689C14.5401 29.3689 13.9463 29.9602 13.9463 30.7333C13.9463 31.5064 14.5401 32.0976 15.3167 32.0976C20.0676 32.0976 23.9504 28.232 23.9504 23.5023C23.9504 22.7292 23.3566 22.1379 22.58 22.1379Z" fill="#E1E1E1"/>
</svg>
