<svg width="25" height="25" viewBox="0 0 25 25" fill="none" xmlns="http://www.w3.org/2000/svg">
<mask id="path-1-inside-1" fill="white">
<path fill-rule="evenodd" clip-rule="evenodd" d="M21.3282 3.67201C26.1925 8.53986 26.1925 16.4603 21.3282 21.3282C16.4478 26.1927 8.55202 26.1927 3.67167 21.3282C-1.19264 16.46 -1.19264 8.53954 3.67167 3.67169C8.53977 -1.19268 16.4603 -1.19261 21.3282 3.67169V3.67201ZM19.8702 5.04244C15.7798 1.00271 9.15836 1.0171 5.08585 5.08593C1.00284 9.17251 1.00259 15.8263 5.08537 19.9135C9.18485 23.9977 15.8154 23.9976 19.9148 19.9131C23.9974 15.8261 23.9969 9.17218 19.9134 5.08571L19.8702 5.04244ZM5.99694 19.0023C9.58078 22.5838 15.4183 22.5841 19.0031 19.0027C22.5837 15.4189 22.5841 9.58266 19.004 5.99808C15.4082 2.41565 9.59224 2.41567 5.99638 5.99815C2.41658 9.58196 2.41661 15.4181 5.99694 19.0023ZM4.5832 20.417C0.221085 16.0515 0.221085 8.94791 4.5832 4.5829C8.95992 0.220731 16.0406 0.220731 20.4173 4.5829C24.7793 8.94843 24.7793 16.0518 20.4173 20.417C16.0516 24.7791 8.94821 24.7791 4.5832 20.417Z"/>
</mask>
<path d="M21.3282 21.3282L22.7401 22.7447L22.7429 22.7419L21.3282 21.3282ZM21.3282 3.67201H19.3282V4.50001L19.9134 5.08571L21.3282 3.67201ZM3.67167 21.3282L2.25689 22.7419L2.25976 22.7447L3.67167 21.3282ZM3.67167 3.67169L2.25799 2.25693L2.25694 2.25799L3.67167 3.67169ZM21.3282 3.67169H23.3282V2.84284L22.7419 2.25696L21.3282 3.67169ZM5.08585 5.08593L3.67228 3.67108L3.67102 3.67233L5.08585 5.08593ZM19.8702 5.04244L21.285 3.6287L21.2756 3.61945L19.8702 5.04244ZM5.08537 19.9135L3.67039 21.3269L3.67379 21.3303L5.08537 19.9135ZM19.9148 19.9131L21.3264 21.3299L21.3298 21.3266L19.9148 19.9131ZM19.9134 5.08571L21.3282 3.67201L21.3282 3.672L19.9134 5.08571ZM19.0031 19.0027L20.4167 20.4176L20.418 20.4163L19.0031 19.0027ZM5.99694 19.0023L4.58196 20.4157L4.5832 20.417L5.99694 19.0023ZM19.004 5.99808L20.4191 4.58476L20.4156 4.58122L19.004 5.99808ZM5.99638 5.99815L4.5848 4.58129L4.58138 4.58472L5.99638 5.99815ZM4.5832 20.417L3.16843 21.8306L3.16946 21.8317L4.5832 20.417ZM4.5832 4.5829L3.17134 3.16633L3.16852 3.16916L4.5832 4.5829ZM20.4173 4.5829L21.8321 3.16925L21.8291 3.16633L20.4173 4.5829ZM20.4173 20.417L21.8309 21.8318L21.832 21.8307L20.4173 20.417ZM22.7429 22.7419C28.3876 17.0931 28.3876 7.90709 22.7429 2.25831L19.9134 5.08571C23.9974 9.17263 23.9974 15.8276 19.9134 19.9145L22.7429 22.7419ZM2.25976 22.7447C7.92063 28.3872 17.0792 28.3872 22.7401 22.7447L19.9163 19.9117C15.8164 23.9982 9.18341 23.9982 5.08357 19.9117L2.25976 22.7447ZM2.25694 2.25799C-3.38775 7.9068 -3.38769 17.0928 2.25689 22.7418L5.08644 19.9145C1.00241 15.8273 1.00248 9.17228 5.08639 5.08539L2.25694 2.25799ZM22.7419 2.25696C17.0931 -3.38771 7.90702 -3.38775 2.258 2.25693L5.08534 5.08645C9.17253 1.00239 15.8276 1.00249 19.9145 5.08642L22.7419 2.25696ZM23.3282 3.67201V3.67169H19.3282V3.67201H23.3282ZM6.49943 6.50078C9.79373 3.20946 15.1561 3.19772 18.4648 6.46544L21.2756 3.61945C16.4035 -1.1923 8.52299 -1.17525 3.67228 3.67108L6.49943 6.50078ZM6.50034 18.5C3.19761 15.1937 3.19788 9.80521 6.50068 6.49953L3.67102 3.67233C-1.19221 8.53981 -1.19243 16.4589 3.67039 21.3269L6.50034 18.5ZM18.5032 18.4964C15.1842 21.8032 9.81597 21.8033 6.49694 18.4966L3.67379 21.3303C8.55374 26.1921 16.4466 26.192 21.3264 21.3299L18.5032 18.4964ZM18.4987 6.49941C21.8019 9.80503 21.8023 15.1936 18.4998 18.4997L21.3298 21.3266C26.1925 16.4586 26.1919 8.53932 21.3282 3.67201L18.4987 6.49941ZM18.4555 6.45616L18.4987 6.49942L21.3282 3.672L21.2849 3.62873L18.4555 6.45616ZM17.5896 17.5878C14.7856 20.3891 10.2136 20.3886 7.41069 17.5876L4.5832 20.417C8.948 24.7789 16.0509 24.7791 20.4167 20.4176L17.5896 17.5878ZM17.5889 7.41141C20.3891 10.2151 20.3887 14.7862 17.5883 17.5891L20.418 20.4163C24.7787 16.0517 24.7791 8.95023 20.4191 4.58476L17.5889 7.41141ZM7.40796 7.41499C10.2234 4.61005 14.777 4.61003 17.5925 7.41494L20.4156 4.58122C16.0393 0.221266 8.9611 0.22129 4.58481 4.5813L7.40796 7.41499ZM7.41193 17.5889C4.61155 14.7854 4.61165 10.2144 7.41139 7.41157L4.58138 4.58472C0.221505 8.94948 0.221684 16.0507 4.58196 20.4157L7.41193 17.5889ZM5.99797 19.0033C2.41612 15.4187 2.41624 9.58067 5.99788 5.99664L3.16852 3.16916C-1.97407 8.31516 -1.97395 16.6842 3.16843 21.8306L5.99797 19.0033ZM5.99506 5.99947C9.59127 2.41521 15.4092 2.41521 19.0054 5.99947L21.8291 3.16633C16.6719 -1.97375 8.32857 -1.97375 3.17134 3.16633L5.99506 5.99947ZM19.0025 5.99655C22.5843 9.58119 22.5842 15.419 19.0026 19.0033L21.832 21.8307C26.9745 16.6845 26.9744 8.31567 21.8321 3.16925L19.0025 5.99655ZM19.0036 19.0022C15.4188 22.5841 9.58096 22.5839 5.99694 19.0023L3.16946 21.8317C8.31547 26.9743 16.6844 26.9741 21.8309 21.8318L19.0036 19.0022Z" fill="#EF7373" mask="url(#path-1-inside-1)"/>
<mask id="path-3-inside-2" fill="white">
<path fill-rule="evenodd" clip-rule="evenodd" d="M18.8398 8.20576L16.7944 6.1604C16.5428 5.90877 16.1348 5.90877 15.8832 6.1604L13.9143 8.12935L12.5032 9.54045L12.5001 9.54358L11.0859 8.12935L9.11697 6.1604C8.86534 5.90877 8.45738 5.90877 8.20576 6.1604L6.1604 8.20576C5.90877 8.45738 5.90877 8.86534 6.1604 9.11697L8.1293 11.0859L9.54351 12.5001L8.1293 13.9143L6.1604 15.8832C5.90877 16.1348 5.90877 16.5428 6.1604 16.7944L8.20576 18.8398C8.45738 19.0914 8.86534 19.0914 9.11697 18.8398L11.0859 16.8708L12.5001 15.4566L13.9143 16.8708L15.8832 18.8398C16.1348 19.0914 16.5428 19.0914 16.7944 18.8398L18.8398 16.7944C19.0914 16.5428 19.0914 16.1348 18.8398 15.8832L16.8709 13.9143L15.4567 12.5001L16.8709 11.0859L18.8398 9.11697C19.0914 8.86534 19.0914 8.45738 18.8398 8.20576ZM8.53322 8.66136L10.9577 11.0859L12.3719 12.5001L10.9577 13.9143L8.53322 16.3388L8.66135 16.4669L11.0859 14.0424L12.5001 12.6281L13.9143 14.0424L16.3388 16.4669L16.467 16.3388L14.0424 13.9143L12.6282 12.5001L14.0424 11.0859L16.467 8.66136L16.3388 8.53323L13.9143 10.9578L12.5001 12.372L11.0859 10.9578L8.66135 8.53323L8.53322 8.66136ZM12.3184 11.0731C12.2182 11.0438 12.1236 10.9896 12.0446 10.9105C12.0446 10.9105 12.0445 10.9105 12.0445 10.9105L10.0756 8.94155L8.66143 7.52734L7.52741 8.66136L8.94162 10.0756L10.9105 12.0445C10.9105 12.0445 10.9105 12.0445 10.9105 12.0445C10.9896 12.1236 11.0438 12.2181 11.0732 12.3184C11.1079 12.4369 11.1079 12.5633 11.0732 12.6818C11.0438 12.7821 10.9896 12.8766 10.9105 12.9557C10.9105 12.9557 10.9105 12.9557 10.9105 12.9557L8.94162 14.9246L7.52741 16.3388L8.66143 17.4728L10.0756 16.0586L12.0445 14.0897C12.0445 14.0897 12.0446 14.0897 12.0446 14.0897C12.1236 14.0106 12.2182 13.9564 12.3184 13.927C12.4369 13.8923 12.5634 13.8923 12.6819 13.927C12.7821 13.9564 12.8767 14.0106 12.9557 14.0897C12.9557 14.0897 12.9558 14.0897 12.9558 14.0897L14.9247 16.0586L16.3389 17.4728L17.4729 16.3388L16.0587 14.9246L14.0898 12.9557C14.0898 12.9557 14.0898 12.9557 14.0898 12.9557C14.0107 12.8766 13.9565 12.7821 13.9271 12.6818C13.8924 12.5633 13.8924 12.4369 13.9271 12.3184C13.9565 12.2181 14.0107 12.1236 14.0898 12.0445C14.0898 12.0445 14.0898 12.0445 14.0898 12.0445L16.0587 10.0756L17.4729 8.66136L16.3389 7.52734L14.9247 8.94155L12.9558 10.9105C12.9558 10.9105 12.9557 10.9105 12.9557 10.9105C12.8767 10.9896 12.7821 11.0438 12.6819 11.0731C12.5634 11.1078 12.4369 11.1078 12.3184 11.0731Z"/>
</mask>
<path d="M18.8398 8.20576L20.254 6.79156L20.254 6.79154L18.8398 8.20576ZM16.7944 6.1604L18.2086 4.74618L18.2086 4.74617L16.7944 6.1604ZM15.8832 6.1604L14.469 4.74617L14.469 4.7462L15.8832 6.1604ZM13.9143 8.12935L15.3285 9.54355V9.54355L13.9143 8.12935ZM12.5032 9.54045L11.089 8.12625L11.0889 8.12629L12.5032 9.54045ZM12.5001 9.54358L11.0859 10.9578L12.5001 12.3721L13.9144 10.9577L12.5001 9.54358ZM11.0859 8.12935L12.5001 6.71515V6.71515L11.0859 8.12935ZM9.11697 6.1604L10.5312 4.7462L10.5312 4.74617L9.11697 6.1604ZM8.20576 6.1604L6.79156 4.74617L6.79154 4.74618L8.20576 6.1604ZM6.1604 8.20576L4.74618 6.79154L4.74617 6.79156L6.1604 8.20576ZM6.1604 9.11697L4.74617 10.5312L4.74618 10.5312L6.1604 9.11697ZM8.1293 11.0859L9.54351 9.67166H9.54351L8.1293 11.0859ZM9.54351 12.5001L10.9577 13.9143L12.3719 12.5001L10.9577 11.0859L9.54351 12.5001ZM8.1293 13.9143L9.54351 15.3285H9.54351L8.1293 13.9143ZM6.1604 15.8832L4.74618 14.469L4.74617 14.469L6.1604 15.8832ZM6.1604 16.7944L4.74617 18.2086L4.74618 18.2086L6.1604 16.7944ZM8.20576 18.8398L6.79154 20.254L6.79156 20.254L8.20576 18.8398ZM9.11697 18.8398L10.5312 20.254L10.5312 20.254L9.11697 18.8398ZM11.0859 16.8708L12.5001 18.285H12.5001L11.0859 16.8708ZM12.5001 15.4566L13.9143 14.0424L12.5001 12.6281L11.0859 14.0424L12.5001 15.4566ZM13.9143 16.8708L15.3285 15.4566H15.3285L13.9143 16.8708ZM15.8832 18.8398L14.469 20.254L14.469 20.254L15.8832 18.8398ZM16.7944 18.8398L18.2086 20.254L18.2086 20.254L16.7944 18.8398ZM18.8398 16.7944L20.254 18.2086L20.254 18.2086L18.8398 16.7944ZM18.8398 15.8832L20.254 14.469L20.254 14.469L18.8398 15.8832ZM16.8709 13.9143L15.4567 15.3285H15.4567L16.8709 13.9143ZM15.4567 12.5001L14.0424 11.0859L12.6282 12.5001L14.0424 13.9143L15.4567 12.5001ZM16.8709 11.0859L15.4567 9.67166L15.4567 9.67166L16.8709 11.0859ZM18.8398 9.11697L20.254 10.5312L20.254 10.5312L18.8398 9.11697ZM10.9577 11.0859L12.3719 9.67166L10.9577 11.0859ZM8.53322 8.66136L7.119 7.24715L5.70479 8.66136L7.119 10.0756L8.53322 8.66136ZM12.3719 12.5001L13.7862 13.9143L15.2004 12.5001L13.7862 11.0859L12.3719 12.5001ZM10.9577 13.9143L12.3719 15.3285L10.9577 13.9143ZM8.53322 16.3388L7.119 14.9246L5.70479 16.3388L7.119 17.753L8.53322 16.3388ZM8.66135 16.4669L7.24714 17.8812L8.66136 19.2954L10.0756 17.8811L8.66135 16.4669ZM11.0859 14.0424L12.5001 15.4566H12.5001L11.0859 14.0424ZM12.5001 12.6281L13.9143 11.2139L12.5001 9.79968L11.0859 11.2139L12.5001 12.6281ZM13.9143 14.0424L12.5001 15.4566H12.5001L13.9143 14.0424ZM16.3388 16.4669L14.9246 17.8811L16.3388 19.2954L17.753 17.8812L16.3388 16.4669ZM16.467 16.3388L17.8812 17.753L19.2954 16.3388L17.8812 14.9246L16.467 16.3388ZM14.0424 13.9143L15.4567 12.5001L14.0424 13.9143ZM12.6282 12.5001L11.214 11.0859L9.7998 12.5001L11.214 13.9143L12.6282 12.5001ZM14.0424 11.0859L15.4567 12.5001L14.0424 11.0859ZM16.467 8.66136L17.8812 10.0756L19.2954 8.66136L17.8812 7.24715L16.467 8.66136ZM16.3388 8.53323L17.753 7.11901L16.3388 5.70478L14.9246 7.11903L16.3388 8.53323ZM13.9143 10.9578L12.5001 9.54358L13.9143 10.9578ZM12.5001 12.372L11.0859 13.7862L12.5001 15.2005L13.9143 13.7862L12.5001 12.372ZM11.0859 10.9578L12.5001 9.54358L11.0859 10.9578ZM8.66135 8.53323L10.0756 7.11903L8.66137 5.70479L7.24714 7.11901L8.66135 8.53323ZM12.0446 10.9105L13.4587 9.49621L13.4359 9.47343L13.4124 9.4514L12.0446 10.9105ZM12.3184 11.0731L12.8806 9.15379L12.8806 9.15379L12.3184 11.0731ZM12.0445 10.9105L10.6303 12.3247L10.6531 12.3475L10.6767 12.3695L12.0445 10.9105ZM10.0756 8.94155L11.4899 7.52734V7.52734L10.0756 8.94155ZM8.66143 7.52734L10.0756 6.11313L8.66143 4.69891L7.24721 6.11313L8.66143 7.52734ZM7.52741 8.66136L6.11319 7.24715L4.69898 8.66136L6.11319 10.0756L7.52741 8.66136ZM8.94162 10.0756L7.52741 11.4898L7.52741 11.4898L8.94162 10.0756ZM10.9105 12.0445L12.3696 10.6766L12.3475 10.6531L12.3247 10.6303L10.9105 12.0445ZM10.9105 12.0445L9.45146 13.4124L9.47349 13.4359L9.49627 13.4587L10.9105 12.0445ZM11.0732 12.3184L9.15385 12.8806L9.15385 12.8806L11.0732 12.3184ZM11.0732 12.6818L9.15385 12.1196L9.15385 12.1196L11.0732 12.6818ZM10.9105 12.9557L12.2752 14.4178L12.3004 14.3942L12.3248 14.3698L10.9105 12.9557ZM10.9105 12.9557L9.54589 11.4936L9.52069 11.5171L9.49631 11.5415L10.9105 12.9557ZM8.94162 14.9246L10.3558 16.3388L10.3558 16.3388L8.94162 14.9246ZM7.52741 16.3388L6.11319 14.9246L4.69898 16.3388L6.11319 17.753L7.52741 16.3388ZM8.66143 17.4728L7.24721 18.887L8.66143 20.3013L10.0756 18.887L8.66143 17.4728ZM10.0756 16.0586L11.4899 17.4728L11.4899 17.4728L10.0756 16.0586ZM12.0445 14.0897L10.6303 12.6755L10.6303 12.6755L12.0445 14.0897ZM12.0446 14.0897L10.6304 12.6754L10.6303 12.6755L12.0446 14.0897ZM12.3184 13.927L12.8806 15.8464L12.8806 15.8464L12.3184 13.927ZM12.6819 13.927L12.1197 15.8464L12.1197 15.8464L12.6819 13.927ZM12.9557 14.0897L14.37 12.6755L14.3699 12.6754L12.9557 14.0897ZM12.9558 14.0897L14.37 12.6755V12.6755L12.9558 14.0897ZM14.9247 16.0586L13.5104 17.4728L13.5104 17.4728L14.9247 16.0586ZM16.3389 17.4728L14.9247 18.887L16.3389 20.3013L17.7531 18.887L16.3389 17.4728ZM17.4729 16.3388L18.8871 17.753L20.3013 16.3388L18.8871 14.9246L17.4729 16.3388ZM16.0587 14.9246L17.4729 13.5104V13.5104L16.0587 14.9246ZM14.0898 12.9557L12.6756 14.3699L14.0898 12.9557ZM14.0898 12.9557L12.6755 14.3698L12.6756 14.3699L14.0898 12.9557ZM13.9271 12.6818L15.8464 12.1196L15.8464 12.1196L13.9271 12.6818ZM13.9271 12.3184L15.8464 12.8806L15.8464 12.8806L13.9271 12.3184ZM14.0898 12.0445L12.6756 10.6303L12.6755 10.6303L14.0898 12.0445ZM14.0898 12.0445L12.6756 10.6303L14.0898 12.0445ZM16.0587 10.0756L17.4729 11.4898V11.4898L16.0587 10.0756ZM17.4729 8.66136L18.8871 10.0756L20.3013 8.66136L18.8871 7.24715L17.4729 8.66136ZM16.3389 7.52734L17.7531 6.11313L16.3389 4.69891L14.9247 6.11313L16.3389 7.52734ZM14.9247 8.94155L16.3389 10.3558L14.9247 8.94155ZM12.9558 10.9105L11.5415 9.49625L11.5172 9.52062L11.4936 9.54582L12.9558 10.9105ZM12.9557 10.9105L14.3699 12.3247L14.3943 12.3003L14.4179 12.2751L12.9557 10.9105ZM12.6819 11.0731L12.1197 9.15379L12.1197 9.15379L12.6819 11.0731ZM20.254 6.79154L18.2086 4.74618L15.3802 7.57461L17.4256 9.61997L20.254 6.79154ZM18.2086 4.74617C17.1759 3.71352 15.5017 3.71352 14.469 4.74617L17.2974 7.57462C16.768 8.10403 15.9096 8.10403 15.3802 7.57462L18.2086 4.74617ZM14.469 4.7462L12.5001 6.71515L15.3285 9.54355L17.2974 7.5746L14.469 4.7462ZM12.5001 6.71515L11.089 8.12625L13.9174 10.9547L15.3285 9.54355L12.5001 6.71515ZM13.9144 10.9577L13.9175 10.9546L11.0889 8.12629L11.0858 8.12942L13.9144 10.9577ZM13.9143 8.12938L12.5001 6.71515L9.67166 9.54355L11.0859 10.9578L13.9143 8.12938ZM12.5001 6.71515L10.5312 4.7462L7.70274 7.5746L9.67166 9.54355L12.5001 6.71515ZM10.5312 4.74617C9.4985 3.71352 7.82423 3.71352 6.79156 4.74617L9.61996 7.57462C9.09054 8.10403 8.23219 8.10403 7.70277 7.57462L10.5312 4.74617ZM6.79154 4.74618L4.74618 6.79154L7.57461 9.61997L9.61997 7.57461L6.79154 4.74618ZM4.74617 6.79156C3.71352 7.82423 3.71352 9.4985 4.74617 10.5312L7.57462 7.70277C8.10403 8.23219 8.10403 9.09054 7.57462 9.61996L4.74617 6.79156ZM4.74618 10.5312L6.71509 12.5001L9.54351 9.67166L7.57461 7.70275L4.74618 10.5312ZM10.9577 11.0859L9.54351 9.67166L6.71509 12.5001L8.1293 13.9143L10.9577 11.0859ZM9.54351 15.3285L10.9577 13.9143L8.1293 11.0859L6.71509 12.5001L9.54351 15.3285ZM6.71509 12.5001L4.74618 14.469L7.57461 17.2974L9.54351 15.3285L6.71509 12.5001ZM4.74617 14.469C3.71352 15.5017 3.71352 17.1759 4.74617 18.2086L7.57462 15.3802C8.10403 15.9096 8.10403 16.768 7.57462 17.2974L4.74617 14.469ZM4.74618 18.2086L6.79154 20.254L9.61997 17.4256L7.57461 15.3802L4.74618 18.2086ZM6.79156 20.254C7.82423 21.2867 9.4985 21.2867 10.5312 20.254L7.70277 17.4255C8.23219 16.8961 9.09054 16.8961 9.61995 17.4255L6.79156 20.254ZM10.5312 20.254L12.5001 18.285L9.67166 15.4566L7.70274 17.4256L10.5312 20.254ZM12.5001 18.285L13.9143 16.8708L11.0859 14.0424L9.67166 15.4566L12.5001 18.285ZM11.0859 16.8708L12.5001 18.285L15.3285 15.4566L13.9143 14.0424L11.0859 16.8708ZM12.5001 18.285L14.469 20.254L17.2974 17.4256L15.3285 15.4566L12.5001 18.285ZM14.469 20.254C15.5017 21.2867 17.1759 21.2867 18.2086 20.254L15.3802 17.4256C15.9096 16.8961 16.768 16.8961 17.2974 17.4256L14.469 20.254ZM18.2086 20.254L20.254 18.2086L17.4256 15.3802L15.3802 17.4256L18.2086 20.254ZM20.254 18.2086C21.2867 17.1759 21.2867 15.5017 20.254 14.469L17.4256 17.2974C16.8961 16.768 16.8961 15.9096 17.4256 15.3802L20.254 18.2086ZM20.254 14.469L18.2851 12.5001L15.4567 15.3285L17.4256 17.2974L20.254 14.469ZM14.0424 13.9143L15.4567 15.3285L18.2851 12.5001L16.8709 11.0859L14.0424 13.9143ZM15.4567 9.67166L14.0424 11.0859L16.8709 13.9143L18.2851 12.5001L15.4567 9.67166ZM18.2851 12.5001L20.254 10.5312L17.4256 7.70275L15.4567 9.67166L18.2851 12.5001ZM20.254 10.5312C21.2867 9.4985 21.2867 7.82423 20.254 6.79156L17.4255 9.61995C16.8961 9.09054 16.8961 8.23219 17.4255 7.70277L20.254 10.5312ZM12.3719 9.67166L9.94743 7.24715L7.119 10.0756L9.54351 12.5001L12.3719 9.67166ZM13.7862 11.0859L12.3719 9.67166L9.54351 12.5001L10.9577 13.9143L13.7862 11.0859ZM12.3719 15.3285L13.7862 13.9143L10.9577 11.0859L9.54351 12.5001L12.3719 15.3285ZM9.94743 17.753L12.3719 15.3285L9.54351 12.5001L7.119 14.9246L9.94743 17.753ZM10.0756 15.0527L9.94743 14.9246L7.119 17.753L7.24714 17.8812L10.0756 15.0527ZM9.67163 12.6282L7.24713 15.0527L10.0756 17.8811L12.5001 15.4566L9.67163 12.6282ZM11.0859 11.2139L9.67163 12.6282L12.5001 15.4566L13.9143 14.0423L11.0859 11.2139ZM15.3285 12.6282L13.9143 11.2139L11.0859 14.0423L12.5001 15.4566L15.3285 12.6282ZM17.753 15.0527L15.3285 12.6282L12.5001 15.4566L14.9246 17.8811L17.753 15.0527ZM15.0527 14.9246L14.9246 15.0527L17.753 17.8812L17.8812 17.753L15.0527 14.9246ZM12.6282 15.3285L15.0527 17.753L17.8812 14.9246L15.4567 12.5001L12.6282 15.3285ZM11.214 13.9143L12.6282 15.3285L15.4567 12.5001L14.0424 11.0859L11.214 13.9143ZM12.6282 9.67166L11.214 11.0859L14.0424 13.9143L15.4567 12.5001L12.6282 9.67166ZM15.0527 7.24715L12.6282 9.67166L15.4567 12.5001L17.8812 10.0756L15.0527 7.24715ZM14.9246 9.94744L15.0527 10.0756L17.8812 7.24715L17.753 7.11901L14.9246 9.94744ZM15.3285 12.372L17.753 9.94743L14.9246 7.11903L12.5001 9.54358L15.3285 12.372ZM13.9143 13.7862L15.3285 12.372L12.5001 9.54358L11.0859 10.9578L13.9143 13.7862ZM9.67163 12.372L11.0859 13.7862L13.9143 10.9578L12.5001 9.54358L9.67163 12.372ZM7.24713 9.94743L9.67163 12.372L12.5001 9.54358L10.0756 7.11903L7.24713 9.94743ZM9.94743 10.0756L10.0756 9.94744L7.24714 7.11901L7.119 7.24715L9.94743 10.0756ZM10.6304 12.3247C10.9526 12.6469 11.3423 12.8713 11.7563 12.9925L12.8806 9.15379C13.0941 9.21631 13.2947 9.33223 13.4587 9.49621L10.6304 12.3247ZM10.6767 12.3695C10.6617 12.3555 10.6497 12.3438 10.6421 12.3363C10.6382 12.3326 10.6352 12.3295 10.6333 12.3276C10.6316 12.3259 10.6301 12.3244 10.6303 12.3247C10.6303 12.3247 10.6303 12.3247 10.6303 12.3247C10.6303 12.3247 10.6303 12.3247 10.6303 12.3247C10.6303 12.3247 10.6303 12.3247 10.6303 12.3247C10.6304 12.3247 10.6304 12.3247 10.6304 12.3247C10.6304 12.3248 10.6305 12.3248 10.6305 12.3249C10.6306 12.325 10.6308 12.3252 10.6311 12.3254C10.6315 12.3259 10.6323 12.3267 10.6333 12.3276C10.6352 12.3295 10.6383 12.3326 10.6421 12.3363C10.6497 12.3438 10.6617 12.3555 10.6767 12.3695L13.4124 9.4514C13.4274 9.46545 13.4394 9.47714 13.447 9.48462C13.4509 9.48838 13.4539 9.49144 13.4558 9.49332C13.4575 9.49503 13.459 9.49649 13.4588 9.49625C13.4588 9.49625 13.4588 9.49625 13.4588 9.49625C13.4588 9.49625 13.4588 9.49625 13.4588 9.49625C13.4588 9.49625 13.4588 9.49624 13.4588 9.49624C13.4587 9.49623 13.4587 9.49622 13.4587 9.49621C13.4587 9.49618 13.4586 9.49613 13.4586 9.49607C13.4585 9.49595 13.4583 9.49575 13.458 9.49551C13.4576 9.49504 13.4568 9.49427 13.4558 9.49331C13.4539 9.49143 13.4508 9.48837 13.447 9.48461C13.4394 9.47713 13.4274 9.46544 13.4124 9.45139L10.6767 12.3695ZM8.66143 10.3558L10.6303 12.3247L13.4588 9.49625L11.4899 7.52734L8.66143 10.3558ZM11.4899 7.52734L10.0756 6.11313L7.24721 8.94155L8.66143 10.3558L11.4899 7.52734ZM7.24721 6.11313L6.11319 7.24715L8.94162 10.0756L10.0756 8.94155L7.24721 6.11313ZM6.11319 10.0756L7.52741 11.4898L10.3558 8.66136L8.94162 7.24715L6.11319 10.0756ZM12.3247 10.6303L10.3558 8.66136L7.52741 11.4898L9.49631 13.4587L12.3247 10.6303ZM12.3696 10.6766C12.3556 10.6616 12.3439 10.6496 12.3364 10.642C12.3326 10.6382 12.3296 10.6351 12.3277 10.6332C12.3267 10.6323 12.326 10.6315 12.3255 10.631C12.3252 10.6308 12.325 10.6306 12.3249 10.6305C12.3249 10.6304 12.3248 10.6303 12.3248 10.6303C12.3248 10.6303 12.3248 10.6303 12.3248 10.6303C12.3248 10.6303 12.3247 10.6303 12.3247 10.6303C12.3247 10.6303 12.3247 10.6303 12.3247 10.6303C12.3247 10.6303 12.3247 10.6303 12.3247 10.6303C12.3245 10.63 12.326 10.6315 12.3277 10.6332C12.3296 10.6351 12.3326 10.6382 12.3364 10.642C12.3439 10.6496 12.3555 10.6616 12.3696 10.6766L9.45145 13.4124C9.4655 13.4274 9.47719 13.4394 9.48467 13.447C9.48844 13.4508 9.4915 13.4539 9.49338 13.4558C9.49433 13.4567 9.49511 13.4575 9.49558 13.458C9.49582 13.4582 9.49601 13.4584 9.49613 13.4585C9.49619 13.4586 9.49624 13.4586 9.49627 13.4587C9.49628 13.4587 9.4963 13.4587 9.4963 13.4587C9.49631 13.4587 9.49631 13.4587 9.49631 13.4587C9.49631 13.4587 9.49631 13.4587 9.49632 13.4587C9.49632 13.4587 9.49632 13.4587 9.49632 13.4587C9.49656 13.4589 9.49509 13.4575 9.49338 13.4558C9.4915 13.4539 9.48844 13.4508 9.48468 13.447C9.4772 13.4394 9.46551 13.4274 9.45146 13.4124L12.3696 10.6766ZM12.9926 11.7562C12.8713 11.3422 12.6469 10.9525 12.3248 10.6303L9.49627 13.4587C9.3323 13.2947 9.21637 13.094 9.15385 12.8806L12.9926 11.7562ZM12.9926 13.244C13.1348 12.7584 13.1348 12.2417 12.9926 11.7562L9.15385 12.8806C9.08103 12.632 9.08103 12.3682 9.15385 12.1196L12.9926 13.244ZM12.3248 14.3698C12.6469 14.0477 12.8713 13.658 12.9926 13.244L9.15385 12.1196C9.21637 11.9062 9.3323 11.7055 9.49627 11.5415L12.3248 14.3698ZM12.2752 14.4178C12.2878 14.406 12.2989 14.3954 12.308 14.3864C12.3171 14.3775 12.3248 14.3698 12.3307 14.3639C12.3366 14.358 12.3413 14.3532 12.3441 14.3503C12.3455 14.3488 12.3467 14.3476 12.3474 14.3469C12.3478 14.3465 12.3481 14.3462 12.3482 14.346C12.3483 14.3459 12.3484 14.3458 12.3484 14.3458C12.3485 14.3458 12.3485 14.3458 12.3485 14.3457C12.3485 14.3457 12.3485 14.3457 12.3485 14.3457C12.3485 14.3457 12.3485 14.3457 12.3485 14.3457C12.3485 14.3457 12.3485 14.3457 12.3485 14.3457C12.3489 14.3453 12.3467 14.3476 12.3441 14.3503C12.3413 14.3532 12.3366 14.358 12.3308 14.3639C12.3249 14.3698 12.3171 14.3775 12.308 14.3864C12.2989 14.3954 12.2878 14.406 12.2752 14.4178L9.5459 11.4936C9.53324 11.5054 9.5222 11.516 9.51305 11.5249C9.50393 11.5338 9.49621 11.5416 9.49031 11.5475C9.48446 11.5534 9.47977 11.5582 9.47696 11.5611C9.47552 11.5626 9.47435 11.5638 9.47365 11.5645C9.47329 11.5649 9.473 11.5652 9.47283 11.5654C9.47274 11.5655 9.47267 11.5655 9.47262 11.5656C9.4726 11.5656 9.47258 11.5656 9.47257 11.5656C9.47256 11.5656 9.47256 11.5656 9.47256 11.5656C9.47256 11.5656 9.47255 11.5656 9.47255 11.5656C9.47255 11.5656 9.47255 11.5656 9.47255 11.5656C9.47218 11.566 9.47438 11.5637 9.47695 11.5611C9.47977 11.5582 9.48446 11.5534 9.49031 11.5475C9.4962 11.5416 9.50392 11.5339 9.51305 11.5249C9.52219 11.516 9.53323 11.5054 9.54589 11.4936L12.2752 14.4178ZM10.3558 16.3388L12.3247 14.3699L9.49631 11.5415L7.52741 13.5104L10.3558 16.3388ZM7.52741 13.5104L6.11319 14.9246L8.94162 17.753L10.3558 16.3388L7.52741 13.5104ZM6.11319 17.753L7.24721 18.887L10.0756 16.0586L8.94162 14.9246L6.11319 17.753ZM10.0756 18.887L11.4899 17.4728L8.66143 14.6444L7.24721 16.0586L10.0756 18.887ZM10.6303 12.6755L8.66143 14.6444L11.4899 17.4728L13.4588 15.5039L10.6303 12.6755ZM10.6303 12.6755C10.6303 12.6755 10.6303 12.6755 10.6303 12.6755C10.6303 12.6755 10.6303 12.6755 10.6303 12.6755V12.6755C10.6303 12.6755 10.6303 12.6755 10.6303 12.6755C10.6303 12.6755 10.6303 12.6755 10.6303 12.6755H10.6303C10.6303 12.6755 10.6303 12.6755 10.6303 12.6755C10.6303 12.6755 10.6303 12.6755 10.6303 12.6755C10.6303 12.6755 10.6303 12.6755 10.6303 12.6755H10.6303C10.6303 12.6755 10.6303 12.6755 10.6303 12.6755H10.6303V12.6755C10.6303 12.6755 10.6303 12.6755 10.6303 12.6755C10.6303 12.6755 10.6303 12.6755 10.6303 12.6755H10.6303C10.6303 12.6755 10.6303 12.6755 10.6303 12.6755C10.6303 12.6755 10.6303 12.6755 10.6303 12.6755C10.6303 12.6755 10.6303 12.6755 10.6303 12.6755C10.6303 12.6755 10.6303 12.6755 10.6303 12.6755C10.6303 12.6755 10.6303 12.6755 10.6303 12.6755H10.6303C10.6303 12.6755 10.6303 12.6755 10.6303 12.6755C10.6303 12.6755 10.6303 12.6755 10.6303 12.6755V12.6755C10.6303 12.6755 10.6303 12.6755 10.6303 12.6755C10.6303 12.6755 10.6303 12.6755 10.6303 12.6755H10.6303C10.6303 12.6755 10.6303 12.6755 10.6303 12.6755H10.6303V12.6755C10.6303 12.6755 10.6303 12.6755 10.6303 12.6755C10.6303 12.6755 10.6303 12.6755 10.6303 12.6755H10.6303V12.6755C10.6303 12.6755 10.6303 12.6755 10.6303 12.6755C10.6303 12.6755 10.6303 12.6755 10.6303 12.6755C10.6303 12.6755 10.6303 12.6755 10.6303 12.6755C10.6303 12.6755 10.6303 12.6755 10.6303 12.6755H10.6303C10.6303 12.6755 10.6303 12.6755 10.6303 12.6755H10.6303C10.6303 12.6755 10.6303 12.6755 10.6303 12.6755C10.6303 12.6755 10.6303 12.6755 10.6303 12.6755V12.6755C10.6303 12.6755 10.6303 12.6755 10.6303 12.6755L13.4588 15.5039C13.4588 15.5039 13.4588 15.5039 13.4588 15.5039C13.4588 15.5039 13.4588 15.5039 13.4588 15.5039C13.4588 15.5039 13.4588 15.5039 13.4588 15.5039C13.4588 15.5039 13.4588 15.5039 13.4588 15.5039H13.4588C13.4588 15.5039 13.4588 15.5039 13.4588 15.5039C13.4588 15.5039 13.4588 15.5039 13.4588 15.5039H13.4588H13.4588V15.5039C13.4588 15.5039 13.4588 15.5039 13.4588 15.5039H13.4588C13.4588 15.5039 13.4588 15.5039 13.4588 15.5039C13.4588 15.5039 13.4588 15.5039 13.4588 15.5039C13.4588 15.5039 13.4588 15.5039 13.4588 15.5039C13.4588 15.5039 13.4588 15.5039 13.4588 15.5039H13.4588C13.4588 15.5039 13.4588 15.5039 13.4588 15.5039V15.5039C13.4588 15.5039 13.4588 15.5039 13.4588 15.5039H13.4588C13.4588 15.5039 13.4588 15.5039 13.4588 15.5039H13.4588C13.4588 15.5039 13.4588 15.5039 13.4588 15.5039C13.4588 15.5039 13.4588 15.5039 13.4588 15.5039H13.4588C13.4588 15.5039 13.4588 15.5039 13.4588 15.5039C13.4588 15.5039 13.4588 15.5039 13.4588 15.5039C13.4588 15.5039 13.4588 15.5039 13.4588 15.5039H13.4588C13.4588 15.5039 13.4588 15.5039 13.4588 15.5039H13.4588C13.4588 15.5039 13.4588 15.5039 13.4588 15.5039V15.5039C13.4588 15.5039 13.4588 15.5039 13.4588 15.5039L10.6303 12.6755ZM11.7563 12.0077C11.3423 12.1289 10.9526 12.3533 10.6304 12.6754L13.4587 15.504C13.2947 15.6679 13.0941 15.7839 12.8806 15.8464L11.7563 12.0077ZM13.244 12.0077C12.7585 11.8654 12.2418 11.8654 11.7563 12.0077L12.8806 15.8464C12.632 15.9192 12.3683 15.9192 12.1197 15.8464L13.244 12.0077ZM14.3699 12.6754C14.0477 12.3533 13.658 12.1289 13.244 12.0077L12.1197 15.8464C11.9062 15.7839 11.7056 15.6679 11.5416 15.504L14.3699 12.6754ZM14.37 12.6755V12.6755C14.37 12.6755 14.37 12.6755 14.37 12.6755C14.37 12.6755 14.37 12.6755 14.37 12.6755C14.37 12.6755 14.37 12.6755 14.37 12.6755H14.37C14.37 12.6755 14.37 12.6755 14.37 12.6755C14.37 12.6755 14.37 12.6755 14.37 12.6755C14.37 12.6755 14.37 12.6755 14.37 12.6755V12.6755C14.37 12.6755 14.37 12.6755 14.37 12.6755C14.37 12.6755 14.37 12.6755 14.37 12.6755V12.6755C14.37 12.6755 14.37 12.6755 14.37 12.6755C14.37 12.6755 14.37 12.6755 14.37 12.6755C14.37 12.6755 14.37 12.6755 14.37 12.6755V12.6755H14.37C14.37 12.6755 14.37 12.6755 14.37 12.6755C14.37 12.6755 14.37 12.6755 14.37 12.6755C14.37 12.6755 14.37 12.6755 14.37 12.6755C14.37 12.6755 14.37 12.6755 14.37 12.6755C14.37 12.6755 14.37 12.6755 14.37 12.6755C14.37 12.6755 14.37 12.6755 14.37 12.6755C14.37 12.6755 14.37 12.6755 14.37 12.6755V12.6755C14.37 12.6755 14.37 12.6755 14.37 12.6755C14.37 12.6755 14.37 12.6755 14.37 12.6755C14.37 12.6755 14.37 12.6755 14.37 12.6755C14.37 12.6755 14.37 12.6755 14.37 12.6755C14.37 12.6755 14.37 12.6755 14.37 12.6755C14.37 12.6755 14.37 12.6755 14.37 12.6755H14.37V12.6755C14.37 12.6755 14.37 12.6755 14.37 12.6755L11.5415 15.5039C11.5415 15.5039 11.5415 15.5039 11.5415 15.5039V15.5039C11.5415 15.5039 11.5415 15.5039 11.5415 15.5039H11.5415C11.5415 15.5039 11.5415 15.5039 11.5415 15.5039H11.5415C11.5415 15.5039 11.5415 15.5039 11.5415 15.5039C11.5415 15.5039 11.5415 15.5039 11.5415 15.5039C11.5415 15.5039 11.5415 15.5039 11.5415 15.5039H11.5415C11.5415 15.5039 11.5415 15.5039 11.5415 15.5039C11.5415 15.5039 11.5415 15.5039 11.5415 15.5039H11.5415C11.5415 15.5039 11.5415 15.5039 11.5415 15.5039H11.5415C11.5415 15.5039 11.5415 15.5039 11.5415 15.5039V15.5039C11.5415 15.5039 11.5415 15.5039 11.5415 15.5039H11.5415C11.5415 15.5039 11.5415 15.5039 11.5415 15.5039C11.5415 15.5039 11.5415 15.5039 11.5415 15.5039C11.5415 15.5039 11.5415 15.5039 11.5415 15.5039C11.5415 15.5039 11.5415 15.5039 11.5415 15.5039H11.5415C11.5415 15.5039 11.5415 15.5039 11.5415 15.5039V15.5039H11.5415H11.5415C11.5415 15.5039 11.5415 15.5039 11.5415 15.5039C11.5415 15.5039 11.5415 15.5039 11.5415 15.5039H11.5415C11.5415 15.5039 11.5415 15.5039 11.5415 15.5039C11.5415 15.5039 11.5415 15.5039 11.5415 15.5039C11.5415 15.5039 11.5415 15.5039 11.5415 15.5039C11.5415 15.5039 11.5415 15.5039 11.5415 15.5039L14.37 12.6755ZM16.3389 14.6444L14.37 12.6755L11.5415 15.5039L13.5104 17.4728L16.3389 14.6444ZM13.5104 17.4728L14.9247 18.887L17.7531 16.0586L16.3389 14.6444L13.5104 17.4728ZM17.7531 18.887L18.8871 17.753L16.0587 14.9246L14.9247 16.0586L17.7531 18.887ZM18.8871 14.9246L17.4729 13.5104L14.6445 16.3388L16.0587 17.753L18.8871 14.9246ZM12.6756 14.3699L14.6445 16.3388L17.4729 13.5104L15.504 11.5415L12.6756 14.3699ZM12.6756 14.3699C12.6756 14.3699 12.6756 14.3699 12.6756 14.3699V14.3699C12.6756 14.3699 12.6756 14.3699 12.6756 14.3699H12.6756C12.6756 14.3699 12.6756 14.3699 12.6756 14.3699H12.6756C12.6756 14.3699 12.6756 14.3699 12.6756 14.3699C12.6756 14.3699 12.6756 14.3699 12.6756 14.3699C12.6756 14.3699 12.6756 14.3699 12.6756 14.3699H12.6756C12.6756 14.3699 12.6756 14.3699 12.6756 14.3699C12.6756 14.3699 12.6756 14.3699 12.6756 14.3699H12.6756C12.6756 14.3699 12.6756 14.3699 12.6756 14.3699H12.6756C12.6756 14.3699 12.6756 14.3699 12.6756 14.3699V14.3699C12.6756 14.3699 12.6756 14.3699 12.6756 14.3699H12.6756C12.6756 14.3699 12.6756 14.3699 12.6756 14.3699C12.6756 14.3699 12.6756 14.3699 12.6756 14.3699C12.6756 14.3699 12.6756 14.3699 12.6756 14.3699C12.6756 14.3699 12.6756 14.3699 12.6756 14.3699H12.6756C12.6756 14.3699 12.6756 14.3699 12.6756 14.3699V14.3699H12.6756H12.6756C12.6756 14.3699 12.6756 14.3699 12.6756 14.3699C12.6756 14.3699 12.6756 14.3699 12.6756 14.3699H12.6756C12.6756 14.3699 12.6756 14.3699 12.6756 14.3699C12.6756 14.3699 12.6756 14.3699 12.6756 14.3699C12.6756 14.3699 12.6756 14.3699 12.6756 14.3699C12.6756 14.3699 12.6756 14.3699 12.6756 14.3699L15.504 11.5415V11.5415C15.504 11.5415 15.504 11.5415 15.504 11.5415C15.504 11.5415 15.504 11.5415 15.504 11.5415C15.504 11.5415 15.504 11.5415 15.504 11.5415H15.504C15.504 11.5415 15.504 11.5415 15.504 11.5415C15.504 11.5415 15.504 11.5415 15.504 11.5415C15.504 11.5415 15.504 11.5415 15.504 11.5415V11.5415C15.504 11.5415 15.504 11.5415 15.504 11.5415C15.504 11.5415 15.504 11.5415 15.504 11.5415V11.5415C15.504 11.5415 15.504 11.5415 15.504 11.5415C15.504 11.5415 15.504 11.5415 15.504 11.5415C15.504 11.5415 15.504 11.5415 15.504 11.5415V11.5415H15.504C15.504 11.5415 15.504 11.5415 15.504 11.5415C15.504 11.5415 15.504 11.5415 15.504 11.5415C15.504 11.5415 15.504 11.5415 15.504 11.5415C15.504 11.5415 15.504 11.5415 15.504 11.5415C15.504 11.5415 15.504 11.5415 15.504 11.5415C15.504 11.5415 15.504 11.5415 15.504 11.5415C15.504 11.5415 15.504 11.5415 15.504 11.5415V11.5415C15.504 11.5415 15.504 11.5415 15.504 11.5415C15.504 11.5415 15.504 11.5415 15.504 11.5415C15.504 11.5415 15.504 11.5415 15.504 11.5415C15.504 11.5415 15.504 11.5415 15.504 11.5415C15.504 11.5415 15.504 11.5415 15.504 11.5415C15.504 11.5415 15.504 11.5415 15.504 11.5415H15.504V11.5415C15.504 11.5415 15.504 11.5415 15.504 11.5415L12.6756 14.3699ZM12.0077 13.244C12.129 13.658 12.3534 14.0477 12.6755 14.3698L15.504 11.5415C15.668 11.7055 15.7839 11.9062 15.8464 12.1196L12.0077 13.244ZM12.0077 11.7562C11.8655 12.2417 11.8655 12.7584 12.0077 13.244L15.8464 12.1196C15.9193 12.3682 15.9193 12.632 15.8464 12.8806L12.0077 11.7562ZM12.6755 10.6303C12.3534 10.9525 12.129 11.3422 12.0077 11.7562L15.8464 12.8806C15.7839 13.094 15.668 13.2947 15.504 13.4587L12.6755 10.6303ZM12.6756 10.6303C12.6756 10.6303 12.6756 10.6303 12.6756 10.6303C12.6756 10.6303 12.6756 10.6303 12.6756 10.6303V10.6303C12.6756 10.6303 12.6756 10.6303 12.6756 10.6303C12.6756 10.6303 12.6756 10.6303 12.6756 10.6303H12.6756C12.6756 10.6303 12.6756 10.6303 12.6756 10.6303C12.6756 10.6303 12.6756 10.6303 12.6756 10.6303C12.6756 10.6303 12.6756 10.6303 12.6756 10.6303H12.6756C12.6756 10.6303 12.6756 10.6303 12.6756 10.6303H12.6756V10.6303C12.6756 10.6303 12.6756 10.6303 12.6756 10.6303C12.6756 10.6303 12.6756 10.6303 12.6756 10.6303H12.6756C12.6756 10.6303 12.6756 10.6303 12.6756 10.6303C12.6756 10.6303 12.6756 10.6303 12.6756 10.6303C12.6756 10.6303 12.6756 10.6303 12.6756 10.6303C12.6756 10.6303 12.6756 10.6303 12.6756 10.6303C12.6756 10.6303 12.6756 10.6303 12.6756 10.6303H12.6756C12.6756 10.6303 12.6756 10.6303 12.6756 10.6303C12.6756 10.6303 12.6756 10.6303 12.6756 10.6303V10.6303C12.6756 10.6303 12.6756 10.6303 12.6756 10.6303C12.6756 10.6303 12.6756 10.6303 12.6756 10.6303H12.6756C12.6756 10.6303 12.6756 10.6303 12.6756 10.6303H12.6756V10.6303C12.6756 10.6303 12.6756 10.6303 12.6756 10.6303C12.6756 10.6303 12.6756 10.6303 12.6756 10.6303H12.6756V10.6303C12.6756 10.6303 12.6756 10.6303 12.6756 10.6303C12.6756 10.6303 12.6756 10.6303 12.6756 10.6303C12.6756 10.6303 12.6756 10.6303 12.6756 10.6303C12.6756 10.6303 12.6756 10.6303 12.6756 10.6303H12.6756C12.6756 10.6303 12.6756 10.6303 12.6756 10.6303H12.6756C12.6756 10.6303 12.6756 10.6303 12.6756 10.6303C12.6756 10.6303 12.6756 10.6303 12.6756 10.6303V10.6303C12.6756 10.6303 12.6756 10.6303 12.6756 10.6303L15.504 13.4587C15.504 13.4587 15.504 13.4587 15.504 13.4587V13.4587H15.504C15.504 13.4587 15.504 13.4587 15.504 13.4587C15.504 13.4587 15.504 13.4587 15.504 13.4587C15.504 13.4587 15.504 13.4587 15.504 13.4587C15.504 13.4587 15.504 13.4587 15.504 13.4587V13.4587C15.504 13.4587 15.504 13.4587 15.504 13.4587C15.504 13.4587 15.504 13.4587 15.504 13.4587V13.4587C15.504 13.4587 15.504 13.4587 15.504 13.4587C15.504 13.4587 15.504 13.4587 15.504 13.4587C15.504 13.4587 15.504 13.4587 15.504 13.4587C15.504 13.4587 15.504 13.4587 15.504 13.4587V13.4587C15.504 13.4587 15.504 13.4587 15.504 13.4587H15.504C15.504 13.4587 15.504 13.4587 15.504 13.4587V13.4587C15.504 13.4587 15.504 13.4587 15.504 13.4587C15.504 13.4587 15.504 13.4587 15.504 13.4587C15.504 13.4587 15.504 13.4587 15.504 13.4587C15.504 13.4587 15.504 13.4587 15.504 13.4587V13.4587C15.504 13.4587 15.504 13.4587 15.504 13.4587C15.504 13.4587 15.504 13.4587 15.504 13.4587C15.504 13.4587 15.504 13.4587 15.504 13.4587C15.504 13.4587 15.504 13.4587 15.504 13.4587H15.504C15.504 13.4587 15.504 13.4587 15.504 13.4587C15.504 13.4587 15.504 13.4587 15.504 13.4587C15.504 13.4587 15.504 13.4587 15.504 13.4587V13.4587L12.6756 10.6303ZM14.6445 8.66136L12.6756 10.6303L15.504 13.4587L17.4729 11.4898L14.6445 8.66136ZM17.4729 11.4898L18.8871 10.0756L16.0587 7.24715L14.6445 8.66136L17.4729 11.4898ZM18.8871 7.24715L17.7531 6.11313L14.9247 8.94155L16.0587 10.0756L18.8871 7.24715ZM14.9247 6.11313L13.5104 7.52734L16.3389 10.3558L17.7531 8.94155L14.9247 6.11313ZM14.37 12.3247L16.3389 10.3558L13.5104 7.52734L11.5415 9.49625L14.37 12.3247ZM14.4179 12.2751C14.406 12.2878 14.3954 12.2988 14.3865 12.3079C14.3776 12.3171 14.3699 12.3248 14.3639 12.3307C14.358 12.3365 14.3532 12.3412 14.3503 12.344C14.3477 12.3466 14.3454 12.3488 14.3458 12.3484C14.3458 12.3484 14.3458 12.3484 14.3458 12.3484C14.3458 12.3484 14.3458 12.3484 14.3458 12.3484C14.3458 12.3484 14.3458 12.3484 14.3458 12.3484C14.3458 12.3484 14.3458 12.3484 14.3459 12.3484C14.3459 12.3483 14.346 12.3483 14.3461 12.3482C14.3463 12.348 14.3466 12.3477 14.3469 12.3473C14.3477 12.3466 14.3489 12.3455 14.3503 12.344C14.3532 12.3412 14.358 12.3365 14.3639 12.3307C14.3699 12.3248 14.3776 12.3171 14.3865 12.3079C14.3954 12.2988 14.406 12.2878 14.4179 12.2751L11.4936 9.54582C11.5055 9.53316 11.5161 9.52213 11.525 9.51298C11.5339 9.50385 11.5416 9.49614 11.5476 9.49024C11.5535 9.48439 11.5583 9.4797 11.5612 9.47689C11.5638 9.47432 11.5661 9.47212 11.5657 9.47249C11.5657 9.47249 11.5657 9.47249 11.5657 9.47249C11.5657 9.47249 11.5657 9.47249 11.5657 9.47249C11.5657 9.4725 11.5657 9.4725 11.5657 9.47251C11.5657 9.47252 11.5657 9.47253 11.5656 9.47256C11.5656 9.4726 11.5655 9.47267 11.5654 9.47276C11.5652 9.47294 11.5649 9.47323 11.5646 9.47359C11.5638 9.47429 11.5626 9.47545 11.5612 9.47689C11.5583 9.47971 11.5535 9.4844 11.5476 9.49025C11.5416 9.49615 11.5339 9.50386 11.525 9.51299C11.5161 9.52214 11.5055 9.53317 11.4936 9.54583L14.4179 12.2751ZM13.244 12.9925C13.658 12.8713 14.0477 12.6469 14.3699 12.3247L11.5416 9.49621C11.7056 9.33223 11.9062 9.21631 12.1197 9.15379L13.244 12.9925ZM11.7563 12.9925C12.2418 13.1347 12.7585 13.1347 13.244 12.9925L12.1197 9.15379C12.3683 9.08097 12.632 9.08097 12.8806 9.15379L11.7563 12.9925Z" fill="#EF7373" mask="url(#path-3-inside-2)"/>
</svg>
