<svg width="31" height="40" viewBox="0 0 31 40" fill="none" xmlns="http://www.w3.org/2000/svg">
<path fill-rule="evenodd" clip-rule="evenodd" d="M30.0709 7.94326L30.1114 7.98379C30.152 8.10537 30.1925 8.22695 30.1925 8.38906V37.2442C30.1925 37.9737 29.8683 38.7031 29.382 39.1895C28.8956 39.6758 28.2067 40 27.4367 40H2.75583C2.02634 40 1.29686 39.6758 0.810537 39.1895C0.324215 38.7031 0 38.0142 0 37.2442V2.75583C0 2.02634 0.324215 1.29686 0.810537 0.810537L0.851064 0.77001C1.33739 0.283688 2.02634 0 2.75583 0H21.844C22.0061 0 22.1277 0 22.2492 0.0810537C22.2492 0.121581 22.2898 0.121581 22.2898 0.121581C22.2898 0.162107 22.3303 0.162107 22.3303 0.162107L22.3708 0.202634L30.0709 7.90274V7.94326ZM27.1935 7.49747L22.614 2.91793V6.28166C22.614 6.60588 22.7761 6.93009 22.9787 7.13273C23.1814 7.37589 23.5056 7.49747 23.8298 7.49747H27.1935Z" fill="#7ACE4C"/>
<path d="M10.3934 24.3024C10.0598 24.0163 9.5317 24.0163 9.22595 24.3285C8.9202 24.6406 8.9202 25.135 9.25375 25.4211L14.2569 29.7919C14.4237 29.922 14.6182 30 14.8128 30C15.0074 30 15.2297 29.922 15.3687 29.7919L20.3719 25.4211C20.7054 25.135 20.7332 24.6406 20.3997 24.3285C20.0939 24.0163 19.5658 23.9902 19.2323 24.3024L15.6745 27.4504V14.7805C15.6745 14.3382 15.3131 14 14.8406 14C14.3681 14 14.0067 14.3382 14.0067 14.7805V27.4504L10.3934 24.3024Z" fill="white"/>
</svg>
