<svg width="22" height="24" viewBox="0 0 22 24" fill="none" xmlns="http://www.w3.org/2000/svg">
<path fill-rule="evenodd" clip-rule="evenodd" d="M21.4838 9.07909L11.4776 0.220723C11.1539 -0.0735745 10.6536 -0.0735745 10.3004 0.220723L0.294298 9.07909C0.117719 9.25567 0 9.49111 0 9.72655V23.1171C0 23.6174 0.382587 24 0.882894 24H20.8952C21.3955 24 21.778 23.6174 21.778 23.1171V9.72655C21.778 9.46168 21.6603 9.22624 21.4838 9.07909ZM12.9785 16.2011V22.2342H8.79951V16.2011H12.9785ZM14.7443 22.2342H20.0123V10.1386L10.889 2.0748L1.76579 10.1386V22.2342H7.03372V15.3182C7.03372 14.8179 7.41631 14.4353 7.91662 14.4353H13.8614C14.3617 14.4353 14.7443 14.8179 14.7443 15.3182V22.2342Z" fill="#7ACE4C"/>
</svg>
