<svg width="94" height="76" viewBox="0 0 94 76" fill="none" xmlns="http://www.w3.org/2000/svg">
<path fill-rule="evenodd" clip-rule="evenodd" d="M90.5 13.0999H78.7V3.3999C78.7 1.6999 77.4 0.399902 75.7 0.399902H3.5C1.8 0.399902 0.5 1.6999 0.5 3.3999V60.0999C0.5 61.7999 1.8 63.0999 3.5 63.0999H14.2V72.6999C14.2 74.3999 15.5 75.6999 17.2 75.6999H90.5C92.2 75.6999 93.5 74.3999 93.5 72.6999V16.0999C93.5 14.3999 92.2 13.0999 90.5 13.0999ZM6.5 6.3999H72.7V57.0999H6.5V6.3999ZM20.2 69.5999H87.5V19.0999H78.7V59.1999C78.8 59.4999 78.8 59.6999 78.8 59.9999C78.8 61.6999 77.5 62.9999 75.8 62.9999H20.2V69.5999Z" fill="#CCCCCC"/>
<path fill-rule="evenodd" clip-rule="evenodd" d="M57.4 18.9999C57.4 23.8999 53.4 27.8999 48.5 27.8999C43.6 27.8999 39.6 23.8999 39.6 18.9999C39.6 14.0999 43.6 10.0999 48.5 10.0999C53.4 10.0999 57.4 14.0999 57.4 18.9999ZM51.4 18.9999C51.4 17.3999 50.1 16.0999 48.5 16.0999C46.9 16.0999 45.6 17.3999 45.6 18.9999C45.6 20.5999 46.9 21.8999 48.5 21.8999C50.1 21.8999 51.4 20.5999 51.4 18.9999Z" fill="#CCCCCC"/>
<path fill-rule="evenodd" clip-rule="evenodd" d="M56.6 32.7999C56 32.0999 55.2 31.6999 54.3 31.6999C53.4 31.6999 52.5 32.0999 52 32.7999L47 38.9999L35.3 21.9999C34.7 21.1999 33.8 20.6999 32.8 20.6999C31.8 20.6999 30.9 21.1999 30.3 21.9999L12.8 47.5999C12.2 48.4999 12.1 49.6999 12.6 50.6999C13.1 51.6999 14.1 52.2999 15.3 52.2999H66C67.2 52.2999 68.2 51.5999 68.7 50.5999C69.2 49.5999 69.1 48.2999 68.3 47.3999L56.6 32.7999ZM21 46.2999L32.8 28.9999L44.7 46.2999H21ZM50.6 44.1999L52 46.2999H59.8L54.4 39.4999L50.6 44.1999Z" fill="#CCCCCC"/>
</svg>
