<svg width="18" height="32" viewBox="0 0 18 32" fill="none" xmlns="http://www.w3.org/2000/svg">
<path fill-rule="evenodd" clip-rule="evenodd" d="M16.2667 8.72373C16.6858 8.72373 17.0667 8.95231 17.2572 9.29516C17.4477 9.63802 17.4477 10.0571 17.2953 10.3999L6.40004 31.0475C6.17147 31.4285 5.79052 31.6571 5.37147 31.6571C5.25718 31.6571 5.18099 31.6571 5.06671 31.619C4.53337 31.4666 4.19052 30.9714 4.22861 30.438L4.87623 18.6285H1.25718C0.914327 18.6285 0.609565 18.4761 0.380993 18.2094C0.152422 17.9428 0.0381363 17.5999 0.114327 17.2571L2.97147 1.25707C3.08576 0.68564 3.5429 0.304688 4.11433 0.304688H12.9524C13.3334 0.304688 13.6381 0.495164 13.8667 0.76183C14.0572 1.06659 14.1334 1.40945 14.0572 1.75231L12.3048 8.72373H16.2667ZM7.23814 17.5618L6.81909 25.3714L14.3239 11.0856H10.8191C10.4381 11.0856 10.1334 10.8952 9.9048 10.6285C9.71433 10.3237 9.63814 9.98088 9.71433 9.63802L11.4667 2.66659H5.06671L2.62861 16.3809H6.09528C6.40004 16.3809 6.7048 16.4952 6.93337 16.7237C7.16195 16.9523 7.23814 17.2571 7.23814 17.5618Z" fill="#CCCCCC"/>
</svg>
