<svg width="24" height="24" viewBox="0 0 24 24" fill="none" xmlns="http://www.w3.org/2000/svg">
<path fill-rule="evenodd" clip-rule="evenodd" d="M0 11.7488C0 5.27442 5.27442 0 11.7488 0C18.2233 0 23.4977 5.27442 23.4977 11.7488C23.4977 18.2233 18.2233 23.4977 11.7488 23.4977C5.27442 23.4977 0 18.2233 0 11.7488ZM21.7953 12.586H20.4558C19.9814 12.586 19.6186 12.2233 19.5907 11.7488C19.5907 11.2744 19.9535 10.9116 20.4279 10.9116H21.7674C21.6 8.76279 20.7349 6.8093 19.4233 5.24651L18.5023 6.16744C18.3349 6.33488 18.1116 6.4186 17.9163 6.4186C17.7209 6.4186 17.4977 6.33488 17.3302 6.16744C16.9953 5.86047 16.9953 5.33023 17.3302 4.99535L18.2233 4.04651C16.6605 2.73488 14.707 1.86977 12.5581 1.70233V3.06977C12.5581 3.54419 12.1953 3.90698 11.7209 3.90698C11.2465 3.90698 10.8837 3.54419 10.8837 3.06977V1.73023C8.73488 1.89767 6.7814 2.76279 5.2186 4.07442L6.13953 4.99535C6.47442 5.30233 6.47442 5.83256 6.13953 6.16744C5.97209 6.33488 5.74884 6.4186 5.55349 6.4186C5.35814 6.4186 5.13488 6.33488 4.96744 6.16744L4.04651 5.24651C2.73488 6.8093 1.86977 8.76279 1.70233 10.9116H3.06977C3.54419 10.9116 3.90698 11.2744 3.90698 11.7488C3.90698 12.2233 3.54419 12.586 3.06977 12.586H1.73023C1.78605 13.4512 1.9814 14.2884 2.26047 15.0977H8.7907C8.98605 13.9814 9.82326 13.0605 10.9116 12.7535V8.03721C10.9116 7.56279 11.2744 7.2 11.7488 7.2C12.2233 7.2 12.586 7.56279 12.586 8.03721V12.7535C13.6744 13.0884 14.4837 13.9814 14.707 15.0977H21.2651C21.5442 14.2884 21.7116 13.4512 21.7953 12.586ZM11.7488 14.3163C12.4744 14.3163 13.0884 14.9302 13.0884 15.6558C13.0884 16.3814 12.4744 16.9953 11.7488 16.9953C11.0233 16.9953 10.4093 16.3814 10.4093 15.6558C10.4093 14.9302 11.0233 14.3163 11.7488 14.3163ZM3.01395 16.7721C4.77209 19.786 8.0093 21.8233 11.7488 21.8233C15.4884 21.8233 18.7256 19.786 20.4558 16.7721H14.5395C14.093 17.8884 13.0047 18.6698 11.7488 18.6698C10.493 18.6698 9.40465 17.8884 8.95814 16.7721H3.01395Z" fill="#7ACE4C"/>
</svg>
