<svg width="34" height="38" viewBox="0 0 34 38" fill="none" xmlns="http://www.w3.org/2000/svg">
<path fill-rule="evenodd" clip-rule="evenodd" d="M17.3887 11.6666C17.8004 11.6666 18.1933 11.8372 18.4711 12.1368C18.5145 12.1834 19.5437 13.2962 20.5861 14.6903C22.65 17.4508 22.8887 18.7875 22.8887 19.5528V19.675C22.8887 22.6725 20.4214 25.1111 17.3887 25.1111C14.356 25.1111 11.8887 22.6725 11.8887 19.675V19.5528C11.8887 18.7875 12.1274 17.4507 14.1913 14.6903C15.2336 13.2962 16.2629 12.1835 16.3062 12.1368C16.5841 11.8372 16.9769 11.6666 17.3887 11.6666ZM17.3887 22.2198C18.8039 22.2198 19.9553 21.0782 19.9553 19.675V19.5528C19.9553 19.468 19.9072 18.6602 18.2389 16.4247C17.9481 16.035 17.6553 15.6661 17.3887 15.3414C17.122 15.6661 16.8293 16.0349 16.5384 16.4247C14.8702 18.6602 14.822 19.468 14.822 19.5528V19.675C14.822 21.0782 15.9734 22.2198 17.3887 22.2198Z" fill="#E1E1E1"/>
<path fill-rule="evenodd" clip-rule="evenodd" d="M31.0221 14.9239C32.6862 15.4943 33.8887 17.106 33.8887 19C33.8887 20.8939 32.6862 22.5056 31.0221 23.076V28.9603C32.6862 29.5307 33.8887 31.1425 33.8887 33.0364C33.8887 35.4057 32.0068 37.3333 29.6938 37.3333H5.08359C2.77051 37.3333 0.888672 35.4057 0.888672 33.0364C0.888672 31.1425 2.09114 29.5307 3.7552 28.9603V23.076C2.09114 22.5056 0.888672 20.8939 0.888672 19C0.888672 17.106 2.09114 15.4943 3.7552 14.9239V9.03959C2.09114 8.46918 0.888672 6.85742 0.888672 4.9635C0.888672 2.5942 2.77051 0.666626 5.08359 0.666626H29.6938C32.0068 0.666626 33.8887 2.5942 33.8887 4.9635C33.8887 6.85742 32.6862 8.46918 31.0221 9.03959V14.9239ZM29.6938 31.6041H29.6238C28.8516 31.6041 28.2255 30.9629 28.2255 30.1718V21.8645C28.2255 21.0735 28.8516 20.4323 29.6238 20.4323H29.6938C30.4648 20.4323 31.0921 19.7897 31.0921 19C31.0921 18.2102 30.4648 17.5677 29.6938 17.5677H29.6238C28.8516 17.5677 28.2255 16.9264 28.2255 16.1354V7.82808C28.2255 7.03703 28.8516 6.39579 29.6238 6.39579H29.6938C30.4648 6.39579 31.0921 5.75327 31.0921 4.9635C31.0921 4.17374 30.4648 3.53121 29.6938 3.53121H5.08359C4.31256 3.53121 3.68528 4.17374 3.68528 4.9635C3.68528 5.75327 4.31256 6.39579 5.08359 6.39579H5.1535H22.6323C23.4046 6.39579 24.0306 7.03703 24.0306 7.82808C24.0306 8.61914 23.4046 9.26038 22.6323 9.26038H6.55181V16.1354C6.55181 16.9264 5.92579 17.5677 5.1535 17.5677H5.08359C4.31256 17.5677 3.68528 18.2102 3.68528 19C3.68528 19.7897 4.31256 20.4323 5.08359 20.4323H5.1535C5.92579 20.4323 6.55181 21.0735 6.55181 21.8645V28.7395H22.6323C23.4046 28.7395 24.0306 29.3808 24.0306 30.1718C24.0306 30.9629 23.4046 31.6041 22.6323 31.6041H5.1535H5.08359C4.31256 31.6041 3.68528 32.2467 3.68528 33.0364C3.68528 33.8262 4.31256 34.4687 5.08359 34.4687H29.6938C30.4648 34.4687 31.0921 33.8262 31.0921 33.0364C31.0921 32.2467 30.4648 31.6041 29.6938 31.6041Z" fill="#E1E1E1"/>
</svg>
