<svg width="18" height="12" viewBox="0 0 18 12" fill="none" xmlns="http://www.w3.org/2000/svg">
<path fill-rule="evenodd" clip-rule="evenodd" d="M17.9895 0.2484L17.9892 0.246303C17.9823 0.208855 17.9694 0.174703 17.9497 0.143546C17.9494 0.143247 17.9494 0.142648 17.9494 0.142348L17.9488 0.141599L17.9482 0.14085C17.9293 0.111491 17.9065 0.0863263 17.8787 0.065056C17.8752 0.0623272 17.8716 0.0600402 17.868 0.0577256L17.861 0.0530728C17.8385 0.0383933 17.8155 0.0261105 17.7894 0.0180218C17.7759 0.0133438 17.7621 0.0112963 17.7482 0.00921859L17.7391 0.00783603C17.7336 0.00709531 17.7285 0.00564236 17.7233 0.00418997L17.7233 0.0041887C17.7159 0.00211703 17.7085 4.69191e-05 17.7004 4.69191e-05H17.6992C17.6893 -0.000208005 17.6819 0.000621687 17.6748 0.00142847L17.6711 0.00184441L17.6672 0.0019942L17.6633 0.00214399L17.6599 0.0023122C17.6582 0.002348 17.6564 0.00238513 17.6546 0.00274315C17.6465 0.00394147 17.6384 0.0051398 17.6306 0.00693729L0.239031 3.60101C0.115304 3.62678 0.0206366 3.72714 0.00296135 3.85236C-0.0147139 3.97759 0.0478985 4.10041 0.159642 4.15943L5.14228 6.78766L6.01615 11.637C6.01582 11.639 6.01595 11.6411 6.01608 11.6432C6.01613 11.644 6.01619 11.6449 6.01621 11.6457C6.01623 11.6465 6.01622 11.6473 6.01615 11.6481C6.01316 11.672 6.01286 11.6954 6.01585 11.7191C6.01735 11.731 6.01885 11.7424 6.02185 11.7541C6.02874 11.7826 6.03982 11.8092 6.0548 11.8344C6.05623 11.8367 6.05698 11.8392 6.05773 11.8417C6.05855 11.8444 6.05937 11.8472 6.06109 11.8497L6.06232 11.8513L6.06469 11.8536C6.06688 11.8568 6.06955 11.8596 6.07227 11.8625L6.07228 11.8625C6.07438 11.8647 6.07651 11.867 6.07847 11.8695C6.09255 11.8868 6.10723 11.9027 6.124 11.9162C6.12463 11.9167 6.1252 11.9172 6.12576 11.9178C6.12631 11.9184 6.12685 11.919 6.12738 11.9196C6.1283 11.9207 6.12924 11.9218 6.13031 11.9227C6.13068 11.9231 6.13108 11.9234 6.13149 11.9237C6.13387 11.9254 6.13642 11.9265 6.13896 11.9276C6.14023 11.9281 6.1415 11.9286 6.14274 11.9292C6.1437 11.9297 6.14465 11.9303 6.14557 11.9309C6.16385 11.9428 6.18272 11.9527 6.20279 11.9605L6.21114 11.9638L6.21115 11.9638C6.21625 11.9659 6.22131 11.968 6.22676 11.9695C6.25372 11.9773 6.28158 11.9827 6.30974 11.9827H6.31064L6.31244 11.9824L6.31424 11.9821L6.31429 11.9821C6.31936 11.9824 6.32444 11.9827 6.32952 11.9827C6.4125 11.9827 6.4874 11.9455 6.54282 11.8883L9.86188 9.67562L13.337 11.9345C13.3862 11.9662 13.4431 11.9827 13.5003 11.9827C13.5317 11.9827 13.5638 11.9776 13.5947 11.9674C13.6809 11.9387 13.7498 11.8721 13.7813 11.7865L17.9563 0.454811C17.9841 0.409574 18 0.355949 18 0.298729C17.9998 0.288 17.997 0.277841 17.9942 0.267619L17.9942 0.267594C17.9924 0.26127 17.9907 0.254923 17.9895 0.2484ZM14.5189 2.26248L7.33102 7.54769C7.32226 7.55421 7.31485 7.5619 7.3074 7.56963L7.29986 7.57735L7.29642 7.58043C7.29371 7.5828 7.29109 7.5851 7.28878 7.58784C7.28248 7.59473 7.27679 7.60162 7.2711 7.60911C7.26734 7.61413 7.26416 7.61929 7.26095 7.6245L7.25672 7.63128C7.24564 7.64925 7.23635 7.66783 7.22916 7.6876C7.22848 7.68936 7.22762 7.69093 7.22677 7.69249L7.22677 7.69249C7.22574 7.69438 7.22472 7.69625 7.22407 7.69838C7.22377 7.69958 7.22257 7.70018 7.22227 7.70138L6.39842 10.3787L5.74563 6.7565L14.5189 2.26248ZM7.67943 8.2577L6.86277 10.9551L8.07907 10.1442L9.31454 9.32062L8.95085 9.08425L7.67943 8.2577Z" fill="#2F3227"/>
</svg>
