<svg width="31" height="40" viewBox="0 0 31 40" fill="none" xmlns="http://www.w3.org/2000/svg">
<path fill-rule="evenodd" clip-rule="evenodd" d="M16.2836 16.4457C16.6481 16.5673 16.9722 16.7293 17.2557 16.9723C18.0253 17.6204 18.3899 18.5926 18.3899 19.8483C18.3899 20.2938 18.3494 20.6584 18.2684 21.023C18.1874 21.3875 18.0658 21.7116 17.9038 21.9951C17.7418 22.2786 17.5393 22.5217 17.2962 22.7647C17.1342 22.9268 16.9317 23.0483 16.6886 23.1698C16.4456 23.2508 16.2026 23.3318 15.9595 23.3723C15.676 23.4128 15.3924 23.4533 15.0684 23.4533H13.2051C12.9215 23.4533 12.719 23.4128 12.5975 23.3318C12.476 23.2508 12.395 23.1698 12.3545 23.0078C12.2734 22.8457 12.2734 22.6837 12.2734 22.4407V17.2154C12.2734 16.8913 12.3545 16.6483 12.476 16.5268C12.638 16.4052 12.8405 16.3242 13.1646 16.3242H15.0279C15.5139 16.3242 15.919 16.3647 16.2836 16.4457ZM15.838 22.1976C15.9595 22.1571 16.081 22.0761 16.2026 21.9951C16.6886 21.59 16.9317 20.9014 16.9722 19.8483C16.9722 19.1597 16.8507 18.6331 16.6481 18.2685C16.4456 17.904 16.2026 17.6609 15.8785 17.5799C15.5545 17.4584 15.1899 17.4179 14.7443 17.4179H13.7722V22.2786H14.8658H15.4329C15.5291 22.2786 15.6252 22.2533 15.7415 22.2226C15.7721 22.2145 15.8042 22.2061 15.838 22.1976Z" fill="#E1E1E1"/>
<path fill-rule="evenodd" clip-rule="evenodd" d="M30.1114 7.98379L30.0709 7.94326V7.90274L22.3708 0.202634L22.3303 0.162107C22.3303 0.162107 22.2898 0.162107 22.2898 0.121581C22.2898 0.121581 22.2492 0.121581 22.2492 0.0810537C22.1277 0 22.0061 0 21.844 0H2.75583C2.02634 0 1.33739 0.283688 0.851064 0.77001L0.810537 0.810537C0.324215 1.29686 0 2.02634 0 2.75583V37.2442C0 38.0142 0.324215 38.7031 0.810537 39.1895C1.29686 39.6758 2.02634 40 2.75583 40H27.4367C28.2067 40 28.8956 39.6758 29.382 39.1895C29.8683 38.7031 30.1925 37.9737 30.1925 37.2442V8.38906C30.1925 8.22695 30.152 8.10537 30.1114 7.98379ZM22.614 2.91793L27.1935 7.49747H23.8298C23.5056 7.49747 23.1814 7.37589 22.9787 7.13273C22.7761 6.93009 22.614 6.60588 22.614 6.28166V2.91793ZM28.1256 37.9737C28.3283 37.771 28.4498 37.5279 28.4498 37.2442V9.19959H23.9514C23.1408 9.19959 22.3708 8.87538 21.844 8.34853C21.2766 7.78116 20.9524 7.05167 20.9524 6.24113V1.6616H2.79635C2.55319 1.6616 2.31003 1.78318 2.1074 1.94529L2.06687 1.98582C1.86424 2.18845 1.74265 2.43161 1.74265 2.7153V37.2847C1.74265 37.5684 1.82371 37.8116 2.02634 38.0142C2.22898 38.1763 2.47214 38.2979 2.75583 38.2979H27.3962C27.6798 38.2979 27.923 38.1763 28.1256 37.9737Z" fill="#E1E1E1"/>
<path fill-rule="evenodd" clip-rule="evenodd" d="M9.6405 16.4858C9.96455 16.5668 10.2076 16.6883 10.4101 16.8908C10.6126 17.0529 10.7747 17.2959 10.9367 17.5389L10.9367 17.5389C11.0582 17.8225 11.0987 18.1465 11.0987 18.4706C11.0987 19.1997 10.8557 19.7668 10.4101 20.1313C9.96455 20.4959 9.31645 20.6984 8.42531 20.6984H7.0886V22.7238C7.0886 23.0073 7.00759 23.2098 6.88607 23.3719C6.72404 23.5339 6.56202 23.6149 6.35949 23.6149C6.15695 23.6149 5.95442 23.5744 5.8329 23.4124C5.71138 23.2503 5.63037 23.0478 5.63037 22.7643V17.2554C5.63037 16.9313 5.67088 16.6883 5.8329 16.5668C5.95442 16.4453 6.19746 16.3643 6.52151 16.3643H8.3848C8.91138 16.3643 9.35695 16.4048 9.6405 16.4858ZM8.91138 19.5238C9.15442 19.4427 9.31645 19.3212 9.43797 19.1592C9.55949 18.9972 9.59999 18.7946 9.6405 18.5516C9.6405 18.2275 9.55948 17.9845 9.35695 17.782C9.11392 17.5794 8.70885 17.4579 8.06075 17.4579H7.0886V19.6453H8.06075C8.3848 19.6453 8.66835 19.6048 8.91138 19.5238Z" fill="#E1E1E1"/>
<path d="M20.5366 16.2832C20.2936 16.3237 20.1316 16.3642 20.0101 16.4452C19.8885 16.4857 19.767 16.6073 19.7265 16.7288C19.6455 16.8503 19.6455 17.0123 19.6455 17.2554V22.7237C19.6455 23.0073 19.7265 23.2503 19.848 23.3718C19.9696 23.5338 20.1721 23.5743 20.3746 23.5743C20.5772 23.5743 20.7392 23.4933 20.9012 23.3718C21.0227 23.2098 21.1037 23.0073 21.1037 22.7237V20.3743H23.4936C23.6961 20.3743 23.8582 20.3338 23.9797 20.2123C24.1012 20.1313 24.1417 19.9693 24.1417 19.8073C24.1417 19.6452 24.1012 19.5237 23.9797 19.4022C23.8582 19.3212 23.6961 19.2402 23.4936 19.2402H21.1037V17.4174H23.9392C24.1822 17.4174 24.3442 17.3769 24.4658 17.2554C24.5873 17.1338 24.6278 17.0123 24.6278 16.8503C24.6278 16.6883 24.5873 16.5667 24.4658 16.4452C24.3442 16.3237 24.1822 16.2832 23.9392 16.2832H20.5366V16.2832Z" fill="#E1E1E1"/>
</svg>
