<svg width="32" height="32" viewBox="0 0 32 32" fill="none" xmlns="http://www.w3.org/2000/svg">
<path fill-rule="evenodd" clip-rule="evenodd" d="M29.6264 12.7686C29.6264 16.2757 26.7662 19.1359 23.2592 19.1359H9.87768C6.67703 19.1359 4.05518 16.514 4.05518 13.3134C4.05518 11.3045 5.11072 9.43172 6.77915 8.37618C6.67696 8.00163 6.64294 7.62708 6.64294 7.21851C6.64294 4.46051 8.89024 2.21321 11.6482 2.21321C12.2611 2.21321 12.84 2.31534 13.3848 2.51966C14.8149 0.919332 16.8578 0 18.9689 0C23.0208 0 26.3237 3.26876 26.4258 7.28661C28.4007 8.41026 29.6264 10.4873 29.6264 12.7686ZM8.41356 9.84036C7.01749 10.4192 6.09816 11.8152 6.09816 13.3134C6.09816 15.3904 7.76659 17.0929 9.87774 17.093H23.2252C25.6086 17.093 27.5495 15.1521 27.5495 12.7687C27.5495 11.1002 26.494 9.53391 24.9276 8.85292C24.5531 8.68262 24.3148 8.30807 24.3148 7.8995C24.3148 7.84844 24.3233 7.79736 24.3318 7.74628C24.3403 7.6952 24.3488 7.64412 24.3488 7.59306V7.45685C24.3488 4.46051 21.9312 2.04298 18.9349 2.04298C17.1644 2.04298 15.4959 2.92829 14.5085 4.39241C14.202 4.83506 13.6232 4.97127 13.1465 4.69885C12.6698 4.39241 12.1931 4.2562 11.6483 4.2562C10.014 4.2562 8.68599 5.5841 8.68599 7.21851C8.68599 7.62708 8.75409 8.03572 8.95841 8.44428C9.09456 8.71671 9.09456 8.98907 8.99243 9.26149C8.89024 9.53391 8.68599 9.73823 8.41356 9.84036Z" fill="#CCCCCC"/>
<path fill-rule="evenodd" clip-rule="evenodd" d="M13.6914 28.8059C13.6914 27.2736 15.6322 24.073 16.824 24.073C18.0157 24.073 19.9566 27.2737 19.9565 28.8059C19.9565 30.5424 18.5605 31.9384 16.824 31.9384C15.0874 31.9384 13.6914 30.5424 13.6914 28.8059ZM15.7344 28.8059C15.7344 29.3847 16.2451 29.8955 16.824 29.8955C17.4028 29.8955 17.9136 29.3847 17.9135 28.8059C17.9135 28.193 17.3006 27.1716 16.824 26.5246C16.3473 27.1715 15.7344 28.193 15.7344 28.8059Z" fill="#CCCCCC"/>
<path fill-rule="evenodd" clip-rule="evenodd" d="M5.85986 25.2307C5.85986 23.6985 7.80065 20.4978 8.99241 20.4978C9.43506 20.4978 9.77553 20.7702 10.082 21.0766C10.6268 21.6554 12.159 23.5963 12.125 25.2647C12.125 26.9672 10.7289 28.3632 8.99241 28.3632C7.25587 28.3632 5.85986 26.9672 5.85986 25.2307ZM7.90284 25.2307C7.90284 25.8095 8.41354 26.3203 8.99241 26.3203C9.57128 26.3203 10.082 25.8095 10.082 25.2307C10.082 24.6179 9.46909 23.5964 8.99241 22.9494C8.51573 23.5963 7.90284 24.6179 7.90284 25.2307Z" fill="#CCCCCC"/>
<path fill-rule="evenodd" clip-rule="evenodd" d="M21.5229 25.2307C21.5229 23.6985 23.4637 20.4978 24.6555 20.4978C25.8472 20.4978 27.788 23.6985 27.788 25.2307C27.788 26.9672 26.392 28.3632 24.6555 28.3632C22.919 28.3632 21.5229 26.9672 21.5229 25.2307ZM23.5659 25.2307C23.5659 25.8095 24.0766 26.3203 24.6555 26.3203C25.2343 26.3203 25.7451 25.8095 25.7451 25.2307C25.7451 24.6179 25.1322 23.5964 24.6555 22.9494C24.1788 23.6304 23.5659 24.6179 23.5659 25.2307Z" fill="#CCCCCC"/>
</svg>
