<svg width="40" height="40" viewBox="0 0 40 40" fill="none" xmlns="http://www.w3.org/2000/svg">
<mask id="path-1-inside-1" fill="white">
<path fill-rule="evenodd" clip-rule="evenodd" d="M34.0876 5.83771C41.8705 13.6263 41.8705 26.299 34.0876 34.0876C26.279 41.8708 13.6457 41.8708 5.83716 34.0876C-1.94572 26.2985 -1.94572 13.6257 5.83716 5.83719C13.6261 -1.9458 26.299 -1.94518 34.0876 5.83771ZM32.6009 7.17942C25.5877 0.249836 14.2358 0.27352 7.25189 7.25089C7.25181 7.25097 7.25198 7.2508 7.25189 7.25089M7.25189 7.25089C0.250282 14.2579 0.249412 25.6638 7.25004 32.6721C14.2777 39.6758 25.6464 39.676 32.6742 32.6726C39.6754 25.6648 39.6749 14.2586 32.6728 7.2514L32.6009 7.17942M8.71039 31.216C14.9133 37.4137 25.0121 37.4137 31.216 31.2154C37.4138 25.0125 37.4142 14.9142 31.2169 8.71032C24.995 2.51057 14.9307 2.51059 8.7088 8.71038C2.51139 14.9135 2.51177 25.0125 8.71039 31.216ZM7.29562 32.6297C0.316237 25.6448 0.316237 14.2791 7.29562 7.29513C14.2984 0.315657 25.6274 0.315657 32.6302 7.29513C39.6094 14.28 39.6094 25.6453 32.6302 32.6297C25.6451 39.609 14.2796 39.609 7.29562 32.6297Z"/>
<path fill-rule="evenodd" clip-rule="evenodd" d="M30.589 15.0324C30.9915 14.6298 30.9915 13.9771 30.589 13.5745L27.3164 10.3019C26.9138 9.89934 26.261 9.89934 25.8584 10.3019L20.4454 15.715L15.0325 10.3019C14.6299 9.89934 13.9771 9.89934 13.5745 10.3019L10.3019 13.5745C9.89935 13.9771 9.89935 14.6298 10.3019 15.0324L15.7149 20.4454L10.3019 25.8584C9.89935 26.261 9.89935 26.9138 10.3019 27.3164L13.5745 30.5889C13.9771 30.9915 14.6299 30.9915 15.0325 30.5889L20.4454 25.1758L25.8584 30.5889C26.261 30.9915 26.9138 30.9915 27.3164 30.5889L30.589 27.3164C30.9915 26.9138 30.9915 26.261 30.589 25.8584L25.176 20.4454L30.589 15.0324ZM12.4014 14.3035L18.5434 20.4454L12.4014 26.5874L14.3035 28.4895L20.4454 22.3474L26.5874 28.4895L28.4895 26.5874L22.3475 20.4454L28.4895 14.3035L26.5874 12.4014L20.4454 18.5435L14.3035 12.4014L12.4014 14.3035ZM21.1745 17.902L26.5875 12.489L28.4019 14.3035L22.989 19.7165C22.5864 20.1191 22.5864 20.7718 22.989 21.1744L28.4019 26.5874L26.5875 28.4018L21.1745 22.9888L21.1866 22.9768M20.6974 20.6973C20.6835 20.5297 20.6835 20.3612 20.6974 20.1936C20.5298 20.2075 20.3613 20.2075 20.1937 20.1936C20.2076 20.3612 20.2076 20.5297 20.1937 20.6973C20.3613 20.6834 20.5298 20.6834 20.6974 20.6973ZM17.9022 21.1744L12.4892 26.5874L14.3036 28.4018L19.7166 22.9888C20.1192 22.5862 20.7719 22.5862 21.1745 22.9888L21.1866 22.9768M21.1745 17.902C20.7719 18.3046 20.1192 18.3046 19.7166 17.902L14.3036 12.489L12.4892 14.3035L17.9022 19.7165C18.3047 20.1191 18.3047 20.7718 17.9022 21.1744"/>
</mask>
<path d="M21.1745 17.902L22.1745 17.8997L22.1688 15.4936L20.4674 17.1949L21.1745 17.902ZM21.1866 22.9768L21.8937 23.6839L22.1876 23.39L22.1866 22.9744L21.1866 22.9768ZM17.9022 21.1744L17.195 20.4673L16.2525 21.4098L17.4211 22.0511L17.9022 21.1744ZM7.25471 8.25088L32.6037 8.17942L32.5981 6.17943L7.24907 6.25089L7.25471 8.25088ZM20.4795 22.2696L20.4674 22.2817L21.8816 23.6959L21.8937 23.6839L20.4795 22.2696ZM22.1866 22.9744L22.1745 17.8997L20.1745 17.9044L20.1866 22.9791L22.1866 22.9744ZM21.6677 22.1001L18.3832 20.2977L17.4211 22.0511L20.7055 23.8534L21.6677 22.1001ZM18.6093 21.8815L21.8816 18.6091L20.4674 17.1949L17.195 20.4673L18.6093 21.8815ZM34.0876 34.0876L35.4995 35.5041L35.5023 35.5013L34.0876 34.0876ZM34.0876 5.83771L35.5023 4.42401L35.5013 4.42298L34.0876 5.83771ZM5.83716 34.0876L4.42239 35.5013L4.42526 35.5041L5.83716 34.0876ZM5.83716 5.83719L4.42349 4.42243L4.42244 4.42349L5.83716 5.83719ZM32.6009 7.17942L34.0157 5.7657L34.0066 5.75675L32.6009 7.17942ZM7.25004 32.6721L5.83506 34.0855L5.83824 34.0887L7.25004 32.6721ZM32.6742 32.6726L34.086 34.0892L34.0891 34.0861L32.6742 32.6726ZM32.6728 7.2514L31.2581 8.6651L31.2581 8.6651L32.6728 7.2514ZM31.216 31.2154L32.6296 32.6302L32.6308 32.629L31.216 31.2154ZM8.71039 31.216L7.29562 32.6297L7.29677 32.6308L8.71039 31.216ZM31.2169 8.71032L32.6319 7.29685L32.6286 7.29358L31.2169 8.71032ZM8.7088 8.71038L7.2971 7.29365L7.29393 7.29682L8.7088 8.71038ZM7.29562 32.6297L5.88085 34.0433L5.88187 34.0443L7.29562 32.6297ZM7.29562 7.29513L5.88376 5.87856L5.88094 5.88138L7.29562 7.29513ZM32.6302 7.29513L34.0449 5.88148L34.042 5.87856L32.6302 7.29513ZM32.6302 32.6297L34.0438 34.0445L34.0449 34.0434L32.6302 32.6297ZM30.589 15.0324L32.0032 16.4467L32.0032 16.4466L30.589 15.0324ZM30.589 13.5745L32.0032 12.1603L32.0032 12.1603L30.589 13.5745ZM27.3164 10.3019L28.7306 8.88772L28.7306 8.8877L27.3164 10.3019ZM25.8584 10.3019L24.4442 8.88771L24.4442 8.88773L25.8584 10.3019ZM20.4454 15.715L19.0312 17.1292L20.4454 18.5435L21.8597 17.1292L20.4454 15.715ZM15.0325 10.3019L16.4467 8.88773L16.4467 8.8877L15.0325 10.3019ZM13.5745 10.3019L12.1603 8.8877L12.1603 8.88772L13.5745 10.3019ZM10.3019 13.5745L8.88773 12.1603L8.88772 12.1603L10.3019 13.5745ZM10.3019 15.0324L8.88772 16.4466L8.88773 16.4467L10.3019 15.0324ZM15.7149 20.4454L17.1291 21.8597L18.5434 20.4454L17.1291 19.0312L15.7149 20.4454ZM10.3019 25.8584L8.88773 24.4442L8.88772 24.4442L10.3019 25.8584ZM10.3019 27.3164L8.88772 28.7306L8.88773 28.7306L10.3019 27.3164ZM13.5745 30.5889L12.1603 32.0032L12.1603 32.0032L13.5745 30.5889ZM15.0325 30.5889L16.4467 32.0032L16.4467 32.0031L15.0325 30.5889ZM20.4454 25.1758L21.8597 23.7616L20.4454 22.3474L19.0312 23.7616L20.4454 25.1758ZM25.8584 30.5889L24.4442 32.0031L24.4442 32.0032L25.8584 30.5889ZM27.3164 30.5889L28.7306 32.0032L28.7306 32.0032L27.3164 30.5889ZM30.589 27.3164L32.0032 28.7306L32.0032 28.7306L30.589 27.3164ZM30.589 25.8584L32.0032 24.4442L32.0032 24.4442L30.589 25.8584ZM25.176 20.4454L23.7618 19.0312L22.3475 20.4454L23.7618 21.8597L25.176 20.4454ZM12.4014 14.3035L10.9872 12.8893L9.57298 14.3035L10.9872 15.7177L12.4014 14.3035ZM18.5434 20.4454L19.9576 21.8597L21.3718 20.4454L19.9576 19.0312L18.5434 20.4454ZM12.4014 26.5874L10.9872 25.1732L9.57298 26.5874L10.9872 28.0016L12.4014 26.5874ZM14.3035 28.4895L12.8893 29.9037L14.3035 31.3179L15.7177 29.9037L14.3035 28.4895ZM20.4454 22.3474L21.8597 20.9332L20.4454 19.5189L19.0312 20.9332L20.4454 22.3474ZM26.5874 28.4895L25.1732 29.9037L26.5874 31.3179L28.0016 29.9037L26.5874 28.4895ZM28.4895 26.5874L29.9037 28.0016L31.3179 26.5874L29.9037 25.1732L28.4895 26.5874ZM22.3475 20.4454L20.9333 19.0312L19.5191 20.4454L20.9333 21.8597L22.3475 20.4454ZM28.4895 14.3035L29.9037 15.7177L31.3179 14.3035L29.9037 12.8893L28.4895 14.3035ZM26.5874 12.4014L28.0016 10.9872L26.5874 9.57296L25.1732 10.9872L26.5874 12.4014ZM20.4454 18.5435L19.0312 19.9577L20.4454 21.3719L21.8597 19.9577L20.4454 18.5435ZM14.3035 12.4014L15.7177 10.9872L14.3035 9.57296L12.8893 10.9872L14.3035 12.4014ZM21.1745 17.902L22.5887 19.3163L22.5887 19.3162L21.1745 17.902ZM26.5875 12.489L28.0017 11.0748L26.5875 9.66062L25.1733 11.0748L26.5875 12.489ZM28.4019 14.3035L29.8162 15.7177L31.2304 14.3035L29.8162 12.8893L28.4019 14.3035ZM22.989 19.7165L21.5747 18.3023L21.5747 18.3023L22.989 19.7165ZM22.989 21.1744L21.5747 22.5886L21.5747 22.5886L22.989 21.1744ZM28.4019 26.5874L29.8162 28.0016L31.2304 26.5874L29.8162 25.1732L28.4019 26.5874ZM26.5875 28.4018L25.1733 29.816L26.5875 31.2303L28.0017 29.816L26.5875 28.4018ZM21.1745 22.9888L22.5887 21.5746L22.5887 21.5746L21.1745 22.9888ZM20.6974 20.1936L22.6906 20.3588L22.8857 18.0053L20.5322 18.2004L20.6974 20.1936ZM20.6974 20.6973L20.5322 22.6905L22.8857 22.8856L22.6906 20.5321L20.6974 20.6973ZM20.1937 20.1936L20.3589 18.2004L18.0054 18.0053L18.2005 20.3588L20.1937 20.1936ZM20.1937 20.6973L18.2005 20.5321L18.0054 22.8856L20.3589 22.6905L20.1937 20.6973ZM17.9022 21.1744L19.3164 22.5886L19.3164 22.5886L17.9022 21.1744ZM12.4892 26.5874L11.0749 25.1732L9.66073 26.5874L11.0749 28.0016L12.4892 26.5874ZM14.3036 28.4018L12.8894 29.816L14.3036 31.2303L15.7178 29.816L14.3036 28.4018ZM19.7166 22.9888L18.3024 21.5746L18.3024 21.5746L19.7166 22.9888ZM19.7166 17.902L18.3024 19.3162L18.3024 19.3163L19.7166 17.902ZM14.3036 12.489L15.7178 11.0748L14.3036 9.66062L12.8894 11.0748L14.3036 12.489ZM12.4892 14.3035L11.0749 12.8893L9.66073 14.3035L11.0749 15.7177L12.4892 14.3035ZM17.9022 19.7165L19.3164 18.3023L19.3164 18.3023L17.9022 19.7165ZM35.5023 35.5013C44.0656 26.9318 44.0656 12.9935 35.5023 4.42401L32.6728 7.2514C39.6754 14.259 39.6754 25.6663 32.6728 32.6739L35.5023 35.5013ZM4.42526 35.5041C13.0143 44.0653 26.9104 44.0653 35.4995 35.5041L32.6757 32.6711C25.6476 39.6763 14.2771 39.6763 7.24907 32.6711L4.42526 35.5041ZM4.42244 4.42349C-4.14084 12.993 -4.14077 26.9313 4.42239 35.5013L7.25194 32.6739C0.249327 25.6658 0.249395 14.2585 7.25189 7.25089L4.42244 4.42349ZM35.5013 4.42298C26.9318 -4.14021 12.9934 -4.14094 4.42349 4.42243L7.25084 7.25195C14.2588 0.24934 25.6662 0.249851 32.6739 7.25243L35.5013 4.42298ZM8.66545 8.66576C14.871 2.46597 24.9636 2.44485 31.1952 8.6021L34.0066 5.75675C26.2117 -1.94518 13.6005 -1.91893 5.83834 5.83602L8.66545 8.66576ZM8.66611 8.6651C8.66611 8.6651 8.66611 8.6651 8.66611 8.6651C8.66611 8.6651 8.66611 8.6651 8.66611 8.6651C8.66611 8.6651 8.66611 8.6651 8.66611 8.6651C8.66611 8.6651 8.66611 8.6651 8.66611 8.6651C8.66611 8.6651 8.66611 8.6651 8.66611 8.6651C8.66611 8.6651 8.66611 8.6651 8.66611 8.6651C8.66611 8.6651 8.66611 8.6651 8.66611 8.6651C8.66611 8.6651 8.66611 8.6651 8.66611 8.6651C8.66611 8.6651 8.66611 8.6651 8.66611 8.6651C8.66611 8.6651 8.66611 8.6651 8.66611 8.6651C8.66611 8.6651 8.66611 8.6651 8.66611 8.6651C8.66611 8.6651 8.66611 8.6651 8.66611 8.6651C8.66611 8.6651 8.66611 8.6651 8.66611 8.6651C8.66611 8.6651 8.66611 8.6651 8.66611 8.6651C8.66611 8.6651 8.66611 8.6651 8.66611 8.6651C8.66611 8.6651 8.66611 8.6651 8.66611 8.6651C8.66611 8.6651 8.66611 8.66509 8.66611 8.66509C8.66611 8.66509 8.66611 8.66509 8.66612 8.66509C8.66612 8.66509 8.66612 8.66509 8.66612 8.66509C8.66612 8.66509 8.66612 8.66509 8.66612 8.66509C8.66612 8.66509 8.66612 8.66509 8.66612 8.66509C8.66612 8.66509 8.66612 8.66509 8.66612 8.66509C8.66612 8.66509 8.66612 8.66509 8.66612 8.66509C8.66612 8.66509 8.66612 8.66509 8.66612 8.66509C8.66612 8.66509 8.66612 8.66509 8.66612 8.66509C8.66612 8.66509 8.66612 8.66509 8.66612 8.66509C8.66612 8.66509 8.66612 8.66509 8.66612 8.66509C8.66612 8.66509 8.66612 8.66509 8.66612 8.66509C8.66612 8.66509 8.66612 8.66509 8.66612 8.66509C8.66612 8.66509 8.66612 8.66509 8.66612 8.66509C8.66612 8.66509 8.66612 8.66509 8.66612 8.66509C8.66612 8.66509 8.66612 8.66509 8.66612 8.66509C8.66612 8.66509 8.66612 8.66509 8.66612 8.66509C8.66612 8.66509 8.66612 8.66509 8.66612 8.66509C8.66612 8.66509 8.66612 8.66509 8.66612 8.66509C8.66612 8.66509 8.66612 8.66509 8.66612 8.66509C8.66612 8.66509 8.66612 8.66509 8.66612 8.66509C8.66612 8.66509 8.66612 8.66509 8.66612 8.66509C8.66612 8.66509 8.66612 8.66509 8.66612 8.66509C8.66612 8.66509 8.66612 8.66509 8.66612 8.66509C8.66612 8.66509 8.66612 8.66509 8.66612 8.66509C8.66612 8.66509 8.66612 8.66509 8.66612 8.66509C8.66612 8.66509 8.66612 8.66509 8.66612 8.66509C8.66612 8.66509 8.66612 8.66509 8.66612 8.66509C8.66612 8.66509 8.66612 8.66509 8.66612 8.66509C8.66612 8.66509 8.66612 8.66509 8.66612 8.66509C8.66612 8.66509 8.66612 8.66509 8.66612 8.66509C8.66612 8.66508 8.66612 8.66508 8.66612 8.66508C8.66612 8.66508 8.66612 8.66508 8.66612 8.66508C8.66612 8.66508 8.66613 8.66508 8.66613 8.66508C8.66613 8.66508 8.66613 8.66508 8.66613 8.66508C8.66613 8.66508 8.66613 8.66508 8.66613 8.66508C8.66613 8.66508 8.66613 8.66508 8.66613 8.66508C8.66613 8.66508 8.66613 8.66508 8.66613 8.66508C8.66613 8.66508 8.66613 8.66508 8.66613 8.66508C8.66613 8.66508 8.66613 8.66508 8.66613 8.66508C8.66613 8.66508 8.66613 8.66508 8.66613 8.66508C8.66613 8.66508 8.66613 8.66508 8.66613 8.66508C8.66613 8.66508 8.66613 8.66508 8.66613 8.66508C8.66613 8.66508 8.66613 8.66508 8.66613 8.66508C8.66613 8.66508 8.66613 8.66508 8.66613 8.66508C8.66613 8.66508 8.66613 8.66508 8.66613 8.66508C8.66613 8.66508 8.66613 8.66508 8.66613 8.66508C8.66613 8.66508 8.66613 8.66508 8.66613 8.66508C8.66613 8.66508 8.66613 8.66508 8.66613 8.66508C8.66613 8.66508 8.66613 8.66508 8.66613 8.66508C8.66613 8.66508 8.66613 8.66508 8.66613 8.66508C8.66613 8.66508 8.66613 8.66508 8.66613 8.66508C8.66613 8.66508 8.66613 8.66508 8.66613 8.66508C8.66613 8.66508 8.66613 8.66508 8.66613 8.66508C8.66613 8.66508 8.66613 8.66508 8.66613 8.66508C8.66613 8.66508 8.66613 8.66508 8.66613 8.66508C8.66613 8.66508 8.66613 8.66508 8.66613 8.66508C8.66613 8.66508 8.66613 8.66508 8.66613 8.66508C8.66613 8.66508 8.66613 8.66508 8.66613 8.66508C8.66613 8.66508 8.66613 8.66508 8.66613 8.66508C8.66613 8.66508 8.66613 8.66508 8.66613 8.66508C8.66613 8.66508 8.66613 8.66508 8.66613 8.66508C8.66613 8.66508 8.66613 8.66508 8.66613 8.66508C8.66613 8.66508 8.66613 8.66508 8.66613 8.66508C8.66613 8.66508 8.66613 8.66508 8.66613 8.66508C8.66613 8.66508 8.66613 8.66508 8.66613 8.66508C8.66613 8.66508 8.66613 8.66508 8.66613 8.66508C8.66613 8.66508 8.66613 8.66508 8.66613 8.66508C8.66613 8.66508 8.66613 8.66508 8.66613 8.66508C8.66613 8.66508 8.66613 8.66508 8.66613 8.66508C8.66613 8.66508 8.66613 8.66508 8.66613 8.66508C8.66613 8.66508 8.66613 8.66508 8.66613 8.66508C8.66613 8.66508 8.66613 8.66508 8.66613 8.66508C8.66613 8.66508 8.66613 8.66508 8.66613 8.66508C8.66613 8.66508 8.66613 8.66508 8.66613 8.66508C8.66613 8.66508 8.66613 8.66508 8.66613 8.66508C8.66613 8.66508 8.66613 8.66508 8.66613 8.66508C8.66613 8.66508 8.66613 8.66508 8.66613 8.66508C8.66613 8.66508 8.66613 8.66508 8.66613 8.66508C8.66613 8.66508 8.66613 8.66508 8.66613 8.66508C8.66613 8.66508 8.66613 8.66508 8.66613 8.66508C8.66613 8.66508 8.66613 8.66508 8.66613 8.66508C8.66613 8.66508 8.66613 8.66508 8.66613 8.66508C8.66613 8.66508 8.66613 8.66508 8.66613 8.66508C8.66613 8.66508 8.66613 8.66508 8.66613 8.66508C8.66613 8.66508 8.66613 8.66508 8.66613 8.66508C8.66613 8.66508 8.66613 8.66508 8.66613 8.66508C8.66613 8.66508 8.66613 8.66508 8.66613 8.66508C8.66613 8.66508 8.66613 8.66508 8.66613 8.66508C8.66613 8.66508 8.66613 8.66508 8.66613 8.66508C8.66613 8.66508 8.66613 8.66508 8.66613 8.66508C8.66613 8.66508 8.66613 8.66508 8.66613 8.66508C5.8377 5.83665 5.8377 5.83665 5.8377 5.83665C5.8377 5.83665 5.8377 5.83665 5.8377 5.83665C5.8377 5.83665 5.8377 5.83665 5.8377 5.83665C5.8377 5.83665 5.8377 5.83665 5.8377 5.83665C5.8377 5.83665 5.8377 5.83665 5.8377 5.83665C5.8377 5.83665 5.8377 5.83665 5.8377 5.83665C5.8377 5.83665 5.8377 5.83665 5.8377 5.83665C5.8377 5.83665 5.8377 5.83665 5.8377 5.83665C5.8377 5.83665 5.8377 5.83665 5.8377 5.83665C5.8377 5.83665 5.8377 5.83665 5.8377 5.83665C5.8377 5.83665 5.8377 5.83665 5.8377 5.83665C5.8377 5.83665 5.8377 5.83665 5.8377 5.83665C5.8377 5.83665 5.8377 5.83665 5.8377 5.83665C5.8377 5.83665 5.8377 5.83665 5.8377 5.83665C5.8377 5.83665 5.8377 5.83665 5.8377 5.83665C5.8377 5.83665 5.8377 5.83665 5.8377 5.83665C5.8377 5.83665 5.8377 5.83665 5.8377 5.83665C5.8377 5.83665 5.8377 5.83665 5.8377 5.83665C5.8377 5.83665 5.8377 5.83665 5.8377 5.83665C5.8377 5.83665 5.8377 5.83665 5.8377 5.83665C5.8377 5.83665 5.8377 5.83665 5.8377 5.83665C5.8377 5.83665 5.8377 5.83665 5.8377 5.83665C5.8377 5.83665 5.8377 5.83665 5.8377 5.83665C5.8377 5.83665 5.8377 5.83665 5.8377 5.83665C5.8377 5.83665 5.8377 5.83665 5.8377 5.83665C5.8377 5.83665 5.8377 5.83665 5.8377 5.83665C5.8377 5.83665 5.8377 5.83665 5.8377 5.83665C5.8377 5.83665 5.8377 5.83665 5.8377 5.83665C5.8377 5.83665 5.8377 5.83665 5.8377 5.83665C5.8377 5.83665 5.8377 5.83665 5.8377 5.83665C5.8377 5.83665 5.8377 5.83665 5.8377 5.83665C5.8377 5.83665 5.8377 5.83665 5.8377 5.83665C5.8377 5.83665 5.8377 5.83665 5.8377 5.83665C5.8377 5.83665 5.8377 5.83665 5.8377 5.83665C5.8377 5.83665 5.8377 5.83665 5.8377 5.83665C5.8377 5.83665 5.8377 5.83665 5.8377 5.83665C5.8377 5.83665 5.8377 5.83665 5.8377 5.83665C5.8377 5.83665 5.8377 5.83665 5.8377 5.83665C5.8377 5.83665 5.8377 5.83665 5.8377 5.83665C5.8377 5.83665 5.8377 5.83665 5.8377 5.83665C5.8377 5.83665 5.8377 5.83665 5.8377 5.83665C5.8377 5.83665 5.8377 5.83665 5.8377 5.83665C5.8377 5.83665 5.8377 5.83665 5.8377 5.83665C5.8377 5.83665 5.8377 5.83665 5.8377 5.83665C5.8377 5.83665 5.8377 5.83665 5.8377 5.83665C5.8377 5.83665 5.8377 5.83665 5.8377 5.83665C5.8377 5.83665 5.8377 5.83665 5.8377 5.83665C5.8377 5.83665 5.8377 5.83665 5.8377 5.83665C5.8377 5.83665 5.8377 5.83665 5.8377 5.83665C5.8377 5.83665 5.8377 5.83665 5.8377 5.83665C5.8377 5.83665 5.8377 5.83665 5.8377 5.83665C5.8377 5.83665 5.8377 5.83665 5.8377 5.83665C5.8377 5.83665 5.8377 5.83665 5.8377 5.83665C5.8377 5.83665 5.8377 5.83665 5.8377 5.83666C5.8377 5.83666 5.8377 5.83666 5.8377 5.83666C5.8377 5.83666 5.8377 5.83666 5.8377 5.83666C5.8377 5.83666 5.8377 5.83666 5.8377 5.83666C5.8377 5.83666 5.8377 5.83666 5.8377 5.83666C5.8377 5.83666 5.8377 5.83666 5.8377 5.83666C5.8377 5.83666 5.8377 5.83666 5.8377 5.83666C5.8377 5.83666 5.8377 5.83666 5.8377 5.83666C5.8377 5.83666 5.8377 5.83666 5.8377 5.83666C5.8377 5.83666 5.8377 5.83666 5.8377 5.83666C5.8377 5.83666 5.8377 5.83666 5.8377 5.83666C5.8377 5.83666 5.8377 5.83666 5.8377 5.83666C5.8377 5.83666 5.8377 5.83666 5.8377 5.83666C5.8377 5.83666 5.8377 5.83666 5.8377 5.83666C5.8377 5.83666 5.8377 5.83666 5.8377 5.83666C5.8377 5.83666 5.8377 5.83666 5.8377 5.83666C5.8377 5.83666 5.8377 5.83666 5.8377 5.83666C5.8377 5.83666 5.8377 5.83666 5.8377 5.83666C5.8377 5.83666 5.8377 5.83666 5.8377 5.83666C5.8377 5.83666 5.8377 5.83666 5.8377 5.83666C5.8377 5.83666 5.8377 5.83666 5.8377 5.83666C5.8377 5.83666 5.8377 5.83666 5.8377 5.83666C5.8377 5.83666 5.8377 5.83666 5.8377 5.83666C5.8377 5.83666 5.8377 5.83666 5.8377 5.83666C5.8377 5.83666 5.8377 5.83666 5.8377 5.83666C5.8377 5.83666 5.8377 5.83666 5.8377 5.83666C5.8377 5.83666 5.8377 5.83666 5.8377 5.83666C5.8377 5.83666 5.8377 5.83666 5.8377 5.83666C5.8377 5.83666 5.8377 5.83666 5.8377 5.83666C5.8377 5.83666 5.8377 5.83666 5.8377 5.83666C5.8377 5.83666 5.83769 5.83666 5.83769 5.83666C5.83769 5.83666 5.83769 5.83666 5.83769 5.83666C5.83769 5.83666 5.83769 5.83666 5.83769 5.83666C5.83769 5.83666 5.83769 5.83666 5.83769 5.83666C5.83769 5.83666 5.83769 5.83666 5.83769 5.83666C5.83769 5.83666 5.83769 5.83666 5.83769 5.83666C5.83769 5.83666 5.83769 5.83666 5.83769 5.83666C5.83769 5.83666 5.83769 5.83666 5.83769 5.83666C5.83769 5.83666 5.83769 5.83666 5.83769 5.83666C5.83769 5.83666 5.83769 5.83666 5.83769 5.83666C5.83769 5.83666 5.83769 5.83666 5.83769 5.83666C5.83769 5.83666 5.83769 5.83666 5.83769 5.83666C5.83769 5.83666 5.83769 5.83666 5.83769 5.83666C5.83769 5.83666 5.83769 5.83666 5.83769 5.83666C5.83769 5.83666 5.83769 5.83666 5.83769 5.83666C5.83769 5.83666 5.83769 5.83666 5.83769 5.83666C5.83769 5.83666 5.83769 5.83666 5.83769 5.83666C5.83769 5.83666 5.83769 5.83666 5.83769 5.83666C5.83769 5.83666 5.83769 5.83666 5.83769 5.83666C5.83769 5.83666 5.83769 5.83666 5.83769 5.83666C5.83769 5.83666 5.83769 5.83666 5.83769 5.83666C5.83769 5.83666 5.83769 5.83666 5.83769 5.83666C5.83769 5.83666 5.83769 5.83667 5.83769 5.83667C5.83769 5.83667 5.83769 5.83667 5.83769 5.83667C5.83769 5.83667 5.83769 5.83667 5.83769 5.83667C5.83769 5.83667 5.83769 5.83667 5.83769 5.83667C5.83769 5.83667 5.83769 5.83667 5.83769 5.83667C5.83769 5.83667 5.83769 5.83667 5.83769 5.83667C5.83769 5.83667 5.83769 5.83667 5.83769 5.83667C5.83769 5.83667 5.83769 5.83667 5.83769 5.83667C5.83769 5.83667 5.83769 5.83667 5.83769 5.83667C5.83769 5.83667 5.83769 5.83667 5.83769 5.83667C5.83769 5.83667 5.83769 5.83667 5.83769 5.83667C5.83769 5.83667 5.83769 5.83667 5.83769 5.83667C5.83769 5.83667 5.83769 5.83667 5.83769 5.83667C5.83769 5.83667 5.83769 5.83667 5.83769 5.83667C5.83769 5.83667 5.83769 5.83667 5.83769 5.83667C5.83769 5.83667 5.83769 5.83667 5.83769 5.83667C5.83769 5.83667 5.83769 5.83667 5.83769 5.83667C5.83769 5.83667 5.83769 5.83667 5.83769 5.83667C5.83769 5.83667 5.83769 5.83667 5.83769 5.83667C5.83769 5.83667 5.83769 5.83667 5.83769 5.83667C5.83769 5.83667 5.83769 5.83667 5.83769 5.83667C5.83769 5.83667 5.83769 5.83667 5.83769 5.83667C5.83769 5.83667 5.83768 5.83667 5.83768 5.83667C5.83768 5.83667 5.83768 5.83667 5.83768 5.83667C5.83768 5.83667 5.83768 5.83667 5.83768 5.83667C5.83768 5.83667 5.83768 5.83667 5.83768 5.83667C5.83768 5.83667 5.83768 5.83667 5.83768 5.83667C5.83768 5.83667 5.83768 5.83667 5.83768 5.83667C5.83768 5.83667 5.83768 5.83667 5.83768 5.83667C5.83768 5.83667 5.83768 5.83667 5.83768 5.83667C5.83768 5.83667 5.83768 5.83667 5.83768 5.83667C5.83768 5.83667 5.83768 5.83667 5.83768 5.83667C5.83768 5.83667 5.83768 5.83667 5.83768 5.83667C5.83768 5.83667 5.83768 5.83667 5.83768 5.83667C5.83768 5.83667 5.83768 5.83667 5.83768 5.83667C5.83768 5.83667 5.83768 5.83667 5.83768 5.83667C5.83768 5.83667 5.83768 5.83667 5.83768 5.83667C5.83768 5.83667 5.83768 5.83667 5.83768 5.83667C5.83768 5.83667 5.83768 5.83667 5.83768 5.83667C5.83768 5.83667 5.83768 5.83667 5.83768 5.83667C5.83768 5.83667 5.83768 5.83667 5.83768 5.83667C5.83768 5.83667 5.83768 5.83667 5.83768 5.83668C5.83768 5.83668 5.83768 5.83668 5.83768 5.83668C5.83768 5.83668 5.83768 5.83668 5.83768 5.83668C5.83768 5.83668 5.83768 5.83668 5.83768 5.83668C5.83768 5.83668 5.83768 5.83668 5.83768 5.83668C5.83768 5.83668 5.83768 5.83668 5.83768 5.83668C5.83768 5.83668 5.83768 5.83668 5.83768 5.83668C5.83768 5.83668 5.83768 5.83668 5.83768 5.83668C5.83768 5.83668 5.83768 5.83668 5.83768 5.83668C5.83768 5.83668 5.83768 5.83668 5.83768 5.83668C5.83768 5.83668 5.83768 5.83668 5.83768 5.83668C5.83768 5.83668 5.83768 5.83668 5.83768 5.83668C5.83768 5.83668 5.83768 5.83668 5.83768 5.83668C5.83768 5.83668 5.83768 5.83668 5.83768 5.83668C5.83768 5.83668 5.83768 5.83668 5.83768 5.83668C5.83768 5.83668 5.83768 5.83668 5.83768 5.83668C5.83768 5.83668 5.83768 5.83668 5.83768 5.83668C5.83768 5.83668 5.83768 5.83668 5.83768 5.83668C5.83768 5.83668 5.83768 5.83668 5.83768 5.83668C5.83768 5.83668 5.83768 5.83668 5.83768 5.83668C5.83768 5.83668 5.83768 5.83668 5.83768 5.83668C5.83768 5.83668 5.83768 5.83668 5.83768 5.83668C5.83767 5.83668 5.83767 5.83668 5.83767 5.83668C5.83767 5.83668 5.83767 5.83668 5.83767 5.83668C5.83767 5.83668 5.83767 5.83668 5.83767 5.83668C5.83767 5.83668 5.83767 5.83668 5.83767 5.83668C5.83767 5.83668 5.83767 5.83668 5.83767 5.83668C5.83767 5.83668 5.83767 5.83668 5.83767 5.83668C5.83767 5.83668 5.83767 5.83668 5.83767 5.83668C5.83767 5.83668 5.83767 5.83668 5.83767 5.83668C5.83767 5.83668 5.83767 5.83668 5.83767 5.83668C5.83767 5.83668 5.83767 5.83668 5.83767 5.83668C5.83767 5.83668 5.83767 5.83668 5.83767 5.83668C5.83767 5.83668 5.83767 5.83668 5.83767 5.83668C5.83767 5.83668 5.83767 5.83668 5.83767 5.83668C5.83767 5.83668 5.83767 5.83668 5.83767 5.83668C5.83767 5.83668 5.83767 5.83668 5.83767 5.83668C5.83767 5.83668 5.83767 5.83668 5.83767 5.83668C5.83767 5.83668 5.83767 5.83668 5.83767 5.83668C5.83767 5.83668 5.83767 5.83668 5.83767 5.83668C5.83767 5.83668 5.83767 5.83668 5.83767 5.83668C5.83767 5.83668 5.83767 5.83668 5.83767 5.83668C5.83767 5.83669 5.83767 5.83669 5.83767 5.83669C5.83767 5.83669 5.83767 5.83669 5.83767 5.83669C5.83767 5.83669 5.83767 5.83669 5.83767 5.83669C5.83767 5.83669 5.83767 5.83669 5.83767 5.83669C5.83767 5.83669 5.83767 5.83669 5.83767 5.83669C5.83767 5.83669 5.83767 5.83669 5.83767 5.83669C5.83767 5.83669 5.83767 5.83669 5.83767 5.83669C5.83767 5.83669 5.83767 5.83669 5.83767 5.83669C5.83767 5.83669 5.83767 5.83669 5.83767 5.83669C5.83767 5.83669 5.83767 5.83669 5.83767 5.83669C5.83767 5.83669 5.83767 5.83669 5.83767 5.83669C5.83767 5.83669 5.83767 5.83669 5.83767 5.83669C5.83767 5.83669 5.83767 5.83669 5.83767 5.83669C5.83767 5.83669 5.83767 5.83669 5.83767 5.83669C5.83767 5.83669 5.83767 5.83669 5.83767 5.83669C5.83767 5.83669 5.83767 5.83669 5.83767 5.83669C5.83767 5.83669 5.83767 5.83669 5.83767 5.83669C5.83767 5.83669 5.83767 5.83669 5.83767 5.83669C5.83767 5.83669 5.83767 5.83669 5.83767 5.83669C5.83767 5.83669 5.83767 5.83669 5.83767 5.83669C5.83767 5.83669 5.83767 5.83669 5.83767 5.83669C5.83767 5.83669 5.83767 5.83669 5.83767 5.83669C5.83767 5.83669 5.83767 5.83669 5.83767 5.83669C5.83767 5.83669 5.83767 5.83669 5.83767 5.83669C5.83766 5.83669 5.83766 5.83669 5.83766 5.83669C5.83766 5.83669 5.83766 5.83669 5.83766 5.83669C5.83766 5.83669 5.83766 5.83669 5.83766 5.83669C5.83766 5.83669 5.83766 5.83669 5.83766 5.83669C5.83766 5.83669 5.83766 5.83669 5.83766 5.83669C5.83766 5.83669 5.83766 5.83669 5.83766 5.83669C5.83766 5.83669 5.83766 5.83669 5.83766 5.83669C5.83766 5.83669 5.83766 5.83669 5.83766 5.83669C5.83766 5.83669 5.83766 5.83669 5.83766 5.83669C5.83766 5.83669 5.83766 5.83669 5.83766 5.83669C5.83766 5.83669 5.83766 5.83669 5.83766 5.83669C5.83766 5.83669 5.83766 5.83669 5.83766 5.83669C5.83766 5.83669 5.83766 5.83669 5.83766 5.83669C5.83766 5.83669 5.83766 5.83669 5.83766 5.83669C5.83766 5.83669 5.83766 5.83669 5.83766 5.83669C5.83766 5.83669 5.83766 5.83669 5.83766 5.83669C5.83766 5.83669 5.83766 5.83669 5.83766 5.83669C5.83766 5.83669 5.83766 5.83669 5.83766 5.83669C5.83766 5.83669 5.83766 5.83669 5.83766 5.83669C5.83766 5.83669 5.83766 5.83669 5.83766 5.83669C5.83766 5.83669 5.83766 5.83669 5.83766 5.83669C5.83766 5.83669 5.83766 5.83669 5.83766 5.83669C5.83766 5.83669 5.83766 5.83669 5.83766 5.83669C5.83766 5.83669 5.83766 5.83669 5.83766 5.83669C5.83766 5.83669 5.83766 5.83669 5.83766 5.83669C5.83766 5.83669 5.83766 5.83669 5.83766 5.83669C5.83766 5.83669 5.83766 5.83669 5.83766 5.8367C5.83766 5.8367 5.83766 5.8367 5.83766 5.8367C5.83766 5.8367 5.83766 5.8367 5.83766 5.8367C5.83766 5.8367 5.83766 5.8367 5.83766 5.8367C5.83766 5.8367 5.83766 5.8367 5.83766 5.8367C5.83766 5.8367 5.83766 5.8367 5.83766 5.8367C5.83766 5.8367 5.83766 5.8367 5.83766 5.8367C5.83766 5.8367 5.83766 5.8367 5.83766 5.8367C5.83766 5.8367 5.83766 5.8367 5.83766 5.8367C5.83766 5.8367 5.83766 5.8367 5.83766 5.8367C5.83766 5.8367 5.83766 5.8367 5.83766 5.8367C5.83766 5.8367 5.83766 5.8367 5.83766 5.8367C5.83766 5.8367 5.83766 5.8367 5.83766 5.8367C5.83766 5.8367 5.83766 5.8367 5.83766 5.8367C5.83766 5.8367 5.83766 5.8367 5.83766 5.8367C5.83766 5.8367 5.83766 5.8367 5.83766 5.8367C5.83766 5.8367 5.83766 5.8367 5.83766 5.8367C5.83766 5.8367 5.83766 5.8367 5.83766 5.8367C5.83766 5.8367 5.83766 5.8367 5.83766 5.8367C5.83766 5.8367 5.83766 5.8367 5.83766 5.8367C5.83766 5.8367 5.83766 5.8367 5.83766 5.8367C5.83766 5.8367 5.83766 5.8367 5.83766 5.8367C5.83766 5.8367 5.83766 5.8367 5.83766 5.8367C5.83766 5.8367 5.83766 5.8367 5.83766 5.8367C5.83766 5.8367 5.83766 5.8367 5.83766 5.8367C5.83766 5.8367 5.83766 5.8367 5.83766 5.8367C5.83766 5.8367 5.83766 5.8367 5.83766 5.8367C5.83766 5.8367 5.83766 5.8367 5.83766 5.8367C5.83766 5.8367 5.83766 5.8367 5.83766 5.8367C5.83766 5.8367 5.83766 5.8367 5.83766 5.8367C5.83766 5.8367 5.83766 5.8367 5.83766 5.8367C5.83766 5.8367 5.83766 5.8367 5.83766 5.8367C5.83766 5.8367 5.83766 5.8367 5.83766 5.8367C5.83766 5.8367 5.83766 5.8367 5.83766 5.8367C5.83766 5.8367 5.83766 5.8367 5.83766 5.8367C5.83766 5.8367 5.83766 5.8367 5.83766 5.8367C5.83766 5.8367 5.83766 5.8367 5.83766 5.8367C5.83766 5.8367 5.83766 5.8367 5.83766 5.8367C5.83766 5.8367 5.83766 5.8367 5.83766 5.8367C5.83766 5.8367 5.83766 5.8367 5.83766 5.8367C5.83766 5.8367 5.83766 5.8367 5.83766 5.8367C5.83766 5.8367 5.83766 5.8367 5.83766 5.8367C5.83766 5.8367 5.83766 5.8367 5.83766 5.8367C5.83766 5.8367 5.83766 5.8367 5.83766 5.8367C5.83766 5.8367 5.83766 5.8367 5.83766 5.8367C5.83766 5.8367 5.83766 5.8367 5.83766 5.8367C5.83766 5.8367 5.83766 5.8367 5.83766 5.8367C5.83766 5.8367 5.83766 5.8367 5.83766 5.8367C5.83766 5.8367 5.83766 5.8367 5.83766 5.8367C5.83766 5.8367 5.83766 5.8367 5.83766 5.8367C5.83766 5.8367 5.83766 5.8367 5.83766 5.8367C5.83766 5.8367 5.83766 5.8367 5.83766 5.8367C5.83766 5.8367 5.83766 5.8367 5.83766 5.8367C5.83766 5.8367 5.83766 5.8367 5.83766 5.8367C5.83766 5.8367 5.83766 5.8367 5.83766 5.8367C5.83766 5.8367 5.83766 5.8367 5.83766 5.8367C5.83766 5.8367 5.83766 5.8367 5.83766 5.8367C5.83766 5.8367 5.83766 5.8367 8.66608 8.66513C8.66608 8.66513 8.66608 8.66513 8.66608 8.66513C8.66608 8.66513 8.66608 8.66513 8.66608 8.66513C8.66608 8.66513 8.66608 8.66513 8.66608 8.66513C8.66608 8.66513 8.66608 8.66513 8.66608 8.66513C8.66608 8.66513 8.66608 8.66513 8.66608 8.66513C8.66608 8.66513 8.66608 8.66513 8.66608 8.66513C8.66608 8.66513 8.66608 8.66513 8.66608 8.66513C8.66608 8.66513 8.66608 8.66513 8.66608 8.66513C8.66608 8.66513 8.66608 8.66513 8.66608 8.66513C8.66608 8.66513 8.66608 8.66513 8.66608 8.66513C8.66608 8.66513 8.66608 8.66513 8.66608 8.66513C8.66608 8.66513 8.66608 8.66513 8.66608 8.66513C8.66608 8.66513 8.66608 8.66513 8.66608 8.66513C8.66608 8.66513 8.66608 8.66513 8.66608 8.66513C8.66608 8.66513 8.66608 8.66513 8.66608 8.66513C8.66608 8.66513 8.66608 8.66513 8.66608 8.66513C8.66608 8.66513 8.66608 8.66513 8.66608 8.66513C8.66608 8.66513 8.66608 8.66513 8.66608 8.66513C8.66608 8.66513 8.66608 8.66513 8.66608 8.66513C8.66608 8.66513 8.66608 8.66513 8.66608 8.66513C8.66608 8.66513 8.66608 8.66513 8.66608 8.66513C8.66608 8.66513 8.66608 8.66513 8.66608 8.66513C8.66608 8.66513 8.66608 8.66513 8.66608 8.66513C8.66608 8.66513 8.66608 8.66513 8.66608 8.66513C8.66608 8.66513 8.66608 8.66513 8.66608 8.66513C8.66608 8.66513 8.66608 8.66513 8.66608 8.66513C8.66608 8.66513 8.66608 8.66513 8.66608 8.66513C8.66608 8.66513 8.66608 8.66513 8.66608 8.66513C8.66608 8.66513 8.66608 8.66513 8.66608 8.66513C8.66608 8.66513 8.66608 8.66513 8.66608 8.66513C8.66608 8.66513 8.66608 8.66513 8.66608 8.66513C8.66608 8.66513 8.66608 8.66513 8.66608 8.66513C8.66608 8.66512 8.66608 8.66512 8.66608 8.66512C8.66608 8.66512 8.66608 8.66512 8.66608 8.66512C8.66608 8.66512 8.66608 8.66512 8.66608 8.66512C8.66608 8.66512 8.66608 8.66512 8.66608 8.66512C8.66609 8.66512 8.66609 8.66512 8.66609 8.66512C8.66609 8.66512 8.66609 8.66512 8.66609 8.66512C8.66609 8.66512 8.66609 8.66512 8.66609 8.66512C8.66609 8.66512 8.66609 8.66512 8.66609 8.66512C8.66609 8.66512 8.66609 8.66512 8.66609 8.66512C8.66609 8.66512 8.66609 8.66512 8.66609 8.66512C8.66609 8.66512 8.66609 8.66512 8.66609 8.66512C8.66609 8.66512 8.66609 8.66512 8.66609 8.66512C8.66609 8.66512 8.66609 8.66512 8.66609 8.66512C8.66609 8.66512 8.66609 8.66512 8.66609 8.66512C8.66609 8.66512 8.66609 8.66512 8.66609 8.66512C8.66609 8.66512 8.66609 8.66512 8.66609 8.66512C8.66609 8.66512 8.66609 8.66512 8.66609 8.66512C8.66609 8.66512 8.66609 8.66512 8.66609 8.66512C8.66609 8.66512 8.66609 8.66512 8.66609 8.66512C8.66609 8.66512 8.66609 8.66512 8.66609 8.66512C8.66609 8.66512 8.66609 8.66512 8.66609 8.66512C8.66609 8.66512 8.66609 8.66512 8.66609 8.66512C8.66609 8.66512 8.66609 8.66512 8.66609 8.66512C8.66609 8.66512 8.66609 8.66512 8.66609 8.66512C8.66609 8.66512 8.66609 8.66512 8.66609 8.66512C8.66609 8.66512 8.66609 8.66512 8.66609 8.66512C8.66609 8.66512 8.66609 8.66512 8.66609 8.66512C8.66609 8.66512 8.66609 8.66512 8.66609 8.66512C8.66609 8.66512 8.66609 8.66512 8.66609 8.66512C8.66609 8.66512 8.66609 8.66512 8.66609 8.66512C8.66609 8.66512 8.66609 8.66512 8.66609 8.66512C8.66609 8.66512 8.66609 8.66512 8.66609 8.66512C8.66609 8.66512 8.66609 8.66512 8.66609 8.66512C8.66609 8.66512 8.66609 8.66512 8.66609 8.66512C8.66609 8.66512 8.66609 8.66512 8.66609 8.66512C8.66609 8.66512 8.66609 8.66512 8.66609 8.66512C8.66609 8.66512 8.66609 8.66512 8.66609 8.66512C8.66609 8.66512 8.66609 8.66512 8.66609 8.66512C8.66609 8.66512 8.66609 8.66512 8.66609 8.66512C8.66609 8.66512 8.66609 8.66512 8.66609 8.66512C8.66609 8.66512 8.66609 8.66512 8.66609 8.66512C8.66609 8.66512 8.66609 8.66512 8.66609 8.66512C8.66609 8.66512 8.66609 8.66512 8.66609 8.66512C8.66609 8.66512 8.66609 8.66512 8.66609 8.66512C8.66609 8.66512 8.66609 8.66512 8.66609 8.66512C8.66609 8.66512 8.66609 8.66511 8.66609 8.66511C8.66609 8.66511 8.66609 8.66511 8.6661 8.66511C8.6661 8.66511 8.6661 8.66511 8.6661 8.66511C8.6661 8.66511 8.6661 8.66511 8.6661 8.66511C8.6661 8.66511 8.6661 8.66511 8.6661 8.66511C8.6661 8.66511 8.6661 8.66511 8.6661 8.66511C8.6661 8.66511 8.6661 8.66511 8.6661 8.66511C8.6661 8.66511 8.6661 8.66511 8.6661 8.66511C8.6661 8.66511 8.6661 8.66511 8.6661 8.66511C8.6661 8.66511 8.6661 8.66511 8.6661 8.66511C8.6661 8.66511 8.6661 8.66511 8.6661 8.66511C8.6661 8.66511 8.6661 8.66511 8.6661 8.66511C8.6661 8.66511 8.6661 8.66511 8.6661 8.66511C8.6661 8.66511 8.6661 8.66511 8.6661 8.66511C8.6661 8.66511 8.6661 8.66511 8.6661 8.66511C8.6661 8.66511 8.6661 8.66511 8.6661 8.66511C8.6661 8.66511 8.6661 8.66511 8.6661 8.66511C8.6661 8.66511 8.6661 8.66511 8.6661 8.66511C8.6661 8.66511 8.6661 8.66511 8.6661 8.66511C8.6661 8.66511 8.6661 8.66511 8.6661 8.66511C8.6661 8.66511 8.6661 8.66511 8.6661 8.66511C8.6661 8.66511 8.6661 8.66511 8.6661 8.66511C8.6661 8.66511 8.6661 8.66511 8.6661 8.66511C8.6661 8.66511 8.6661 8.66511 8.6661 8.66511C8.6661 8.66511 8.6661 8.66511 8.6661 8.66511C8.6661 8.66511 8.6661 8.6651 8.6661 8.6651C8.6661 8.6651 8.6661 8.6651 8.66611 8.6651C8.66611 8.6651 8.66611 8.6651 8.66611 8.6651C8.66611 8.6651 8.66611 8.6651 8.66611 8.6651C8.66611 8.6651 8.66611 8.6651 8.66611 8.6651C8.66611 8.6651 8.66611 8.6651 8.66611 8.6651L5.83768 5.83668C5.83768 5.83668 5.83768 5.83668 5.83768 5.83668C5.83768 5.83668 5.83768 5.83668 5.83768 5.83668C5.83768 5.83668 5.83768 5.83668 5.83768 5.83668C5.83768 5.83668 5.83768 5.83668 5.83768 5.83668C5.83768 5.83668 5.83768 5.83668 5.83768 5.83668C5.83768 5.83668 5.83768 5.83668 5.83768 5.83668C5.83768 5.83668 5.83768 5.83668 5.83768 5.83668C5.83768 5.83668 5.83768 5.83668 5.83768 5.83668C5.83768 5.83668 5.83768 5.83668 5.83768 5.83668C5.83768 5.83668 5.83768 5.83668 5.83768 5.83668C5.83768 5.83668 5.83767 5.83668 5.83767 5.83668C5.83767 5.83668 5.83767 5.83668 5.83767 5.83668C5.83767 5.83668 5.83767 5.83668 5.83767 5.83668C5.83767 5.83668 5.83767 5.83668 5.83767 5.83668C5.83767 5.83668 5.83767 5.83668 5.83767 5.83668C5.83767 5.83668 5.83767 5.83668 5.83767 5.83668C5.83767 5.83668 5.83767 5.83668 5.83767 5.83668C5.83767 5.83668 5.83767 5.83668 5.83767 5.83668C5.83767 5.83668 5.83767 5.83668 5.83767 5.83668C5.83767 5.83668 5.83767 5.83668 5.83767 5.83668C5.83767 5.83668 5.83767 5.83668 5.83767 5.83668C5.83767 5.83668 5.83767 5.83668 5.83767 5.83668C5.83767 5.83668 5.83767 5.83669 5.83767 5.83669C5.83767 5.83669 5.83767 5.83669 5.83767 5.83669C5.83767 5.83669 5.83767 5.83669 5.83767 5.83669C5.83767 5.83669 5.83767 5.83669 5.83767 5.83669C5.83767 5.83669 5.83767 5.83669 5.83767 5.83669C5.83767 5.83669 5.83767 5.83669 5.83767 5.83669C5.83767 5.83669 5.83767 5.83669 5.83767 5.83669C5.83767 5.83669 5.83767 5.83669 5.83767 5.83669C5.83767 5.83669 5.83767 5.83669 5.83767 5.83669C5.83767 5.83669 5.83767 5.83669 5.83767 5.83669C5.83767 5.83669 5.83767 5.83669 5.83767 5.83669C5.83767 5.83669 5.83767 5.83669 5.83767 5.83669C5.83767 5.83669 5.83767 5.83669 5.83767 5.83669C5.83767 5.83669 5.83767 5.83669 5.83767 5.83669C5.83767 5.83669 5.83767 5.83669 5.83767 5.83669C5.83767 5.83669 5.83767 5.83669 5.83767 5.83669C5.83766 5.83669 5.83766 5.83669 5.83766 5.83669C5.83766 5.83669 5.83766 5.83669 5.83766 5.83669C5.83766 5.83669 5.83766 5.83669 5.83766 5.83669C5.83766 5.83669 5.83766 5.83669 5.83766 5.83669C5.83766 5.83669 5.83766 5.83669 5.83766 5.83669C5.83766 5.83669 5.83766 5.83669 5.83766 5.83669C5.83766 5.83669 5.83766 5.83669 5.83766 5.83669C5.83766 5.83669 5.83766 5.83669 5.83766 5.83669C5.83766 5.83669 5.83766 5.83669 5.83766 5.83669C5.83766 5.83669 5.83766 5.83669 5.83766 5.83669C5.83766 5.83669 5.83766 5.83669 5.83766 5.83669C5.83766 5.83669 5.83766 5.83669 5.83766 5.83669C5.83766 5.83669 5.83766 5.83669 5.83766 5.83669C5.83766 5.83669 5.83766 5.83669 5.83766 5.83669C5.83766 5.83669 5.83766 5.83669 5.83766 5.83669C5.83766 5.83669 5.83766 5.83669 5.83766 5.83669C5.83766 5.83669 5.83766 5.83669 5.83766 5.83669C5.83766 5.83669 5.83766 5.83669 5.83766 5.83669C5.83766 5.83669 5.83766 5.83669 5.83766 5.83669C5.83766 5.83669 5.83766 5.83669 5.83766 5.8367C5.83766 5.8367 5.83766 5.8367 5.83766 5.8367C5.83766 5.8367 5.83766 5.8367 5.83766 5.8367C5.83766 5.8367 5.83766 5.8367 5.83766 5.8367C5.83766 5.8367 5.83766 5.8367 5.83766 5.8367C5.83766 5.8367 5.83766 5.8367 5.83766 5.8367C5.83766 5.8367 5.83766 5.8367 5.83766 5.8367C5.83766 5.8367 5.83766 5.8367 5.83766 5.8367C5.83766 5.8367 5.83766 5.8367 5.83766 5.8367C5.83766 5.8367 5.83766 5.8367 5.83766 5.8367C5.83766 5.8367 5.83766 5.8367 5.83766 5.8367C5.83766 5.8367 5.83766 5.8367 5.83766 5.8367C5.83766 5.8367 5.83766 5.8367 5.83766 5.8367C5.83766 5.8367 5.83766 5.8367 5.83766 5.8367C5.83766 5.8367 5.83766 5.8367 5.83766 5.8367C5.83766 5.8367 5.83766 5.8367 5.83766 5.8367C5.83766 5.8367 5.83766 5.8367 5.83766 5.8367C5.83766 5.8367 5.83766 5.8367 5.83766 5.8367C5.83766 5.8367 5.83766 5.8367 5.83766 5.8367C5.83766 5.8367 5.83766 5.8367 5.83766 5.8367C5.83766 5.8367 5.83766 5.8367 5.83766 5.8367C5.83766 5.8367 5.83766 5.8367 5.83766 5.8367C5.83766 5.8367 5.83766 5.8367 5.83766 5.8367C5.83766 5.8367 5.83766 5.8367 5.83766 5.8367C5.83766 5.8367 5.83766 5.8367 5.83766 5.8367C5.83766 5.8367 5.83766 5.8367 5.83766 5.8367C5.83766 5.8367 5.83766 5.8367 5.83766 5.8367C5.83766 5.8367 5.83766 5.8367 5.83766 5.8367C5.83766 5.8367 5.83766 5.8367 5.83766 5.8367C5.83766 5.8367 5.83766 5.8367 5.83766 5.8367C5.83766 5.8367 5.83766 5.8367 5.83766 5.8367C5.83766 5.8367 5.83766 5.8367 5.83766 5.8367C5.83766 5.8367 5.83766 5.8367 5.83766 5.8367C5.83766 5.8367 5.83766 5.8367 5.83766 5.8367C5.83766 5.8367 5.83766 5.8367 5.83766 5.8367C5.83766 5.8367 5.83766 5.8367 5.83766 5.8367C5.83766 5.8367 5.83766 5.8367 5.83766 5.8367C5.83766 5.8367 5.83766 5.8367 5.83766 5.8367C5.83766 5.8367 5.83766 5.8367 5.83766 5.8367C5.83766 5.8367 5.83766 5.8367 5.83766 5.8367C5.83766 5.8367 5.83766 5.8367 5.83766 5.8367C5.83766 5.8367 5.83766 5.8367 5.83766 5.8367C5.83766 5.8367 5.83766 5.8367 5.83766 5.8367C5.83766 5.8367 5.83766 5.8367 5.83766 5.8367C5.83766 5.8367 5.83766 5.8367 5.83766 5.8367C5.83766 5.8367 5.83766 5.8367 5.83766 5.8367C5.83766 5.8367 5.83766 5.8367 5.83766 5.8367C5.83766 5.8367 5.83766 5.8367 5.83766 5.8367C5.83766 5.8367 5.83766 5.8367 5.83766 5.8367C5.83766 5.8367 5.83766 5.8367 5.83766 5.8367C5.83766 5.8367 5.83766 5.8367 5.83766 5.8367C8.66608 8.66513 8.66608 8.66513 8.66608 8.66513C8.66608 8.66513 8.66608 8.66513 8.66608 8.66513C8.66608 8.66513 8.66608 8.66513 8.66608 8.66513C8.66608 8.66513 8.66608 8.66513 8.66608 8.66513C8.66608 8.66513 8.66608 8.66513 8.66608 8.66513C8.66608 8.66513 8.66608 8.66513 8.66608 8.66513C8.66608 8.66513 8.66608 8.66513 8.66608 8.66513C8.66608 8.66513 8.66608 8.66513 8.66608 8.66513C8.66608 8.66513 8.66608 8.66513 8.66608 8.66513C8.66608 8.66513 8.66608 8.66513 8.66608 8.66513C8.66608 8.66513 8.66608 8.66513 8.66608 8.66513C8.66608 8.66513 8.66608 8.66513 8.66608 8.66513C8.66608 8.66513 8.66608 8.66513 8.66608 8.66513C8.66608 8.66513 8.66608 8.66513 8.66608 8.66513C8.66608 8.66513 8.66608 8.66513 8.66608 8.66513C8.66608 8.66513 8.66608 8.66513 8.66608 8.66513C8.66608 8.66513 8.66608 8.66513 8.66608 8.66513C8.66608 8.66513 8.66608 8.66513 8.66608 8.66513C8.66608 8.66513 8.66608 8.66513 8.66608 8.66513C8.66608 8.66513 8.66608 8.66513 8.66608 8.66513C8.66608 8.66513 8.66608 8.66513 8.66608 8.66513C8.66608 8.66513 8.66608 8.66513 8.66608 8.66513C8.66608 8.66513 8.66608 8.66513 8.66608 8.66513C8.66608 8.66513 8.66608 8.66513 8.66608 8.66513C8.66608 8.66513 8.66608 8.66513 8.66608 8.66513C8.66608 8.66513 8.66608 8.66513 8.66608 8.66513C8.66608 8.66513 8.66608 8.66513 8.66608 8.66513C8.66608 8.66513 8.66608 8.66513 8.66608 8.66513C8.66608 8.66513 8.66608 8.66513 8.66608 8.66513C8.66608 8.66513 8.66608 8.66513 8.66608 8.66513C8.66608 8.66513 8.66608 8.66513 8.66608 8.66513C8.66608 8.66513 8.66608 8.66513 8.66608 8.66513C8.66608 8.66513 8.66608 8.66513 8.66608 8.66513C8.66608 8.66513 8.66608 8.66513 8.66608 8.66513C8.66608 8.66513 8.66608 8.66513 8.66608 8.66513C8.66608 8.66512 8.66608 8.66512 8.66608 8.66512C8.66608 8.66512 8.66608 8.66512 8.66608 8.66512C8.66608 8.66512 8.66608 8.66512 8.66608 8.66512C8.66608 8.66512 8.66608 8.66512 8.66608 8.66512C8.66608 8.66512 8.66608 8.66512 8.66609 8.66512C8.66609 8.66512 8.66609 8.66512 8.66609 8.66512C8.66609 8.66512 8.66609 8.66512 8.66609 8.66512C8.66609 8.66512 8.66609 8.66512 8.66609 8.66512C8.66609 8.66512 8.66609 8.66512 8.66609 8.66512C8.66609 8.66512 8.66609 8.66512 8.66609 8.66512C8.66609 8.66512 8.66609 8.66512 8.66609 8.66512C8.66609 8.66512 8.66609 8.66512 8.66609 8.66512C8.66609 8.66512 8.66609 8.66512 8.66609 8.66512C8.66609 8.66512 8.66609 8.66512 8.66609 8.66512C8.66609 8.66512 8.66609 8.66512 8.66609 8.66512C8.66609 8.66512 8.66609 8.66512 8.66609 8.66512C8.66609 8.66512 8.66609 8.66512 8.66609 8.66512C8.66609 8.66512 8.66609 8.66512 8.66609 8.66512C8.66609 8.66512 8.66609 8.66512 8.66609 8.66512C8.66609 8.66512 8.66609 8.66512 8.66609 8.66512C8.66609 8.66512 8.66609 8.66512 8.66609 8.66512C8.66609 8.66512 8.66609 8.66512 8.66609 8.66512C8.66609 8.66512 8.66609 8.66512 8.66609 8.66512C8.66609 8.66512 8.66609 8.66512 8.66609 8.66512C8.66609 8.66512 8.66609 8.66512 8.66609 8.66512C8.66609 8.66512 8.66609 8.66512 8.66609 8.66512C8.66609 8.66512 8.66609 8.66512 8.66609 8.66512C8.66609 8.66512 8.66609 8.66512 8.66609 8.66512C8.66609 8.66512 8.66609 8.66512 8.66609 8.66512C8.66609 8.66512 8.66609 8.66512 8.66609 8.66512C8.66609 8.66512 8.66609 8.66512 8.66609 8.66512C8.66609 8.66512 8.66609 8.66512 8.66609 8.66512C8.66609 8.66512 8.66609 8.66512 8.66609 8.66512C8.66609 8.66512 8.66609 8.66512 8.66609 8.66512C8.66609 8.66512 8.66609 8.66512 8.66609 8.66512C8.66609 8.66512 8.66609 8.66512 8.66609 8.66512C8.66609 8.66512 8.66609 8.66512 8.66609 8.66512C8.66609 8.66512 8.66609 8.66512 8.66609 8.66512C8.66609 8.66512 8.66609 8.66512 8.66609 8.66512C8.66609 8.66512 8.66609 8.66512 8.66609 8.66512C8.66609 8.66512 8.66609 8.66512 8.66609 8.66512C8.66609 8.66512 8.66609 8.66512 8.66609 8.66512C8.66609 8.66512 8.66609 8.66512 8.66609 8.66512C8.66609 8.66512 8.66609 8.66512 8.66609 8.66512C8.66609 8.66512 8.66609 8.66512 8.66609 8.66512C8.66609 8.66512 8.66609 8.66512 8.66609 8.66512C8.66609 8.66512 8.66609 8.66512 8.66609 8.66512C8.66609 8.66512 8.66609 8.66512 8.66609 8.66512C8.66609 8.66512 8.66609 8.66512 8.66609 8.66512C8.66609 8.66512 8.66609 8.66512 8.66609 8.66512C8.66609 8.66512 8.66609 8.66512 8.66609 8.66512C8.66609 8.66512 8.66609 8.66512 8.66609 8.66512C8.66609 8.66512 8.66609 8.66512 8.66609 8.66512C8.66609 8.66512 8.66609 8.66512 8.66609 8.66512C8.66609 8.66512 8.66609 8.66512 8.66609 8.66512C8.66609 8.66512 8.66609 8.66512 8.66609 8.66512C8.66609 8.66512 8.66609 8.66512 8.66609 8.66512C8.66609 8.66512 8.66609 8.66512 8.66609 8.66512C8.66609 8.66512 8.66609 8.66512 8.66609 8.66512C8.66609 8.66512 8.66609 8.66512 8.66609 8.66512C8.66609 8.66511 8.66609 8.66511 8.66609 8.66511C8.66609 8.66511 8.66609 8.66511 8.66609 8.66511C8.66609 8.66511 8.6661 8.66511 8.6661 8.66511C8.6661 8.66511 8.6661 8.66511 8.6661 8.66511C8.6661 8.66511 8.6661 8.66511 8.6661 8.66511C8.6661 8.66511 8.6661 8.66511 8.6661 8.66511C8.6661 8.66511 8.6661 8.66511 8.6661 8.66511C8.6661 8.66511 8.6661 8.66511 8.6661 8.66511C8.6661 8.66511 8.6661 8.66511 8.6661 8.66511C8.6661 8.66511 8.6661 8.66511 8.6661 8.66511C8.6661 8.66511 8.6661 8.66511 8.6661 8.66511C8.6661 8.66511 8.6661 8.66511 8.6661 8.66511C8.6661 8.66511 8.6661 8.66511 8.6661 8.66511C8.6661 8.66511 8.6661 8.66511 8.6661 8.66511C8.6661 8.66511 8.6661 8.66511 8.6661 8.66511C8.6661 8.66511 8.6661 8.66511 8.6661 8.66511C8.6661 8.66511 8.6661 8.66511 8.6661 8.66511C8.6661 8.66511 8.6661 8.66511 8.6661 8.66511C8.6661 8.66511 8.6661 8.66511 8.6661 8.66511C8.6661 8.66511 8.6661 8.66511 8.6661 8.66511C8.6661 8.66511 8.6661 8.66511 8.6661 8.66511C8.6661 8.66511 8.6661 8.66511 8.6661 8.66511C8.6661 8.66511 8.6661 8.66511 8.6661 8.66511C8.6661 8.66511 8.6661 8.66511 8.6661 8.66511C8.6661 8.66511 8.6661 8.66511 8.6661 8.66511C8.6661 8.66511 8.6661 8.66511 8.6661 8.66511C8.6661 8.66511 8.6661 8.66511 8.6661 8.66511C8.6661 8.66511 8.6661 8.66511 8.6661 8.66511C8.6661 8.66511 8.6661 8.66511 8.6661 8.66511C8.6661 8.66511 8.6661 8.66511 8.6661 8.66511C8.6661 8.66511 8.6661 8.66511 8.6661 8.66511C8.6661 8.66511 8.6661 8.66511 8.6661 8.66511C8.6661 8.66511 8.6661 8.66511 8.6661 8.66511C8.6661 8.66511 8.6661 8.66511 8.6661 8.66511C8.6661 8.66511 8.6661 8.66511 8.6661 8.66511C8.6661 8.66511 8.6661 8.66511 8.6661 8.66511C8.6661 8.66511 8.6661 8.66511 8.6661 8.66511C8.6661 8.66511 8.6661 8.66511 8.6661 8.66511C8.6661 8.66511 8.6661 8.66511 8.6661 8.66511C8.6661 8.66511 8.6661 8.66511 8.6661 8.66511C8.6661 8.66511 8.6661 8.66511 8.6661 8.66511C8.6661 8.66511 8.6661 8.66511 8.6661 8.66511C8.6661 8.66511 8.6661 8.6651 8.6661 8.6651C8.6661 8.6651 8.6661 8.6651 8.6661 8.6651C8.6661 8.6651 8.66611 8.6651 8.66611 8.6651C8.66611 8.6651 8.66611 8.6651 8.66611 8.6651C8.66611 8.6651 8.66611 8.6651 8.66611 8.6651C8.66611 8.6651 8.66611 8.6651 8.66611 8.6651C8.66611 8.6651 8.66611 8.6651 8.66611 8.6651C8.66611 8.6651 8.66611 8.6651 8.66611 8.6651C8.66611 8.6651 8.66611 8.6651 8.66611 8.6651C8.66611 8.6651 8.66611 8.6651 8.66611 8.6651C8.66611 8.6651 8.66611 8.6651 8.66611 8.6651C8.66611 8.6651 8.66611 8.6651 8.66611 8.6651C8.66611 8.6651 8.66611 8.6651 8.66611 8.6651C8.66611 8.6651 8.66611 8.6651 8.66611 8.6651C8.66611 8.6651 8.66611 8.6651 8.66611 8.6651C8.66611 8.6651 8.66611 8.6651 8.66611 8.6651C8.66611 8.6651 8.66611 8.6651 8.66611 8.6651C8.66611 8.6651 8.66611 8.6651 8.66611 8.6651C8.66611 8.6651 8.66611 8.6651 8.66611 8.6651C8.66611 8.6651 8.66611 8.6651 8.66611 8.6651C8.66611 8.6651 8.66611 8.6651 8.66611 8.6651C8.66611 8.6651 8.66611 8.6651 8.66611 8.6651C8.66611 8.6651 8.66611 8.6651 8.66611 8.6651C8.66611 8.6651 8.66611 8.6651 8.66611 8.6651C8.66611 8.6651 8.66611 8.6651 8.66611 8.6651C8.66611 8.6651 8.66611 8.6651 8.66611 8.6651C8.66611 8.6651 8.66611 8.6651 8.66611 8.6651C8.66611 8.6651 8.66611 8.6651 8.66611 8.6651C8.66611 8.6651 8.66611 8.6651 8.66611 8.6651C8.66611 8.6651 8.66611 8.6651 8.66611 8.6651C8.66611 8.6651 8.66611 8.6651 8.66611 8.6651C8.66611 8.6651 8.66611 8.6651 8.66611 8.6651C8.66611 8.6651 8.66611 8.6651 8.66611 8.6651C8.66611 8.6651 8.66611 8.6651 8.66611 8.6651C8.66611 8.6651 8.66611 8.6651 8.66611 8.6651C8.66611 8.6651 8.66611 8.6651 8.66611 8.6651C8.66611 8.6651 8.66611 8.6651 8.66611 8.6651C8.66611 8.6651 8.66611 8.6651 8.66611 8.6651C8.66611 8.6651 8.66611 8.6651 8.66611 8.6651C8.66611 8.6651 8.66611 8.6651 8.66611 8.6651C8.66611 8.6651 8.66611 8.6651 8.66611 8.6651C8.66611 8.66509 8.66611 8.66509 8.66611 8.66509C8.66611 8.66509 8.66611 8.66509 8.66611 8.66509C8.66611 8.66509 8.66612 8.66509 8.66612 8.66509C8.66612 8.66509 8.66612 8.66509 8.66612 8.66509C8.66612 8.66509 8.66612 8.66509 8.66612 8.66509C8.66612 8.66509 8.66612 8.66509 8.66612 8.66509C8.66612 8.66509 8.66612 8.66509 8.66612 8.66509C8.66612 8.66509 8.66612 8.66509 8.66612 8.66509C8.66612 8.66509 8.66612 8.66509 8.66612 8.66509C8.66612 8.66509 8.66612 8.66509 8.66612 8.66509C8.66612 8.66509 8.66612 8.66509 8.66612 8.66509C8.66612 8.66509 8.66612 8.66509 8.66612 8.66509C8.66612 8.66509 8.66612 8.66509 8.66612 8.66509C8.66612 8.66509 8.66612 8.66509 8.66612 8.66509C8.66612 8.66509 8.66612 8.66509 8.66612 8.66509C8.66612 8.66509 8.66612 8.66509 8.66612 8.66509C8.66612 8.66509 8.66612 8.66509 8.66612 8.66509C8.66612 8.66509 8.66612 8.66509 8.66612 8.66509C8.66612 8.66509 8.66612 8.66509 8.66612 8.66509C8.66612 8.66509 8.66612 8.66509 8.66612 8.66509C8.66612 8.66509 8.66612 8.66509 8.66612 8.66509C8.66612 8.66509 8.66612 8.66509 8.66612 8.66509C8.66612 8.66509 8.66612 8.66509 8.66612 8.66509C8.66612 8.66509 8.66612 8.66509 8.66612 8.66509C8.66612 8.66509 8.66612 8.66509 8.66612 8.66509C8.66612 8.66509 8.66612 8.66509 8.66612 8.66509C8.66612 8.66509 8.66612 8.66509 8.66612 8.66509C8.66612 8.66509 8.66612 8.66509 8.66612 8.66509C8.66612 8.66509 8.66612 8.66509 8.66612 8.66509C8.66612 8.66509 8.66612 8.66509 8.66612 8.66509C8.66612 8.66509 8.66612 8.66509 8.66612 8.66509C8.66612 8.66509 8.66612 8.66509 8.66612 8.66509C8.66612 8.66509 8.66612 8.66509 8.66612 8.66509C8.66612 8.66509 8.66612 8.66509 8.66612 8.66509C8.66612 8.66509 8.66612 8.66509 8.66612 8.66509C8.66612 8.66509 8.66612 8.66509 8.66612 8.66509C8.66612 8.66509 8.66612 8.66509 8.66612 8.66509C8.66612 8.66509 8.66612 8.66509 8.66612 8.66509C8.66612 8.66509 8.66612 8.66509 8.66612 8.66509C8.66612 8.66509 8.66612 8.66509 8.66612 8.66509C8.66612 8.66509 8.66612 8.66509 8.66612 8.66509C8.66612 8.66509 8.66612 8.66509 8.66612 8.66509C8.66612 8.66509 8.66612 8.66509 8.66612 8.66509C8.66612 8.66509 8.66612 8.66509 8.66612 8.66509C8.66612 8.66509 8.66612 8.66509 8.66612 8.66509C8.66612 8.66509 8.66612 8.66509 8.66612 8.66509C8.66612 8.66509 8.66612 8.66509 8.66612 8.66508C8.66612 8.66508 8.66612 8.66508 8.66612 8.66508C8.66612 8.66508 8.66612 8.66508 8.66612 8.66508C8.66612 8.66508 8.66612 8.66508 8.66613 8.66508C8.66613 8.66508 8.66613 8.66508 8.66613 8.66508C8.66613 8.66508 8.66613 8.66508 8.66613 8.66508C8.66613 8.66508 8.66613 8.66508 8.66613 8.66508C8.66613 8.66508 8.66613 8.66508 8.66613 8.66508C8.66613 8.66508 8.66613 8.66508 8.66613 8.66508C8.66613 8.66508 8.66613 8.66508 8.66613 8.66508C8.66613 8.66508 8.66613 8.66508 8.66613 8.66508C8.66613 8.66508 8.66613 8.66508 8.66613 8.66508C8.66613 8.66508 8.66613 8.66508 8.66613 8.66508C8.66613 8.66508 8.66613 8.66508 8.66613 8.66508C8.66613 8.66508 8.66613 8.66508 8.66613 8.66508C8.66613 8.66508 8.66613 8.66508 8.66613 8.66508C8.66613 8.66508 8.66613 8.66508 8.66613 8.66508C8.66613 8.66508 8.66613 8.66508 8.66613 8.66508C8.66613 8.66508 8.66613 8.66508 8.66613 8.66508C8.66613 8.66508 8.66613 8.66508 8.66613 8.66508C8.66613 8.66508 8.66613 8.66508 8.66613 8.66508C8.66613 8.66508 8.66613 8.66508 8.66613 8.66508C8.66613 8.66508 8.66613 8.66508 8.66613 8.66508C8.66613 8.66508 8.66613 8.66508 8.66613 8.66508C8.66613 8.66508 8.66613 8.66508 8.66613 8.66508C8.66613 8.66508 8.66613 8.66508 8.66613 8.66508C8.66613 8.66508 8.66613 8.66508 8.66613 8.66508C8.66613 8.66508 8.66613 8.66508 8.66613 8.66508C8.66613 8.66508 8.66613 8.66508 8.66613 8.66508C8.66613 8.66508 8.66613 8.66508 8.66613 8.66508C8.66613 8.66508 8.66613 8.66508 8.66613 8.66508C8.66613 8.66508 8.66613 8.66508 8.66613 8.66508C8.66613 8.66508 8.66613 8.66508 8.66613 8.66508C8.66613 8.66508 8.66613 8.66508 8.66613 8.66508C8.66613 8.66508 8.66613 8.66508 8.66613 8.66508C8.66613 8.66508 8.66613 8.66508 8.66613 8.66508C8.66613 8.66508 8.66613 8.66508 8.66613 8.66508C8.66613 8.66508 8.66613 8.66508 8.66613 8.66508C8.66613 8.66508 8.66613 8.66508 8.66613 8.66508C8.66613 8.66508 8.66613 8.66508 8.66613 8.66508C8.66613 8.66508 8.66613 8.66508 8.66613 8.66508C8.66613 8.66508 8.66613 8.66508 8.66613 8.66508C8.66613 8.66508 8.66613 8.66508 8.66613 8.66508C8.66613 8.66508 8.66613 8.66508 8.66613 8.66508C8.66613 8.66508 8.66613 8.66508 8.66613 8.66508C8.66613 8.66508 8.66613 8.66508 8.66613 8.66508C8.66613 8.66508 8.66613 8.66508 8.66613 8.66508C8.66613 8.66508 8.66613 8.66508 8.66613 8.66508C8.66613 8.66508 8.66613 8.66508 8.66613 8.66508C8.66613 8.66508 8.66613 8.66508 8.66613 8.66508C8.66613 8.66508 8.66613 8.66508 8.66613 8.66508C8.66613 8.66508 8.66613 8.66508 8.66613 8.66508C8.66613 8.66508 8.66613 8.66508 8.66613 8.66508C8.66613 8.66508 8.66613 8.66508 8.66613 8.66508C8.66613 8.66508 8.66613 8.66508 8.66613 8.66508C8.66613 8.66508 8.66613 8.66508 8.66613 8.66508C8.66613 8.66508 8.66613 8.66508 8.66613 8.66508C8.66613 8.66508 8.66613 8.66508 8.66613 8.66508C8.66613 8.66508 8.66613 8.66508 8.66613 8.66508C8.66613 8.66508 8.66613 8.66508 8.66613 8.66508C8.66613 8.66508 8.66613 8.66508 8.66613 8.66508C8.66613 8.66508 8.66613 8.66508 8.66613 8.66508C8.66613 8.66508 8.66613 8.66508 8.66613 8.66508C8.66613 8.66508 8.66613 8.66508 8.66613 8.66508C8.66613 8.66508 8.66613 8.66508 8.66613 8.66508C8.66613 8.66508 8.66613 8.66508 8.66613 8.66508C8.66613 8.66508 8.66613 8.66508 8.66613 8.66508C8.66613 8.66508 8.66613 8.66508 8.66613 8.66508C8.66613 8.66508 8.66613 8.66508 8.66613 8.66508C8.66613 8.66508 8.66613 8.66508 8.66613 8.66508C8.66613 8.66508 8.66613 8.66508 8.66613 8.66508C8.66613 8.66508 8.66613 8.66508 5.8377 5.83665C5.8377 5.83665 5.8377 5.83665 5.8377 5.83665C5.8377 5.83665 5.8377 5.83665 5.8377 5.83665C5.8377 5.83665 5.8377 5.83665 5.8377 5.83665C5.8377 5.83665 5.8377 5.83665 5.8377 5.83665C5.8377 5.83665 5.8377 5.83665 5.8377 5.83665C5.8377 5.83665 5.8377 5.83665 5.8377 5.83665C5.8377 5.83665 5.8377 5.83665 5.8377 5.83665C5.8377 5.83665 5.8377 5.83665 5.8377 5.83665C5.8377 5.83665 5.8377 5.83665 5.8377 5.83665C5.8377 5.83665 5.8377 5.83665 5.8377 5.83665C5.8377 5.83665 5.8377 5.83665 5.8377 5.83665C5.8377 5.83665 5.8377 5.83665 5.8377 5.83665C5.8377 5.83665 5.8377 5.83665 5.8377 5.83665C5.8377 5.83665 5.8377 5.83665 5.8377 5.83665C5.8377 5.83665 5.8377 5.83665 5.8377 5.83665C5.8377 5.83665 5.8377 5.83665 5.8377 5.83665C5.8377 5.83665 5.8377 5.83665 5.8377 5.83665C5.8377 5.83665 5.8377 5.83665 5.8377 5.83665C5.8377 5.83665 5.8377 5.83665 5.8377 5.83665C5.8377 5.83665 5.8377 5.83665 5.8377 5.83665C5.8377 5.83665 5.8377 5.83665 5.8377 5.83665C5.8377 5.83665 5.8377 5.83665 5.8377 5.83665C5.8377 5.83665 5.8377 5.83665 5.8377 5.83665C5.8377 5.83665 5.8377 5.83665 5.8377 5.83665C5.8377 5.83665 5.8377 5.83665 5.8377 5.83665C5.8377 5.83665 5.8377 5.83665 5.8377 5.83665C5.8377 5.83665 5.8377 5.83665 5.8377 5.83665C5.8377 5.83665 5.8377 5.83665 5.8377 5.83665C5.8377 5.83665 5.8377 5.83665 5.8377 5.83665C5.8377 5.83665 5.8377 5.83665 5.8377 5.83665C5.8377 5.83665 5.8377 5.83665 5.8377 5.83665C5.8377 5.83665 5.8377 5.83665 5.8377 5.83665C5.8377 5.83665 5.8377 5.83665 5.8377 5.83665C5.8377 5.83665 5.8377 5.83665 5.8377 5.83665C5.8377 5.83665 5.8377 5.83665 5.8377 5.83665C5.8377 5.83665 5.8377 5.83665 5.8377 5.83665C5.8377 5.83665 5.8377 5.83665 5.8377 5.83665C5.8377 5.83665 5.8377 5.83665 5.8377 5.83665C5.8377 5.83665 5.8377 5.83665 5.8377 5.83665C5.8377 5.83665 5.8377 5.83665 5.8377 5.83665C5.8377 5.83665 5.8377 5.83665 5.8377 5.83665C5.8377 5.83665 5.8377 5.83665 5.8377 5.83665C5.8377 5.83665 5.8377 5.83665 5.8377 5.83665C5.8377 5.83665 5.8377 5.83665 5.8377 5.83665C5.8377 5.83665 5.8377 5.83665 5.8377 5.83665C5.8377 5.83665 5.8377 5.83665 5.8377 5.83665C5.8377 5.83665 5.8377 5.83665 5.8377 5.83665C5.8377 5.83665 5.8377 5.83666 5.8377 5.83666C5.8377 5.83666 5.8377 5.83666 5.8377 5.83666C5.8377 5.83666 5.8377 5.83666 5.8377 5.83666C5.8377 5.83666 5.8377 5.83666 5.8377 5.83666C5.8377 5.83666 5.8377 5.83666 5.8377 5.83666C5.8377 5.83666 5.8377 5.83666 5.8377 5.83666C5.8377 5.83666 5.8377 5.83666 5.8377 5.83666C5.8377 5.83666 5.8377 5.83666 5.8377 5.83666C5.8377 5.83666 5.8377 5.83666 5.8377 5.83666C5.8377 5.83666 5.8377 5.83666 5.8377 5.83666C5.8377 5.83666 5.8377 5.83666 5.8377 5.83666C5.8377 5.83666 5.8377 5.83666 5.8377 5.83666C5.8377 5.83666 5.8377 5.83666 5.8377 5.83666C5.8377 5.83666 5.8377 5.83666 5.8377 5.83666C5.8377 5.83666 5.8377 5.83666 5.8377 5.83666C5.8377 5.83666 5.8377 5.83666 5.8377 5.83666C5.8377 5.83666 5.8377 5.83666 5.8377 5.83666C5.8377 5.83666 5.8377 5.83666 5.8377 5.83666C5.8377 5.83666 5.8377 5.83666 5.8377 5.83666C5.8377 5.83666 5.8377 5.83666 5.8377 5.83666C5.8377 5.83666 5.8377 5.83666 5.8377 5.83666C5.8377 5.83666 5.8377 5.83666 5.8377 5.83666C5.8377 5.83666 5.83769 5.83666 5.83769 5.83666C5.83769 5.83666 5.83769 5.83666 5.83769 5.83666C5.83769 5.83666 5.83769 5.83666 5.83769 5.83666C5.83769 5.83666 5.83769 5.83666 5.83769 5.83666C5.83769 5.83666 5.83769 5.83666 5.83769 5.83666C5.83769 5.83666 5.83769 5.83666 5.83769 5.83666C5.83769 5.83666 5.83769 5.83666 5.83769 5.83666C5.83769 5.83666 5.83769 5.83666 5.83769 5.83666C5.83769 5.83666 5.83769 5.83666 5.83769 5.83666C5.83769 5.83666 5.83769 5.83666 5.83769 5.83666C5.83769 5.83666 5.83769 5.83666 5.83769 5.83666C5.83769 5.83666 5.83769 5.83666 5.83769 5.83666C5.83769 5.83666 5.83769 5.83666 5.83769 5.83666C5.83769 5.83666 5.83769 5.83666 5.83769 5.83666C5.83769 5.83666 5.83769 5.83666 5.83769 5.83666C5.83769 5.83667 5.83769 5.83667 5.83769 5.83667C5.83769 5.83667 5.83769 5.83667 5.83769 5.83667C5.83769 5.83667 5.83769 5.83667 5.83769 5.83667C5.83769 5.83667 5.83769 5.83667 5.83769 5.83667C5.83769 5.83667 5.83769 5.83667 5.83769 5.83667C5.83769 5.83667 5.83769 5.83667 5.83769 5.83667C5.83769 5.83667 5.83769 5.83667 5.83769 5.83667C5.83769 5.83667 5.83769 5.83667 5.83769 5.83667C5.83769 5.83667 5.83769 5.83667 5.83769 5.83667C5.83769 5.83667 5.83769 5.83667 5.83769 5.83667C5.83769 5.83667 5.83769 5.83667 5.83769 5.83667C5.83769 5.83667 5.83769 5.83667 5.83769 5.83667C5.83769 5.83667 5.83769 5.83667 5.83769 5.83667C5.83768 5.83667 5.83768 5.83667 5.83768 5.83667C5.83768 5.83667 5.83768 5.83667 5.83768 5.83667C5.83768 5.83667 5.83768 5.83667 5.83768 5.83667C5.83768 5.83667 5.83768 5.83667 5.83768 5.83667C5.83768 5.83667 5.83768 5.83667 5.83768 5.83667C5.83768 5.83667 5.83768 5.83667 5.83768 5.83667C5.83768 5.83667 5.83768 5.83667 5.83768 5.83667C5.83768 5.83667 5.83768 5.83667 5.83768 5.83667C5.83768 5.83667 5.83768 5.83667 5.83768 5.83667C5.83768 5.83667 5.83768 5.83667 5.83768 5.83667C5.83768 5.83667 5.83768 5.83668 5.83768 5.83668L8.66611 8.6651ZM8.66503 31.2586C2.44449 25.0313 2.44529 14.8907 8.66665 8.66456L5.83714 5.83722C-1.94473 13.6251 -1.94567 26.2963 5.83506 34.0855L8.66503 31.2586ZM31.2624 31.2559C25.0151 37.4815 14.909 37.4814 8.66185 31.2554L5.83824 34.0887C13.6463 41.8702 26.2776 41.8704 34.0859 34.0892L31.2624 31.2559ZM31.2581 8.6651C37.4799 14.8914 37.4803 25.0322 31.2593 31.259L34.0891 34.0861C41.8705 26.2974 41.87 13.6258 34.0876 5.83771L31.2581 8.6651ZM31.1862 8.59312L31.2581 8.6651L34.0876 5.83771L34.0156 5.76572L31.1862 8.59312ZM29.8024 29.8005C24.3794 35.2187 15.546 35.2186 10.124 29.8012L7.29677 32.6308C14.2807 39.6088 25.6449 39.6087 32.6296 32.6302L29.8024 29.8005ZM29.8019 10.1238C35.2192 15.5468 35.2187 24.3798 29.8012 29.8018L32.6308 32.629C39.6089 25.6452 39.6092 14.2816 32.6319 7.29686L29.8019 10.1238ZM10.1205 10.1271C15.5619 4.70502 24.3638 4.705 29.8052 10.1271L32.6286 7.29358C25.6262 0.316149 14.2995 0.316173 7.2971 7.29365L10.1205 10.1271ZM10.1252 29.8023C4.70674 24.3797 4.70654 15.5461 10.1237 10.1239L7.29393 7.29682C0.316241 14.281 0.316797 25.6454 7.29562 32.6297L10.1252 29.8023ZM8.71039 31.216C2.51127 25.012 2.51139 14.9119 8.7103 8.70887L5.88094 5.88138C-1.87891 13.6464 -1.87879 26.2776 5.88085 34.0433L8.71039 31.216ZM8.70748 8.71169C14.9297 2.51013 24.9961 2.51013 31.2183 8.71169L34.042 5.87856C26.2588 -1.87882 13.667 -1.87882 5.88376 5.87856L8.70748 8.71169ZM31.2154 8.70878C37.4144 14.9127 37.4143 25.0126 31.2154 31.216L34.0449 34.0434C41.8046 26.2781 41.8045 13.6472 34.0449 5.88148L31.2154 8.70878ZM31.2165 31.2149C25.0123 37.414 14.9124 37.4139 8.70936 31.215L5.88187 34.0443C13.6469 41.8042 26.2779 41.8041 34.0438 34.0445L31.2165 31.2149ZM32.0032 16.4466C33.1868 15.263 33.1868 13.344 32.0032 12.1603L29.1747 14.9887C28.7963 14.6103 28.7963 13.9967 29.1747 13.6182L32.0032 16.4466ZM32.0032 12.1603L28.7306 8.88772L25.9022 11.7161L29.1747 14.9887L32.0032 12.1603ZM28.7306 8.8877C27.5469 7.70408 25.6279 7.70408 24.4442 8.88771L27.2726 11.7162C26.8942 12.0946 26.2806 12.0946 25.9022 11.7162L28.7306 8.8877ZM16.4467 8.8877C15.263 7.70408 13.344 7.70408 12.1603 8.8877L14.9887 11.7162C14.6103 12.0946 13.9967 12.0946 13.6183 11.7162L16.4467 8.8877ZM12.1603 8.88772L8.88773 12.1603L11.7162 14.9887L14.9887 11.7161L12.1603 8.88772ZM8.88772 12.1603C7.70409 13.344 7.70409 15.263 8.88772 16.4466L11.7162 13.6182C12.0946 13.9967 12.0946 14.6103 11.7162 14.9887L8.88772 12.1603ZM8.88772 24.4442C7.70409 25.6279 7.7041 27.5469 8.88772 28.7306L11.7162 25.9022C12.0946 26.2806 12.0946 26.8942 11.7162 27.2726L8.88772 24.4442ZM8.88773 28.7306L12.1603 32.0032L14.9887 29.1747L11.7162 25.9022L8.88773 28.7306ZM12.1603 32.0032C13.344 33.1868 15.263 33.1868 16.4467 32.0032L13.6183 29.1747C13.9967 28.7963 14.6103 28.7963 14.9887 29.1747L12.1603 32.0032ZM24.4442 32.0032C25.6279 33.1868 27.5469 33.1868 28.7306 32.0032L25.9022 29.1747C26.2806 28.7963 26.8942 28.7963 27.2726 29.1747L24.4442 32.0032ZM28.7306 32.0032L32.0032 28.7306L29.1747 25.9022L25.9022 29.1747L28.7306 32.0032ZM32.0032 28.7306C33.1868 27.5469 33.1868 25.6279 32.0032 24.4442L29.1747 27.2726C28.7963 26.8942 28.7963 26.2806 29.1747 25.9022L32.0032 28.7306ZM15.7177 27.0753L13.8156 25.1732L10.9872 28.0016L12.8893 29.9037L15.7177 27.0753ZM27.0753 25.1732L25.1732 27.0753L28.0016 29.9037L29.9037 28.0016L27.0753 25.1732ZM25.1732 13.8156L27.0753 15.7177L29.9037 12.8893L28.0016 10.9872L25.1732 13.8156ZM13.8156 15.7177L15.7177 13.8156L12.8893 10.9872L10.9872 12.8893L13.8156 15.7177ZM21.5747 18.3023C20.3911 19.4859 20.3911 21.405 21.5747 22.5886L24.4032 19.7602C24.7816 20.1387 24.7816 20.7522 24.4032 21.1307L21.5747 18.3023ZM18.7043 20.0283C18.6813 20.3059 18.6813 20.585 18.7043 20.8625L22.6906 20.5321C22.6858 20.4744 22.6858 20.4164 22.6906 20.3588L18.7043 20.0283ZM20.0285 22.1867C20.306 22.2097 20.5851 22.2097 20.8626 22.1867L20.5322 18.2004C20.4746 18.2052 20.4165 18.2052 20.3589 18.2004L20.0285 22.1867ZM22.1868 20.8625C22.2098 20.585 22.2098 20.3059 22.1868 20.0283L18.2005 20.3588C18.2053 20.4164 18.2053 20.4744 18.2005 20.5321L22.1868 20.8625ZM20.8627 18.7042C20.5851 18.6811 20.306 18.6811 20.0285 18.7041L20.3589 22.6905C20.4165 22.6857 20.4746 22.6857 20.5322 22.6905L20.8627 18.7042ZM22.5887 21.5746C21.4051 20.391 19.486 20.391 18.3024 21.5746L21.1308 24.4031C20.7523 24.7815 20.1388 24.7815 19.7603 24.4031L22.5887 21.5746ZM18.3024 19.3163C19.486 20.4999 21.4051 20.4999 22.5887 19.3163L19.7603 16.4878C20.1388 16.1094 20.7523 16.1094 21.1308 16.4878L18.3024 19.3163ZM19.3164 22.5886C20.5 21.405 20.5 19.4859 19.3164 18.3023L16.4879 21.1307C16.1095 20.7522 16.1095 20.1387 16.4879 19.7602L19.3164 22.5886ZM26.5902 21.8597L32.0032 16.4467L29.1747 13.6182L23.7618 19.0312L26.5902 21.8597ZM24.4442 8.88773L19.0312 14.3008L21.8597 17.1292L27.2727 11.7161L24.4442 8.88773ZM21.8597 14.3008L16.4467 8.88773L13.6182 11.7161L19.0312 17.1292L21.8597 14.3008ZM8.88773 16.4467L14.3007 21.8597L17.1291 19.0312L11.7162 13.6182L8.88773 16.4467ZM11.7162 27.2726L17.1291 21.8597L14.3007 19.0312L8.88773 24.4442L11.7162 27.2726ZM16.4467 32.0031L21.8597 26.59L19.0312 23.7616L13.6182 29.1747L16.4467 32.0031ZM27.2727 29.1747L21.8597 23.7616L19.0312 26.59L24.4442 32.0031L27.2727 29.1747ZM32.0032 24.4442L26.5902 19.0312L23.7618 21.8597L29.1747 27.2726L32.0032 24.4442ZM19.9576 19.0312L13.8156 12.8893L10.9872 15.7177L17.1291 21.8597L19.9576 19.0312ZM13.8156 28.0016L19.9576 21.8597L17.1291 19.0312L10.9872 25.1732L13.8156 28.0016ZM19.0312 20.9332L12.8893 27.0753L15.7177 29.9037L21.8597 23.7616L19.0312 20.9332ZM28.0016 27.0753L21.8597 20.9332L19.0312 23.7616L25.1732 29.9037L28.0016 27.0753ZM20.9333 21.8597L27.0753 28.0016L29.9037 25.1732L23.7618 19.0312L20.9333 21.8597ZM27.0753 12.8893L20.9333 19.0312L23.7618 21.8597L29.9037 15.7177L27.0753 12.8893ZM21.8597 19.9577L28.0016 13.8156L25.1732 10.9872L19.0312 17.1293L21.8597 19.9577ZM12.8893 13.8156L19.0312 19.9577L21.8597 17.1293L15.7177 10.9872L12.8893 13.8156ZM22.5887 19.3162L28.0017 13.9033L25.1733 11.0748L19.7603 16.4878L22.5887 19.3162ZM29.8162 12.8893L28.0017 11.0748L25.1733 13.9033L26.9877 15.7177L29.8162 12.8893ZM24.4032 21.1307L29.8162 15.7177L26.9877 12.8893L21.5747 18.3023L24.4032 21.1307ZM21.5747 22.5886L26.9877 28.0016L29.8162 25.1732L24.4032 19.7602L21.5747 22.5886ZM28.0017 29.816L29.8162 28.0016L26.9877 25.1732L25.1733 26.9876L28.0017 29.816ZM19.7603 24.4031L25.1733 29.816L28.0017 26.9876L22.5887 21.5746L19.7603 24.4031ZM13.9034 28.0016L19.3164 22.5886L16.4879 19.7602L11.0749 25.1732L13.9034 28.0016ZM11.0749 28.0016L12.8894 29.816L15.7178 26.9876L13.9034 25.1732L11.0749 28.0016ZM15.7178 29.816L21.1308 24.4031L18.3024 21.5746L12.8894 26.9876L15.7178 29.816ZM12.8894 13.9033L18.3024 19.3162L21.1308 16.4878L15.7178 11.0748L12.8894 13.9033ZM12.8894 11.0748L11.0749 12.8893L13.9034 15.7177L15.7178 13.9033L12.8894 11.0748ZM11.0749 15.7177L16.4879 21.1307L19.3164 18.3023L13.9034 12.8893L11.0749 15.7177Z" fill="#EF7373" mask="url(#path-1-inside-1)"/>
</svg>
