<svg width="25" height="25" viewBox="0 0 25 25" fill="none" xmlns="http://www.w3.org/2000/svg">
<mask id="path-1-inside-1" fill="white">
<path fill-rule="evenodd" clip-rule="evenodd" d="M12.5 2.01709C6.72147 2.01709 2.01709 6.72147 2.01709 12.5C2.01709 18.2786 6.72147 22.9829 12.5 22.9829C18.2786 22.9829 22.9829 18.2786 22.9829 12.5C22.9829 6.72147 18.2786 2.01709 12.5 2.01709ZM0.0170898 12.5C0.0170898 5.6169 5.6169 0.0170898 12.5 0.0170898C19.3831 0.0170898 24.9829 5.6169 24.9829 12.5C24.9829 19.3831 19.3831 24.9829 12.5 24.9829C5.6169 24.9829 0.0170898 19.3831 0.0170898 12.5ZM3.30575 12.5C3.30575 17.5681 7.4319 21.6943 12.5 21.6943C17.5681 21.6943 21.6943 17.5681 21.6943 12.5C21.6943 7.4319 17.5681 3.30575 12.5 3.30575C7.4319 3.30575 3.30575 7.4319 3.30575 12.5ZM1.30575 12.5C1.30575 18.6727 6.32733 23.6943 12.5 23.6943C18.6727 23.6943 23.6943 18.6727 23.6943 12.5C23.6943 6.32733 18.6727 1.30575 12.5 1.30575C6.32733 1.30575 1.30575 6.32733 1.30575 12.5Z"/>
</mask>
<path d="M4.01709 12.5C4.01709 7.82604 7.82604 4.01709 12.5 4.01709V0.0170898C5.6169 0.0170898 0.0170898 5.6169 0.0170898 12.5H4.01709ZM12.5 20.9829C7.82604 20.9829 4.01709 17.174 4.01709 12.5H0.0170898C0.0170898 19.3831 5.6169 24.9829 12.5 24.9829V20.9829ZM20.9829 12.5C20.9829 17.174 17.174 20.9829 12.5 20.9829V24.9829C19.3831 24.9829 24.9829 19.3831 24.9829 12.5H20.9829ZM12.5 4.01709C17.174 4.01709 20.9829 7.82604 20.9829 12.5H24.9829C24.9829 5.6169 19.3831 0.0170898 12.5 0.0170898V4.01709ZM12.5 -1.98291C4.51233 -1.98291 -1.98291 4.51233 -1.98291 12.5H2.01709C2.01709 6.72147 6.72147 2.01709 12.5 2.01709V-1.98291ZM26.9829 12.5C26.9829 4.51233 20.4877 -1.98291 12.5 -1.98291V2.01709C18.2786 2.01709 22.9829 6.72147 22.9829 12.5H26.9829ZM12.5 26.9829C20.4877 26.9829 26.9829 20.4877 26.9829 12.5H22.9829C22.9829 18.2786 18.2786 22.9829 12.5 22.9829V26.9829ZM-1.98291 12.5C-1.98291 20.4877 4.51233 26.9829 12.5 26.9829V22.9829C6.72147 22.9829 2.01709 18.2786 2.01709 12.5H-1.98291ZM12.5 19.6943C8.53647 19.6943 5.30575 16.4636 5.30575 12.5H1.30575C1.30575 18.6727 6.32733 23.6943 12.5 23.6943V19.6943ZM19.6943 12.5C19.6943 16.4636 16.4636 19.6943 12.5 19.6943V23.6943C18.6727 23.6943 23.6943 18.6727 23.6943 12.5H19.6943ZM12.5 5.30575C16.4636 5.30575 19.6943 8.53647 19.6943 12.5H23.6943C23.6943 6.32733 18.6727 1.30575 12.5 1.30575V5.30575ZM5.30575 12.5C5.30575 8.53647 8.53647 5.30575 12.5 5.30575V1.30575C6.32733 1.30575 1.30575 6.32733 1.30575 12.5H5.30575ZM12.5 21.6943C7.4319 21.6943 3.30575 17.5681 3.30575 12.5H-0.69425C-0.69425 19.7773 5.22276 25.6943 12.5 25.6943V21.6943ZM21.6943 12.5C21.6943 17.5681 17.5681 21.6943 12.5 21.6943V25.6943C19.7773 25.6943 25.6943 19.7773 25.6943 12.5H21.6943ZM12.5 3.30575C17.5681 3.30575 21.6943 7.4319 21.6943 12.5H25.6943C25.6943 5.22276 19.7773 -0.69425 12.5 -0.69425V3.30575ZM3.30575 12.5C3.30575 7.4319 7.4319 3.30575 12.5 3.30575V-0.69425C5.22276 -0.69425 -0.69425 5.22276 -0.69425 12.5H3.30575Z" fill="#93D747" mask="url(#path-1-inside-1)"/>
<mask id="path-3-inside-2" fill="white">
<path fill-rule="evenodd" clip-rule="evenodd" d="M19.491 9.70441C19.7425 9.4528 19.7425 9.04494 19.491 8.79333L17.5937 6.89578C17.4729 6.77493 17.309 6.70703 17.1381 6.70703C16.9672 6.70703 16.8033 6.77493 16.6824 6.89578L10.6392 12.9391L8.31728 10.6201C8.06568 10.3686 7.65792 10.3686 7.40632 10.6201L5.50903 12.5179C5.25741 12.7695 5.25741 13.1775 5.50903 13.4291L10.184 18.1041C10.3049 18.2249 10.4688 18.2928 10.6397 18.2928C10.8106 18.2928 10.9745 18.2249 11.0953 18.1041L19.491 9.70441ZM18.0766 8.29041L18.0764 8.29054C18.0765 8.29049 18.0765 8.29045 18.0766 8.29041ZM6.92326 12.0149C6.92326 12.0149 6.92326 12.0149 6.92326 12.0149L6.92326 12.0149ZM6.92326 13.9321L6.92343 13.9319C6.92337 13.932 6.92331 13.932 6.92326 13.9321ZM5.96464 12.9735L5.9647 12.9734L6.92324 12.0149L6.92326 12.0149L5.9647 12.9734L5.96464 12.9735ZM7.86221 11.9869L7.86219 11.9869L6.87565 12.9735L6.87625 12.9741L9.19649 15.2943L9.19676 15.2946L9.22515 15.3229L10.3844 16.4822L10.639 16.7368L10.6394 16.7371L10.6397 16.7368L10.8942 16.4822L12.0533 15.3227L12.0822 15.2938L12.0826 15.2934L18.1244 9.24932L17.138 8.26292L17.1378 8.2631L15.7238 9.67713L11.095 14.3059C11.0852 14.3157 11.0751 14.3252 11.0649 14.3342C10.822 14.548 10.4566 14.5479 10.2139 14.3338C10.2038 14.3249 10.1938 14.3156 10.1842 14.3059L7.86221 11.9869Z"/>
</mask>
<path d="M19.491 9.70441L18.0766 8.29041L18.0764 8.29054L19.491 9.70441ZM19.491 8.79333L20.9054 7.37933L20.9053 7.37921L19.491 8.79333ZM17.5937 6.89578L19.008 5.48166L19.008 5.48165L17.5937 6.89578ZM16.6824 6.89578L18.0966 8.30998L18.0967 8.3099L16.6824 6.89578ZM10.6392 12.9391L9.22585 14.3542L10.6401 15.7666L12.0534 14.3533L10.6392 12.9391ZM8.31728 10.6201L6.90348 12.0347L6.90395 12.0352L8.31728 10.6201ZM7.40632 10.6201L5.99252 9.20544L5.99192 9.20605L7.40632 10.6201ZM5.50903 12.5179L6.92326 13.9321L6.92343 13.9319L5.50903 12.5179ZM5.50903 13.4291L4.0948 14.8433L4.09481 14.8433L5.50903 13.4291ZM10.184 18.1041L11.5983 16.69L11.5982 16.6899L10.184 18.1041ZM11.0953 18.1041L12.5096 19.5182L12.5099 19.518L11.0953 18.1041ZM18.0766 8.29041L19.4908 9.70463L16.663 6.87551L18.0766 8.29041ZM18.0764 8.29054L16.6622 6.87632L19.49 9.70543L18.0764 8.29054ZM6.92326 12.0149L5.54395 13.4632L8.33748 10.6007L6.92326 12.0149ZM6.92326 13.9321L5.50763 12.5193L8.33652 15.3472L6.92326 13.9321ZM6.92343 13.9319L8.33906 15.3447L5.51017 12.5167L6.92343 13.9319ZM5.9647 12.9734L4.55048 11.5592L4.49561 11.6141L4.44515 11.673L5.9647 12.9734ZM5.96464 12.9735L4.4451 11.6731L7.38105 14.3855L5.96464 12.9735ZM6.92324 12.0149L8.3497 10.613L6.93559 9.1741L5.50903 10.6007L6.92324 12.0149ZM5.9647 12.9734L4.5505 11.5592L4.54829 11.5614L5.9647 12.9734ZM7.86219 11.9869L9.2764 10.5727L7.86214 9.15841L6.44793 10.5727L7.86219 11.9869ZM7.86221 11.9869L6.448 13.4011L6.4489 13.402L7.86221 11.9869ZM6.87565 12.9735L5.46139 11.5593L4.0475 12.9733L5.46121 14.3875L6.87565 12.9735ZM6.87625 12.9741L5.46181 14.3881L5.46205 14.3883L6.87625 12.9741ZM9.19649 15.2943L7.78229 16.7085L7.78289 16.7091L9.19649 15.2943ZM9.19676 15.2946L10.611 13.8803L10.6104 13.8797L9.19676 15.2946ZM9.22515 15.3229L7.81094 16.7372L7.81095 16.7372L9.22515 15.3229ZM10.3844 16.4822L8.97021 17.8964H8.97021L10.3844 16.4822ZM10.639 16.7368L12.0533 15.3226L12.0532 15.3226L10.639 16.7368ZM10.6394 16.7371L9.22516 18.1514L10.6394 19.5656L12.0536 18.1514L10.6394 16.7371ZM10.6397 16.7368L12.0539 18.151L12.0542 18.1508L10.6397 16.7368ZM10.8942 16.4822L9.47971 15.0683L9.47971 15.0683L10.8942 16.4822ZM12.0533 15.3227L13.4678 16.7366L13.4678 16.7366L12.0533 15.3227ZM12.0822 15.2938L10.668 13.8796L10.6677 13.8798L12.0822 15.2938ZM12.0826 15.2934L13.4968 16.7076L13.497 16.7074L12.0826 15.2934ZM18.1244 9.24932L19.5389 10.6633L20.9526 9.24906L19.5386 7.83511L18.1244 9.24932ZM17.138 8.26292L18.5522 6.8487L17.1394 5.43592L15.7252 6.84728L17.138 8.26292ZM17.1378 8.2631L15.7251 6.84746L15.7236 6.84889L17.1378 8.2631ZM15.7238 9.67713L14.3096 8.26292V8.26292L15.7238 9.67713ZM11.095 14.3059L12.5087 15.7206L12.5093 15.7201L11.095 14.3059ZM11.0649 14.3342L9.74347 12.8329L9.74346 12.8329L11.0649 14.3342ZM10.2139 14.3338L11.5367 12.8337L11.5367 12.8337L10.2139 14.3338ZM10.1842 14.3059L11.5978 12.8912L11.5975 12.8908L10.1842 14.3059ZM20.9054 11.1184C21.9377 10.0858 21.9377 8.41194 20.9054 7.37933L18.0766 10.2073C17.5473 9.67794 17.5473 8.8198 18.0766 8.29041L20.9054 11.1184ZM20.9053 7.37921L19.008 5.48166L16.1794 8.3099L18.0767 10.2074L20.9053 7.37921ZM19.008 5.48165C18.5121 4.98567 17.8394 4.70703 17.1381 4.70703V8.70703C16.7785 8.70703 16.4336 8.56418 16.1794 8.3099L19.008 5.48165ZM17.1381 4.70703C16.4367 4.70703 15.764 4.98567 15.2681 5.48165L18.0967 8.3099C17.8425 8.56418 17.4976 8.70703 17.1381 8.70703V4.70703ZM15.2682 5.48157L9.22496 11.5249L12.0534 14.3533L18.0966 8.30998L15.2682 5.48157ZM12.0525 11.524L9.73061 9.20497L6.90395 12.0352L9.22585 14.3542L12.0525 11.524ZM9.73108 9.20544C8.69853 8.1735 7.02507 8.1735 5.99252 9.20544L8.82012 12.0347C8.29076 12.5637 7.43283 12.5637 6.90348 12.0347L9.73108 9.20544ZM5.99192 9.20605L4.09462 11.1039L6.92343 13.9319L8.82073 12.0341L5.99192 9.20605ZM4.0948 11.1037C3.06215 12.1364 3.06215 13.8106 4.0948 14.8433L6.92326 12.0149C7.45266 12.5443 7.45266 13.4027 6.92326 13.9321L4.0948 11.1037ZM4.09481 14.8433L8.76981 19.5183L11.5982 16.6899L6.92324 12.0149L4.09481 14.8433ZM8.76973 19.5182C9.26565 20.0142 9.93829 20.2928 10.6397 20.2928V16.2928C10.9992 16.2928 11.3441 16.4357 11.5983 16.69L8.76973 19.5182ZM10.6397 20.2928C11.341 20.2928 12.0137 20.0142 12.5096 19.5182L9.681 16.69C9.93525 16.4357 10.2801 16.2928 10.6397 16.2928V20.2928ZM12.5099 19.518L20.9055 11.1183L18.0764 8.29054L9.68075 16.6902L12.5099 19.518ZM16.663 6.87551L16.6629 6.87564L19.49 9.70543L19.4901 9.70531L16.663 6.87551ZM19.4907 9.70475L19.4908 9.70463L16.6623 6.8762L16.6622 6.87632L19.4907 9.70475ZM5.54394 13.4632C5.53485 13.4545 5.52699 13.4469 5.52064 13.4406C5.51429 13.4344 5.50894 13.429 5.50493 13.425C5.50094 13.421 5.49774 13.4177 5.49585 13.4158C5.49412 13.414 5.49263 13.4125 5.49288 13.4128C5.49288 13.4128 5.49288 13.4128 5.49289 13.4128C5.49289 13.4128 5.49289 13.4128 5.49289 13.4128C5.49289 13.4128 5.49289 13.4128 5.4929 13.4128C5.4929 13.4128 5.49292 13.4128 5.49293 13.4128C5.49296 13.4128 5.49301 13.4129 5.49307 13.413C5.49319 13.4131 5.49338 13.4133 5.49362 13.4135C5.4941 13.414 5.49488 13.4148 5.49585 13.4158C5.49774 13.4177 5.50094 13.421 5.50493 13.425C5.50894 13.429 5.51429 13.4344 5.52064 13.4406C5.527 13.4469 5.53486 13.4545 5.54395 13.4632L8.30257 10.5666C8.31167 10.5753 8.31953 10.5829 8.32588 10.5892C8.33223 10.5954 8.33758 10.6008 8.34159 10.6048C8.34558 10.6088 8.34878 10.6121 8.35067 10.614C8.3524 10.6158 8.35388 10.6173 8.35363 10.617C8.35363 10.617 8.35363 10.617 8.35363 10.617C8.35363 10.617 8.35363 10.617 8.35363 10.617C8.35363 10.617 8.35363 10.617 8.35362 10.617C8.35361 10.617 8.3536 10.617 8.35359 10.617C8.35356 10.617 8.35351 10.6169 8.35345 10.6168C8.35333 10.6167 8.35313 10.6165 8.35289 10.6163C8.35242 10.6158 8.35164 10.615 8.35066 10.614C8.34877 10.6121 8.34558 10.6088 8.34159 10.6048C8.33758 10.6008 8.33223 10.5954 8.32587 10.5892C8.31952 10.5829 8.31166 10.5753 8.30257 10.5666L5.54394 13.4632ZM8.33748 10.6007L8.33747 10.6007L5.50904 13.4291L5.50905 13.4291L8.33748 10.6007ZM8.33652 15.3472L8.3367 15.3471L5.51017 12.5167L5.50999 12.5169L8.33652 15.3472ZM5.50781 12.5191L5.50763 12.5193L8.33888 15.3449L8.33906 15.3447L5.50781 12.5191ZM4.44515 11.673L4.4451 11.6731L7.48419 14.2739L7.48424 14.2738L4.44515 11.673ZM5.50903 10.6007L4.55048 11.5592L7.37891 14.3876L8.33746 13.4291L5.50903 10.6007ZM8.34971 10.613L8.3497 10.613L5.49678 13.4167L5.4968 13.4168L8.34971 10.613ZM7.3789 14.3877L8.33746 13.4291L5.50906 10.6007L4.5505 11.5592L7.3789 14.3877ZM7.38105 14.3855L7.38111 14.3854L4.54829 11.5614L4.54824 11.5615L7.38105 14.3855ZM6.44797 13.4011L6.448 13.4011L9.27642 10.5727L9.2764 10.5727L6.44797 13.4011ZM8.28991 14.3877L9.27644 13.4011L6.44793 10.5727L5.46139 11.5593L8.28991 14.3877ZM8.29069 11.5601L8.29009 11.5595L5.46121 14.3875L5.46181 14.3881L8.29069 11.5601ZM10.6107 13.8801L8.29045 11.5599L5.46205 14.3883L7.78229 16.7085L10.6107 13.8801ZM10.6104 13.8797L10.6101 13.8794L7.78289 16.7091L7.78317 16.7094L10.6104 13.8797ZM10.6394 13.9087L10.611 13.8803L7.78255 16.7088L7.81094 16.7372L10.6394 13.9087ZM11.7986 15.068L10.6394 13.9087L7.81095 16.7372L8.97021 17.8964L11.7986 15.068ZM12.0532 15.3226L11.7986 15.068L8.97021 17.8964L9.22484 18.151L12.0532 15.3226ZM9.22482 18.151L9.22516 18.1514L12.0536 15.3229L12.0533 15.3226L9.22482 18.151ZM12.0536 18.1514L12.0539 18.151L9.2255 15.3226L9.22516 15.3229L12.0536 18.1514ZM9.47971 15.0683L9.22524 15.3229L12.0542 18.1508L12.3087 17.8962L9.47971 15.0683ZM10.6389 13.9087L9.47971 15.0683L12.3087 17.8962L13.4678 16.7366L10.6389 13.9087ZM10.6677 13.8798L10.6388 13.9087L13.4678 16.7366L13.4967 16.7077L10.6677 13.8798ZM10.6684 13.8792L10.668 13.8796L13.4964 16.708L13.4968 16.7076L10.6684 13.8792ZM16.71 7.83537L10.6681 13.8795L13.497 16.7074L19.5389 10.6633L16.71 7.83537ZM19.5386 7.83511L18.5522 6.8487L15.7238 9.67713L16.7102 10.6635L19.5386 7.83511ZM15.7252 6.84728L15.7251 6.84746L18.5506 9.67874L18.5508 9.67856L15.7252 6.84728ZM15.7236 6.84889L14.3096 8.26292L17.138 11.0913L18.5521 9.67731L15.7236 6.84889ZM12.5093 15.7201L17.138 11.0913L14.3096 8.26292L9.68083 12.8917L12.5093 15.7201ZM12.3862 15.8355C12.4282 15.7986 12.469 15.7603 12.5087 15.7206L9.68135 12.8912C9.70139 12.8711 9.7221 12.8517 9.74347 12.8329L12.3862 15.8355ZM8.89115 15.8339C9.88932 16.7141 11.3875 16.7146 12.3862 15.8355L9.74346 12.8329C10.2565 12.3814 11.024 12.3816 11.5367 12.8337L8.89115 15.8339ZM8.77047 15.7206C8.80958 15.7597 8.84983 15.7975 8.89115 15.8339L11.5367 12.8337C11.5577 12.8523 11.5781 12.8714 11.5978 12.8912L8.77047 15.7206ZM6.4489 13.402L8.77085 15.721L11.5975 12.8908L9.27552 10.5718L6.4489 13.402Z" fill="#93D747" mask="url(#path-3-inside-2)"/>
</svg>
