<svg width="32" height="32" viewBox="0 0 32 32" fill="none" xmlns="http://www.w3.org/2000/svg">
<path fill-rule="evenodd" clip-rule="evenodd" d="M22.3588 22.7186H28.9786C29.5527 22.7186 29.9918 23.1577 29.9918 23.7318C29.9918 24.306 29.5527 24.745 28.9786 24.745H2.97219C2.39806 24.745 1.95898 24.306 1.95898 23.7318C1.95898 23.1577 2.398 22.7186 2.97219 22.7186H9.59199C8.68008 21.4352 8.17345 19.8816 8.17345 18.2604C8.17345 13.9711 11.686 10.4585 15.9754 10.4585C20.2647 10.4585 23.7773 13.9711 23.7773 18.2604C23.7773 19.8816 23.2707 21.4352 22.3588 22.7186ZM15.9754 12.485C12.8006 12.485 10.2 15.0856 10.2 18.2604C10.2 19.9829 10.9768 21.6041 12.3278 22.7186H19.6231C20.9741 21.6379 21.7509 19.9829 21.7509 18.2604C21.7509 15.0856 19.1502 12.485 15.9754 12.485Z" fill="#CCCCCC"/>
<path d="M20.8727 26.7378H11.0781C10.504 26.7378 10.0649 27.1769 10.0649 27.751C10.0649 28.3251 10.504 28.7642 11.0781 28.7642H20.8727C21.4469 28.7642 21.8859 28.3251 21.8859 27.751C21.8859 27.1769 21.4469 26.7378 20.8727 26.7378Z" fill="#CCCCCC"/>
<path d="M15.9751 9.44523C16.5493 9.44523 16.9883 9.00615 16.9883 8.43202V3.0281C16.9883 2.45391 16.5492 2.01489 15.9751 2.01489C15.401 2.01489 14.9619 2.45397 14.9619 3.0281V8.43202C14.9619 9.00621 15.401 9.44523 15.9751 9.44523Z" fill="#CCCCCC"/>
<path d="M30.9376 16.9768H25.5337C24.9595 16.9768 24.5205 17.4159 24.5205 17.99C24.5205 18.5642 24.9596 19.0032 25.5337 19.0032H30.9376C31.5118 19.0032 31.9508 18.5641 31.9508 17.99C31.9509 17.4159 31.5118 16.9768 30.9376 16.9768Z" fill="#CCCCCC"/>
<path d="M7.4304 17.99C7.4304 17.4158 6.99132 16.9768 6.4172 16.9768H1.0132C0.439079 16.9767 0 17.4158 0 17.99C0 18.5642 0.439079 19.0032 1.0132 19.0032H6.41713C6.99132 19.0032 7.4304 18.5642 7.4304 17.99Z" fill="#CCCCCC"/>
<path d="M22.7642 12.2146C23.0345 12.2146 23.2709 12.1133 23.4735 11.9106L27.29 8.09407C27.6953 7.6888 27.6953 7.04706 27.29 6.67553C26.8847 6.27026 26.243 6.27026 25.8715 6.67553L22.0549 10.4921C21.6497 10.8973 21.6497 11.5391 22.0549 11.9106C22.2576 12.1133 22.494 12.2146 22.7642 12.2146Z" fill="#CCCCCC"/>
<path d="M8.47748 11.9106C8.68015 12.1133 8.95031 12.2146 9.18672 12.2146C9.45694 12.2146 9.69335 12.1133 9.89596 11.9106C10.3012 11.5053 10.3012 10.8636 9.89596 10.4921L6.07942 6.67553C5.67415 6.27026 5.03241 6.27026 4.66089 6.67553C4.25562 7.0808 4.25562 7.72255 4.66089 8.09407L8.47748 11.9106Z" fill="#CCCCCC"/>
</svg>
