<svg width="21" height="43" viewBox="0 0 21 43" fill="none" xmlns="http://www.w3.org/2000/svg">
<path fill-rule="evenodd" clip-rule="evenodd" d="M16.5054 6.95V25.4913C19.2749 27.322 20.8239 30.1384 20.777 33.2833C20.777 38.6345 16.2707 42.9999 10.6849 42.9999C5.09901 42.9999 0.592773 38.6345 0.592773 33.2833C0.592773 30.1384 2.18873 27.3689 4.95819 25.5382V6.95C4.95819 3.85196 7.53989 1.36414 10.7318 1.36414C13.9237 1.36414 16.5054 3.85196 16.5054 6.95ZM3.40917 33.2364C3.40917 37.0385 6.69497 40.1366 10.6849 40.1366C14.6748 40.1366 17.9606 37.0855 17.9606 33.2833C18.0075 30.1853 16.036 28.4485 14.3931 27.5097C13.9707 27.275 13.689 26.8056 13.689 26.2893V23.6606H11.9992C11.2012 23.6606 10.591 23.0504 10.591 22.2524C10.591 21.4545 11.2012 20.8442 11.9992 20.8442H13.689V17.4176H11.9992C11.2012 17.4176 10.591 16.8074 10.591 16.0094C10.591 15.2114 11.2012 14.6012 11.9992 14.6012H13.689V11.2215H11.9992C11.2012 11.2215 10.591 10.6113 10.591 9.81334C10.591 9.01536 11.2012 8.40514 11.9992 8.40514H13.689V6.95C13.689 5.40098 12.3747 4.18054 10.7318 4.18054C9.08891 4.18054 7.77459 5.40098 7.77459 6.95V26.2893C7.77459 26.8056 7.49295 27.275 7.07049 27.5097C5.70923 28.3077 3.40917 30.0445 3.40917 33.2364Z" fill="#E1E1E1"/>
</svg>
