<svg width="25" height="22" viewBox="0 0 25 22" fill="none" xmlns="http://www.w3.org/2000/svg">
<mask id="path-1-inside-1" fill="white">
<path fill-rule="evenodd" clip-rule="evenodd" d="M22.6006 18.8581L22.6005 18.858L12.4975 2.10292C12.4974 2.1029 12.4974 2.10289 12.4974 2.10287C12.4817 2.07678 12.4556 2.0497 12.419 2.02902C12.3824 2.00832 12.3457 2 12.3152 2C12.2848 2 12.2481 2.00832 12.2115 2.02902C12.1748 2.04972 12.1487 2.07683 12.133 2.103L2.03004 18.858C2.03003 18.858 2.03002 18.858 2.03001 18.858C1.99117 18.9224 1.98992 19.0067 2.02689 19.0723M10.4203 1.07018C10.8184 0.41006 11.5444 0 12.3152 0C13.0861 0 13.8121 0.41006 14.2102 1.07013L24.3132 17.8252C24.7246 18.5074 24.7368 19.3622 24.3451 20.0559C23.9532 20.7496 23.2149 21.1806 22.4183 21.1806H2.2122C1.41556 21.1806 0.677313 20.7496 0.285485 20.0559C-0.106246 19.3623 -0.0940751 18.5075 0.317284 17.8252L10.4203 1.07018ZM22.6006 18.8581C22.6393 18.9224 22.6407 19.0066 22.6036 19.0723L22.6006 18.8581ZM22.6036 19.0723C22.5665 19.1381 22.4936 19.1806 22.4183 19.1806H2.2122C2.13703 19.1806 2.06419 19.1382 2.027 19.0725M22.9399 18.6534L22.4183 17.7883L22.2942 17.5825L22.2909 17.577L13.483 2.96972L13.4826 2.96903L13.4332 2.88708L13.433 2.88672L12.8369 1.89824C12.7273 1.71654 12.5274 1.60363 12.3153 1.60363C12.1031 1.60363 11.9032 1.71654 11.7936 1.89824L11.1976 2.88671L11.1974 2.88709L11.148 2.96902L11.1475 2.96971L2.33956 17.577L2.33623 17.5825L2.2122 17.7882L1.69053 18.6534C1.57734 18.8411 1.57397 19.0765 1.68183 19.2674C1.78963 19.4584 1.99288 19.577 2.2122 19.577H3.22232H3.22261H3.46261H3.46905H21.1614H21.1678H21.4081H21.4087H22.4183C22.6376 19.577 22.8409 19.4583 22.9487 19.2674C23.0566 19.0765 23.0532 18.8412 22.9399 18.6534ZM19.9554 17.577L12.3153 4.9063L4.67502 17.577H19.9554Z"/>
</mask>
<path d="M22.6006 18.8581L23.6005 18.8439L23.5863 17.8478L22.5902 17.8582L22.6006 18.8581ZM22.6036 19.0723L22.6036 20.0723L23.6179 20.0723L23.6035 19.0581L22.6036 19.0723ZM2.0373 20.0723L22.611 19.8581L22.5902 17.8582L2.01648 18.0724L2.0373 20.0723ZM21.6007 18.8724L21.6037 19.0866L23.6035 19.0581L23.6005 18.8439L21.6007 18.8724ZM2.027 20.0725L22.6036 20.0723L22.6036 18.0723L2.02699 18.0725L2.027 20.0725ZM22.6005 18.858L20.8877 19.8907L20.8912 19.8965L22.6005 18.858ZM22.6006 18.8581L24.3132 17.8253L24.3098 17.8196L22.6006 18.8581ZM12.4975 2.10292L10.775 3.11943L10.7798 3.12757L10.7847 3.13566L12.4975 2.10292ZM12.4974 2.10287L14.2198 1.08637L14.2149 1.07793L14.2098 1.06954L12.4974 2.10287ZM12.419 2.02902L11.4355 3.77049L11.4355 3.77049L12.419 2.02902ZM12.2115 2.02902L13.195 3.77049L13.195 3.77048L12.2115 2.02902ZM12.133 2.103L10.4203 1.07017L10.4202 1.07026L12.133 2.103ZM2.03004 18.858L3.72603 19.9179L3.73451 19.9044L3.74277 19.8907L2.03004 18.858ZM2.03001 18.858L0.334016 17.798L0.325396 17.8118L0.317002 17.8257L2.03001 18.858ZM10.4203 1.07018L8.7076 0.0373522L8.70755 0.0374341L10.4203 1.07018ZM14.2102 1.07013L15.9229 0.0373847L15.9229 0.0373415L14.2102 1.07013ZM24.3132 17.8252L22.6005 18.858L22.6006 18.8581L24.3132 17.8252ZM24.3451 20.0559L26.0865 21.0395L26.0866 21.0393L24.3451 20.0559ZM0.285485 20.0559L-1.45603 21.0394L-1.45592 21.0396L0.285485 20.0559ZM0.317284 17.8252L-1.39545 16.7925L-1.39547 16.7925L0.317284 17.8252ZM22.6036 19.0723L24.3451 20.0559L24.3462 20.0539L22.6036 19.0723ZM22.4183 17.7883L20.7056 18.821L20.7056 18.821L22.4183 17.7883ZM22.9399 18.6534L21.2272 19.6861L21.2274 19.6864L22.9399 18.6534ZM22.2942 17.5825L20.5813 18.615L20.5815 18.6153L22.2942 17.5825ZM22.2909 17.577L24.0038 16.5445L24.0036 16.5443L22.2909 17.577ZM13.483 2.96972L11.7701 4.00215L11.7703 4.00246L13.483 2.96972ZM13.4826 2.96903L15.1955 1.9366L15.1953 1.93628L13.4826 2.96903ZM13.4332 2.88708L15.1459 1.85433L15.1458 1.85423L13.4332 2.88708ZM13.433 2.88672L11.7202 3.91947L11.7203 3.91958L13.433 2.88672ZM12.8369 1.89824L14.5496 0.865494L14.5495 0.865312L12.8369 1.89824ZM11.7936 1.89824L10.081 0.865312L10.0809 0.865487L11.7936 1.89824ZM11.1976 2.88671L12.9096 3.9207L12.9103 3.91946L11.1976 2.88671ZM11.1974 2.88709L9.48538 1.85311L9.48463 1.85435L11.1974 2.88709ZM11.148 2.96902L9.43522 1.93628L9.4348 1.93699L11.148 2.96902ZM11.1475 2.96971L12.8603 4.00246L12.8607 4.00175L11.1475 2.96971ZM2.33956 17.577L0.626833 16.5443L0.626822 16.5443L2.33956 17.577ZM2.33623 17.5825L4.04896 18.6153L4.04897 18.6152L2.33623 17.5825ZM2.2122 17.7882L0.499475 16.7555L0.499474 16.7555L2.2122 17.7882ZM1.69053 18.6534L-0.0221934 17.6206L-0.02228 17.6207L1.69053 18.6534ZM1.68183 19.2674L3.42339 18.2841L3.42331 18.284L1.68183 19.2674ZM12.3153 4.9063L14.028 3.87356L12.3153 1.03313L10.6025 3.87355L12.3153 4.9063ZM19.9554 17.577V19.577H23.4968L21.6682 16.5443L19.9554 17.577ZM4.67502 17.577L2.96229 16.5443L1.13359 19.577H4.67502V17.577ZM20.8912 19.8965L20.8913 19.8967L24.3098 17.8196L24.3097 17.8195L20.8912 19.8965ZM10.7847 3.13566L20.8877 19.8907L24.3132 17.8252L14.2102 1.07017L10.7847 3.13566ZM10.775 3.11938C10.7819 3.13097 10.7875 3.14023 10.7908 3.14565C10.7925 3.14844 10.7939 3.1507 10.7947 3.15205C10.7951 3.15275 10.7955 3.15331 10.7957 3.15365C10.7958 3.15382 10.7959 3.15396 10.7959 3.15404C10.796 3.15409 10.796 3.15412 10.796 3.15414C10.796 3.15415 10.796 3.15416 10.796 3.15417C10.796 3.15417 10.796 3.15417 10.796 3.15417C10.796 3.15418 10.796 3.15418 10.796 3.15418C10.796 3.15418 10.796 3.15418 10.796 3.15418C10.7961 3.15436 10.7955 3.1533 10.7947 3.15206C10.7939 3.15071 10.7925 3.14846 10.7908 3.14567C10.7875 3.14026 10.7819 3.13101 10.775 3.11943L14.2199 1.08641C14.213 1.07482 14.2074 1.06557 14.2041 1.06015C14.2024 1.05735 14.201 1.0551 14.2002 1.05374C14.1997 1.05305 14.1994 1.05249 14.1992 1.05215C14.1991 1.05198 14.199 1.05184 14.1989 1.05175C14.1989 1.05171 14.1989 1.05167 14.1989 1.05165C14.1989 1.05164 14.1989 1.05163 14.1989 1.05163C14.1989 1.05162 14.1989 1.05162 14.1989 1.05162C14.1989 1.05162 14.1989 1.05162 14.1989 1.05162C14.1989 1.05162 14.1989 1.05162 14.1989 1.05162C14.1987 1.05144 14.1994 1.0525 14.2002 1.05373C14.201 1.05508 14.2024 1.05733 14.2041 1.06013C14.2074 1.06554 14.213 1.07479 14.2198 1.08637L10.775 3.11938ZM11.4355 3.77049C11.1791 3.6257 10.9513 3.41165 10.7851 3.13621L14.2098 1.06954C14.0121 0.7419 13.7321 0.473704 13.4025 0.287539L11.4355 3.77049ZM12.3152 4C11.9932 4 11.692 3.91536 11.4355 3.77049L13.4025 0.287544C13.0727 0.101281 12.6982 0 12.3152 0V4ZM13.195 3.77048C12.9385 3.91536 12.6373 4 12.3152 4V0C11.9323 0 11.5578 0.10128 11.228 0.28755L13.195 3.77048ZM13.8456 3.13584C13.6794 3.41145 13.4515 3.62563 13.195 3.77049L11.228 0.287543C10.8982 0.473803 10.6181 0.742204 10.4203 1.07017L13.8456 3.13584ZM3.74277 19.8907L13.8457 3.13575L10.4202 1.07026L0.317309 17.8252L3.74277 19.8907ZM3.72601 19.918C3.73256 19.9075 3.7377 19.8991 3.74051 19.8944C3.742 19.892 3.74319 19.89 3.7439 19.8888C3.74426 19.8882 3.74456 19.8877 3.74473 19.8874C3.74482 19.8873 3.7449 19.8872 3.74494 19.8871C3.74496 19.887 3.74498 19.887 3.74499 19.887C3.745 19.887 3.745 19.887 3.74501 19.887C3.74501 19.887 3.74501 19.887 3.74501 19.887C3.74501 19.887 3.74501 19.887 3.74501 19.887C3.74501 19.887 3.74501 19.887 3.74501 19.887C3.74541 19.8863 3.74316 19.8901 3.74053 19.8944C3.73771 19.899 3.73258 19.9075 3.72603 19.9179L0.334042 17.798C0.32749 17.8084 0.322356 17.8169 0.319539 17.8215C0.318051 17.824 0.316858 17.826 0.316151 17.8271C0.315788 17.8277 0.315494 17.8282 0.315318 17.8285C0.315227 17.8287 0.315154 17.8288 0.31511 17.8289C0.315087 17.8289 0.315069 17.8289 0.315057 17.829C0.315052 17.829 0.315047 17.829 0.315044 17.829C0.315043 17.829 0.315042 17.829 0.315041 17.829C0.315041 17.829 0.31504 17.829 0.31504 17.829C0.31504 17.829 0.31504 17.829 0.31504 17.829C0.314641 17.8296 0.31689 17.8259 0.319526 17.8215C0.322339 17.8169 0.327469 17.8085 0.334016 17.798L3.72601 19.918ZM3.76943 18.0907C4.08597 18.6526 4.07604 19.3376 3.74302 19.8903L0.317002 17.8257C-0.0937018 18.5073 -0.106118 19.3608 0.284358 20.0539L3.76943 18.0907ZM12.3152 -2C10.8434 -2 9.4676 -1.22292 8.7076 0.0373522L12.133 2.103C12.1487 2.07683 12.1748 2.04972 12.2115 2.02902C12.2481 2.00832 12.2848 2 12.3152 2V-2ZM15.9229 0.0373415C15.1629 -1.22295 13.787 -2 12.3152 -2V2C12.3457 2 12.3824 2.00832 12.419 2.02902C12.4557 2.04971 12.4817 2.07681 12.4975 2.10292L15.9229 0.0373415ZM26.0259 16.7925L15.9229 0.0373847L12.4974 2.10287L22.6005 18.858L26.0259 16.7925ZM26.0866 21.0393C26.8329 19.7176 26.8099 18.0924 26.0258 16.7924L22.6006 18.8581C22.6393 18.9224 22.6407 19.0067 22.6035 19.0725L26.0866 21.0393ZM22.4183 23.1806C23.9363 23.1806 25.34 22.3612 26.0865 21.0395L22.6036 19.0723C22.5665 19.1381 22.4936 19.1806 22.4183 19.1806V23.1806ZM2.2122 23.1806H22.4183V19.1806H2.2122V23.1806ZM-1.45592 21.0396C-0.709429 22.3612 0.69415 23.1806 2.2122 23.1806V19.1806C2.13696 19.1806 2.06405 19.1381 2.02689 19.0723L-1.45592 21.0396ZM-1.39547 16.7925C-2.17929 18.0925 -2.20241 19.7177 -1.45603 21.0394L2.027 19.0725C1.98991 19.0068 1.99114 18.9225 2.03004 18.858L-1.39547 16.7925ZM8.70755 0.0374341L-1.39545 16.7925L2.03001 18.858L12.133 2.10292L8.70755 0.0374341ZM20.8879 19.891C20.5544 19.3381 20.5445 18.6527 20.861 18.0908L24.3462 20.0539C24.7368 19.3604 24.7242 18.5067 24.3132 17.8253L20.8879 19.891ZM20.8622 18.0888C21.1798 17.5265 21.7722 17.1806 22.4183 17.1806V21.1806C23.2149 21.1806 23.9532 20.7497 24.345 20.0559L20.8622 18.0888ZM22.4183 17.1806H2.2122V21.1806H22.4183V17.1806ZM2.2122 17.1806C2.85772 17.1806 3.44963 17.5259 3.76737 18.0871L0.286618 20.058C0.678752 20.7505 1.41635 21.1806 2.2122 21.1806V17.1806ZM20.7056 18.821L21.2272 19.6861L24.6526 17.6206L24.131 16.7555L20.7056 18.821ZM20.5815 18.6153L20.7056 18.821L24.131 16.7555L24.0069 16.5498L20.5815 18.6153ZM20.578 18.6095L20.5813 18.615L24.0071 16.55L24.0038 16.5445L20.578 18.6095ZM11.7703 4.00246L20.5782 18.6097L24.0036 16.5443L15.1957 1.93698L11.7703 4.00246ZM11.7697 4.00146L11.7701 4.00215L15.1959 1.93729L15.1955 1.9366L11.7697 4.00146ZM11.7204 3.91983L11.7699 4.00178L15.1953 1.93628L15.1459 1.85433L11.7204 3.91983ZM11.7203 3.91958L11.7205 3.91994L15.1458 1.85423L15.1456 1.85387L11.7203 3.91958ZM11.1242 2.93098L11.7202 3.91947L15.1457 1.85398L14.5496 0.865494L11.1242 2.93098ZM12.3153 3.60363C11.8262 3.60363 11.3765 3.34938 11.1243 2.93116L14.5495 0.865312C14.0781 0.0836974 13.2286 -0.396369 12.3153 -0.396369V3.60363ZM13.5062 2.93116C13.254 3.34945 12.8042 3.60363 12.3153 3.60363V-0.396369C11.402 -0.396369 10.5525 0.0836217 10.081 0.865312L13.5062 2.93116ZM12.9103 3.91946L13.5064 2.93098L10.0809 0.865487L9.48486 1.85397L12.9103 3.91946ZM12.9093 3.92107L12.9096 3.9207L9.4856 1.85273L9.48538 1.85311L12.9093 3.92107ZM12.8607 4.00177L12.9101 3.91983L9.48463 1.85435L9.43522 1.93628L12.8607 4.00177ZM12.8607 4.00175L12.8611 4.00106L9.4348 1.93699L9.43438 1.93768L12.8607 4.00175ZM4.05229 18.6097L12.8603 4.00246L9.43481 1.93697L0.626833 16.5443L4.05229 18.6097ZM4.04897 18.6152L4.0523 18.6097L0.626822 16.5443L0.623497 16.5498L4.04897 18.6152ZM3.92492 18.821L4.04896 18.6153L0.623509 16.5498L0.499475 16.7555L3.92492 18.821ZM3.40326 19.6861L3.92493 18.821L0.499474 16.7555L-0.0221934 17.6206L3.40326 19.6861ZM3.42331 18.284C3.67012 18.721 3.66255 19.256 3.40335 19.686L-0.02228 17.6207C-0.507875 18.4262 -0.522178 19.4319 -0.0596594 20.2509L3.42331 18.284ZM2.2122 17.577C2.71405 17.577 3.17641 17.8467 3.42339 18.2841L-0.0597421 20.2508C0.402858 21.0701 1.27171 21.577 2.2122 21.577V17.577ZM3.22232 17.577H2.2122V21.577H3.22232V17.577ZM3.22261 17.577H3.22232V21.577H3.22261V17.577ZM3.46261 17.577H3.22261V21.577H3.46261V17.577ZM3.46905 17.577H3.46261V21.577H3.46905V17.577ZM21.1614 17.577H3.46905V21.577H21.1614V17.577ZM21.1678 17.577H21.1614V21.577H21.1678V17.577ZM21.4081 17.577H21.1678V21.577H21.4081V17.577ZM21.4087 17.577H21.4081V21.577H21.4087V17.577ZM22.4183 17.577H21.4087V21.577H22.4183V17.577ZM21.2073 18.2837C21.4541 17.8469 21.9161 17.577 22.4183 17.577V21.577C23.3591 21.577 24.2276 21.0697 24.6901 20.2511L21.2073 18.2837ZM21.2274 19.6864C20.968 19.2565 20.9603 18.7211 21.2073 18.2837L24.6901 20.2511C25.1529 19.4318 25.1384 18.4258 24.6524 17.6203L21.2274 19.6864ZM10.6025 5.93904L18.2427 18.6097L21.6682 16.5443L14.028 3.87356L10.6025 5.93904ZM6.38774 18.6097L14.028 5.93905L10.6025 3.87355L2.96229 16.5443L6.38774 18.6097ZM19.9554 15.577H4.67502V19.577H19.9554V15.577Z" fill="#FFB643" mask="url(#path-1-inside-1)"/>
<path d="M12.0786 10.3939C12.0379 9.53115 12.0033 8.70697 12.0002 8.00594C12.0235 8.00245 12.0521 8 12.0861 8C12.1135 8 12.1372 8.00208 12.157 8.00513C12.154 8.70636 12.1194 9.53082 12.0786 10.3939Z" stroke="#FFB643" stroke-width="2"/>
<path d="M12 16.1456C12 16.0985 12.0176 16.0628 12.0408 16.0392C12.0614 16.0182 12.0924 16 12.1456 16C12.1617 16 12.1947 16.0073 12.2295 16.0424C12.2637 16.077 12.2764 16.1153 12.2764 16.1456C12.2764 16.1644 12.2667 16.2053 12.2263 16.2464C12.1866 16.2869 12.1533 16.2912 12.1456 16.2912C12.1009 16.2912 12.0693 16.2757 12.0439 16.2496C12.0147 16.2197 12 16.1811 12 16.1456Z" fill="#FFB643" stroke="#FFB643" stroke-width="2"/>
</svg>
